<svg height="80" viewBox="0 0 80 80" width="80" xmlns="http://www.w3.org/2000/svg"><g style="stroke:#4eb8e7;stroke-width:2.5;fill:none;fill-rule:evenodd;stroke-linecap:round;stroke-linejoin:round"><path d="m26.25 11.25h-16.25c-2.07125 0-3.75 1.67875-3.75 3.75v55c0 2.07125 1.67875 3.75 3.75 3.75h27.5c2.07125 0 3.75-1.67875 3.75-3.75v-23.75"/><path d="m41.25 63.75h-35z"/><path d="m26.25 21.25h-20z"/><path d="m26.25 16.25h-5z"/><path d="m21.25 68.75h5z"/><path d="m50 33.75h20c2.07125 0 3.75-1.67875 3.75-3.75v-20c0-2.07125-1.67875-3.75-3.75-3.75h-35c-2.07125 0-3.75 1.67875-3.75 3.75v20c0 2.07125 1.67875 3.75 3.75 3.75h6.25v7.5z" fill="#4eb8e7" fill-opacity=".2"/></g></svg>