<svg height="80" viewBox="0 0 80 80" width="80" xmlns="http://www.w3.org/2000/svg"><g style="stroke:#4eb8e7;stroke-width:2.5;fill:none;fill-rule:evenodd;stroke-linecap:round;stroke-linejoin:round"><path d="m23.75 28.7475v-9.9975c0-8.28375 6.71625-15 15-15s15 6.71625 15 15"/><path d="m63.75 48.75c0-13.8075-11.1925-25-25-25s-25 11.1925-25 25 11.1925 25 25 25 25-11.1925 25-25z" fill="#4eb8e7" fill-opacity=".2"/><path d="m53.75 48.75c0 8.28375-6.71625 15-15 15s-15-6.71625-15-15 6.71625-15 15-15 15 6.71625 15 15z" fill="#fff"/><path d="m41.25 46.25c0 1.38-1.11875 2.5-2.5 2.5-1.38 0-2.5-1.12-2.5-2.5 0-1.38125 1.12-2.5 2.5-2.5 1.38125 0 2.5 1.11875 2.5 2.5z" fill="#fff"/><path d="m38.75 56.25v-7.5z"/></g></svg>