<svg height="80" viewBox="0 0 80 80" width="80" xmlns="http://www.w3.org/2000/svg"><g style="stroke:#4eb8e7;stroke-width:2.5;fill:none;fill-rule:evenodd;stroke-linecap:round;stroke-linejoin:round" transform="translate(6 11)"><path d="m30.25.25c-18.75 0-30 13.75-30 32.5 0 15 5 27.5 16.25 27.5 12.5 0 1.25-23.75 12.5-23.75s10 17.5 27.5 17.5c6.25 0 11.25-3.75 11.25-15 0-23.75-17.5-38.75-37.5-38.75z"/><g fill="#4eb8e7" fill-opacity=".2"><path d="m25.25 15.25c0 2.76125-1.67875 5-3.75 5s-3.75-2.23875-3.75-5 1.67875-5 3.75-5 3.75 2.23875 3.75 5z"/><path d="m17.75 45.25c0 2.76125-2.23875 5-5 5s-5-2.23875-5-5 2.23875-5 5-5 5 2.23875 5 5z"/><path d="m39.6975 13.9125c-1.08125 2.685-3.38875 4.34-5.155 3.7-1.76625-.64125-2.3225-3.34-1.24-6.025 1.08125-2.685 3.38875-4.34 5.155-3.7 1.76625.64375 2.3225 3.34 1.24 6.025z"/><path d="m60.16 41.90125c-.63625 2.605-4.46875 3.97875-8.56375 3.06625-4.09125-.91125-6.8925-3.7625-6.25625-6.3675.63625-2.60625 4.46875-3.98 8.56375-3.0675 4.09125.91125 6.89375 3.7625 6.25625 6.36875z"/><path d="m54.935 19.24875c1.07875 1.85125-.7025 5.01375-3.98125 7.06375-3.27625 2.0475-6.80875 2.20875-7.88875.35875-1.07875-1.85125.7025-5.01375 3.98125-7.06375 3.27625-2.0475 6.80875-2.20875 7.88875-.35875z"/></g></g></svg>