<svg height="80" viewBox="0 0 80 80" width="80" xmlns="http://www.w3.org/2000/svg"><g style="stroke:#4eb8e7;stroke-width:2.5;fill:none;fill-rule:evenodd;stroke-linecap:round;stroke-linejoin:round"><path d="m3.75 37.5c0 3.4525 2.23875 6.25 5 6.25 4.14125 0 7.5-3.35875 7.5-7.5 0-2.76125-1.68-5-3.75-5s-3.75 2.23875-3.75 5c0 4.14125 3.3575 7.5 7.5 7.5h5"/><path d="m36.61375 20.005c-.23625-.79375-.36375-1.635-.36375-2.505 0-4.8325 3.9175-8.75 8.75-8.75s8.75 3.9175 8.75 8.75c0 .8625-.125 1.69625-.35625 2.48375" fill="#4eb8e7" fill-opacity=".2"/><path d="m61.25 40c0 .69125-.55875 1.25-1.25 1.25s-1.25-.55875-1.25-1.25.55875-1.25 1.25-1.25 1.25.55875 1.25 1.25z"/><path d="m62.175 30.325c2.52 2.35875 4.4375 5.23625 5.53375 8.435v-.01h6.04125c1.38 0 2.5 1.12 2.5 2.5v7.5c0 1.38-1.12 2.5-2.5 2.5h-6.045c-1.105 3.21875-3.0425 6.11375-5.58625 8.48l1.5925 9.02c.24375 1.38-.67875 2.5-2.06 2.5h-3.75c-1.38 0-2.69625-1.12-2.94-2.5l-.735-4.16375c-2.8425 1.075-5.9475 1.66375-9.22625 1.66375-3.27 0-6.38625-.59125-9.22125-1.66125l-.005-.0025-.735 4.16375c-.24375 1.38-1.56 2.5-2.94 2.5h-3.75c-1.38125 0-2.30375-1.12-2.06-2.5l1.5925-9.02375c-4.1075-3.81875-6.63125-9.0075-6.63125-14.72625 0-11.73625 10.63375-21.25 23.75-21.25 3.70125 0 7.20375.75625 10.32625 2.10875l.00125.00125c1.7775-2.7725 4.885-4.61 8.4225-4.61 2.125 0 4.095.6625 5.715 1.79375l-.005-.00375-7.285 7.28625z"/></g></svg>