<svg height="80" viewBox="0 0 80 80" width="80" xmlns="http://www.w3.org/2000/svg"><g style="stroke:#4eb8e7;stroke-width:2.5;fill:none;fill-rule:evenodd;stroke-linecap:round;stroke-linejoin:round"><path d="m17.5 8.75h32.5l13.75 13.75v47.5c0 2.07-1.68 3.75-3.75 3.75h-42.5c-2.07 0-3.75-1.68-3.75-3.75v-57.5c0-2.07 1.68-3.75 3.75-3.75z"/><path d="m48.75 8.75v11.25c0 2.07 1.68 3.75 3.75 3.75h11.25"/><path d="m21.25 46.25h35z"/><path d="m56.25 53.75h-35z"/><path d="m21.25 61.25h27.5z"/><g fill="#4eb8e7" fill-opacity=".2"><path d="m21.25 38.75c0-4.1425 3.35875-7.5 7.5-7.5s7.5 3.3575 7.5 7.5"/><path d="m33.75 26.25c0 2.76-2.23875 5-5 5s-5-2.24-5-5c0-2.7625 2.23875-5 5-5s5 2.2375 5 5z"/></g></g></svg>