<?xml version="1.0" encoding="utf-8"?>
<!-- Generator: Adobe Illustrator 27.0.0, SVG Export Plug-In . SVG Version: 6.00 Build 0)  -->
<!DOCTYPE svg PUBLIC "-//W3C//DTD SVG 1.1//EN" "http://www.w3.org/Graphics/SVG/1.1/DTD/svg11.dtd" [
	<!ENTITY ns_extend "http://ns.adobe.com/Extensibility/1.0/">
	<!ENTITY ns_ai "http://ns.adobe.com/AdobeIllustrator/10.0/">
	<!ENTITY ns_graphs "http://ns.adobe.com/Graphs/1.0/">
	<!ENTITY ns_vars "http://ns.adobe.com/Variables/1.0/">
	<!ENTITY ns_imrep "http://ns.adobe.com/ImageReplacement/1.0/">
	<!ENTITY ns_sfw "http://ns.adobe.com/SaveForWeb/1.0/">
	<!ENTITY ns_custom "http://ns.adobe.com/GenericCustomNamespace/1.0/">
	<!ENTITY ns_adobe_xpath "http://ns.adobe.com/XPath/1.0/">
]>
<svg version="1.1" id="Layer_1" xmlns:x="&ns_extend;" xmlns:i="&ns_ai;" xmlns:graph="&ns_graphs;"
	 xmlns="http://www.w3.org/2000/svg" xmlns:xlink="http://www.w3.org/1999/xlink" x="0px" y="0px" viewBox="0 0 512 512"
	 style="enable-background:new 0 0 512 512;" xml:space="preserve">
<style type="text/css">
	.st0{fill:#11548F;}
</style>
<metadata>
	<sfw  xmlns="&ns_sfw;">
		<slices></slices>
		<sliceSourceBounds  bottomLeftOrigin="true" height="512" width="493.4" x="9.3" y="0"></sliceSourceBounds>
	</sfw>
</metadata>
<path class="st0" d="M160,256c0-53.9,42.1-96,96-96c53,0,96,42.1,96,96c0,53-43,96-96,96C202.1,352,160,309,160,256z M256,208
	c-26.5,0-48,21.5-48,48s21.5,48,48,48s48-21.5,48-48S282.5,208,256,208z M293.1,0c22.2,0,41.5,15.2,46.7,36.7l7.8,32.5
	c8.5,4.2,16.6,8.9,24.3,14.1l32.1-9.4c21.3-6.3,44.1,2.8,55.2,22l37.1,64.2c11,19.2,7.5,43.5-8.5,58.8l-24.3,22.2
	c0.3,5.5,0.5,10.2,0.5,14.9c0,4.7-0.2,9.4-0.5,14l24.3,23.1c16,15.3,19.5,39.6,8.5,58.8l-37.1,64.2c-11.1,19.2-33.9,28.3-55.2,22.1
	l-32.1-9.5c-7.7,5.2-15.8,9.9-24.3,14.1l-7.8,32.5c-5.2,21.5-24.5,36.7-46.7,36.7h-74.2c-22.2,0-41.5-15.2-46.7-36.7l-7.8-32.5
	c-8.5-4.2-16.6-8.9-24.3-14.1l-33,9.5c-20.4,6.2-43.2-2.9-54.2-22.1l-37.1-64.2c-11.1-19.2-7.6-43.5,8.5-58.8L48.5,270
	c-0.3-4.6-0.5-9.3-0.5-14.9c0-3.8,0.2-8.5,0.5-14l-24.2-22.2c-16.1-15.3-19.6-39.6-8.5-58.8l37.1-64.2c11.1-19.2,33.9-28.3,54.2-22
	l33,9.4c7.7-5.2,15.8-9.9,24.3-14.1l7.8-32.5C177.4,15.2,196.7,0,218.9,0L293.1,0z M205.5,103.6l-11.2,4.7
	c-12.7,5.3-24.5,12.2-35.2,20.4l-9.7,7.4l-55-16.2l-37.1,64.2l41.5,39.5l-1.5,12c-0.8,6.7-1.3,13.5-1.3,20.4s0.4,13.7,1.3,20.4
	l1.5,12l-41.5,39.5l37.1,64.2l55-16.2l9.7,7.4c10.7,8.2,22.5,15.1,35.2,20.4l11.2,4.7l13.4,55.6h74.2l13.4-55.6l11.2-4.7
	c12.7-5.3,24.5-12.2,35.2-20.4l9.7-7.4l55,16.2l37.1-64.2l-41.5-39.5l1.5-12c0.9-6.7,1.3-13.5,1.3-20.4s-0.4-13.7-1.3-20.4l-1.5-12
	l41.5-39.5l-37.1-64.2l-55,16.2l-9.7-7.4c-10.7-8.2-22.5-15.1-35.2-20.4l-11.2-4.7L293.1,48h-74.2L205.5,103.6z"/>
</svg>
