<?xml version="1.0" encoding="utf-8"?>
<!-- Generator: Adobe Illustrator 27.0.0, SVG Export Plug-In . SVG Version: 6.00 Build 0)  -->
<!DOCTYPE svg PUBLIC "-//W3C//DTD SVG 1.1//EN" "http://www.w3.org/Graphics/SVG/1.1/DTD/svg11.dtd" [
	<!ENTITY ns_extend "http://ns.adobe.com/Extensibility/1.0/">
	<!ENTITY ns_ai "http://ns.adobe.com/AdobeIllustrator/10.0/">
	<!ENTITY ns_graphs "http://ns.adobe.com/Graphs/1.0/">
	<!ENTITY ns_vars "http://ns.adobe.com/Variables/1.0/">
	<!ENTITY ns_imrep "http://ns.adobe.com/ImageReplacement/1.0/">
	<!ENTITY ns_sfw "http://ns.adobe.com/SaveForWeb/1.0/">
	<!ENTITY ns_custom "http://ns.adobe.com/GenericCustomNamespace/1.0/">
	<!ENTITY ns_adobe_xpath "http://ns.adobe.com/XPath/1.0/">
]>
<svg version="1.1" id="Layer_1" xmlns:x="&ns_extend;" xmlns:i="&ns_ai;" xmlns:graph="&ns_graphs;"
	 xmlns="http://www.w3.org/2000/svg" xmlns:xlink="http://www.w3.org/1999/xlink" x="0px" y="0px" viewBox="0 0 512 512"
	 style="enable-background:new 0 0 512 512;" xml:space="preserve">
<style type="text/css">
	.st0{fill:#11548F;}
</style>
<metadata>
	<sfw  xmlns="&ns_sfw;">
		<slices></slices>
		<sliceSourceBounds  bottomLeftOrigin="true" height="512" width="512" x="0" y="0"></sliceSourceBounds>
	</sfw>
</metadata>
<path class="st0" d="M256,0c141.4,0,256,114.6,256,256S397.4,512,256,512S0,397.4,0,256S114.6,0,256,0z M256,464
	c7.4,0,26.1-7.2,47.6-48.4c8.8-17.7,15.5-39.2,22-63.6H186.4c5.6,24.4,13.2,45.9,22,63.6C229,456.8,248.6,464,256,464z M178.5,304
	h155c1.6-15.3,2.5-31.4,2.5-48s-0.9-32.7-2.5-48h-155c-1.6,15.3-2.5,31.4-2.5,48S176.9,288.7,178.5,304L178.5,304z M325.6,160
	c-6.5-24.4-13.2-45.9-22-63.6C282.1,55.2,263.4,48,256,48s-27,7.2-47.6,48.4c-8.8,17.7-16.4,39.2-22,63.6H325.6z M381.8,208
	c1.4,15.5,2.2,31.6,2.2,48s-0.8,32.5-2.2,48h76.6c3.7-15.4,5.6-31.5,5.6-48s-1.9-32.6-5.6-48H381.8z M342.1,66.6
	c14.1,25.7,25.3,57.5,32.6,93.4h65.9C419.2,118.9,384.4,85.9,342.1,66.6z M169.9,66.6c-42.3,19.3-77.1,52.3-98.5,93.4h65.9
	C144.6,124.1,155.8,92.3,169.9,66.6L169.9,66.6z M48,256c0,16.5,1.9,32.6,5.6,48h76.6c-1.4-15.5-2.2-31.6-2.2-48s0.8-32.5,2.2-48
	H53.6C49.9,223.4,48,239.5,48,256z M440.6,352h-65.9c-7.3,35.9-18.5,67.7-32.6,93.4C384.4,426.1,419.2,393.1,440.6,352z M137.3,352
	H71.4c21.4,41.1,56.2,74.1,98.5,93.4C155.8,419.7,144.6,387.9,137.3,352L137.3,352z"/>
</svg>
