<?xml version="1.0" encoding="utf-8"?>
<!-- Generator: Adobe Illustrator 27.0.0, SVG Export Plug-In . SVG Version: 6.00 Build 0)  -->
<!DOCTYPE svg PUBLIC "-//W3C//DTD SVG 1.1//EN" "http://www.w3.org/Graphics/SVG/1.1/DTD/svg11.dtd" [
	<!ENTITY ns_extend "http://ns.adobe.com/Extensibility/1.0/">
	<!ENTITY ns_ai "http://ns.adobe.com/AdobeIllustrator/10.0/">
	<!ENTITY ns_graphs "http://ns.adobe.com/Graphs/1.0/">
	<!ENTITY ns_vars "http://ns.adobe.com/Variables/1.0/">
	<!ENTITY ns_imrep "http://ns.adobe.com/ImageReplacement/1.0/">
	<!ENTITY ns_sfw "http://ns.adobe.com/SaveForWeb/1.0/">
	<!ENTITY ns_custom "http://ns.adobe.com/GenericCustomNamespace/1.0/">
	<!ENTITY ns_adobe_xpath "http://ns.adobe.com/XPath/1.0/">
]>
<svg version="1.1" id="Layer_1" xmlns:x="&ns_extend;" xmlns:i="&ns_ai;" xmlns:graph="&ns_graphs;"
	 xmlns="http://www.w3.org/2000/svg" xmlns:xlink="http://www.w3.org/1999/xlink" x="0px" y="0px" viewBox="0 0 576 512"
	 style="enable-background:new 0 0 576 512;" xml:space="preserve">
<style type="text/css">
	.st0{fill:#11548F;}
</style>
<metadata>
	<sfw  xmlns="&ns_sfw;">
		<slices></slices>
		<sliceSourceBounds  bottomLeftOrigin="true" height="448" width="576" x="0" y="32"></sliceSourceBounds>
	</sfw>
</metadata>
<path class="st0" d="M576,55.1V456c0,13.3-10.7,24-24,24s-24-10.7-24-24v-5.7l-177.7-48.4c-9.2,44.5-47.4,78.1-94.3,78.1
	c-53.9,0-96-43-96-96c0-11.4,1.1-22.3,5.6-32.5L48,319.4v8.6c0,13.3-10.8,24-24,24S0,341.3,0,328V184c0-13.3,10.8-24,24-24
	s24,10.7,24,24v8.6L528,61.7V56c0-13.2,10.7-24,24-24s24,10.8,24,24V55.1z M528,400.6V111.4L48,242.3v27.4L528,400.6z M256,432
	c24.8,0,45.1-18.8,47.7-42.8l-91.4-25c-2.8,6-4.3,12.7-4.3,19.8C208,410.5,229.5,432,256,432L256,432z"/>
</svg>
