<?xml version="1.0" encoding="utf-8"?>
<!-- Generator: Adobe Illustrator 27.0.0, SVG Export Plug-In . SVG Version: 6.00 Build 0)  -->
<!DOCTYPE svg PUBLIC "-//W3C//DTD SVG 1.1//EN" "http://www.w3.org/Graphics/SVG/1.1/DTD/svg11.dtd" [
	<!ENTITY ns_extend "http://ns.adobe.com/Extensibility/1.0/">
	<!ENTITY ns_ai "http://ns.adobe.com/AdobeIllustrator/10.0/">
	<!ENTITY ns_graphs "http://ns.adobe.com/Graphs/1.0/">
	<!ENTITY ns_vars "http://ns.adobe.com/Variables/1.0/">
	<!ENTITY ns_imrep "http://ns.adobe.com/ImageReplacement/1.0/">
	<!ENTITY ns_sfw "http://ns.adobe.com/SaveForWeb/1.0/">
	<!ENTITY ns_custom "http://ns.adobe.com/GenericCustomNamespace/1.0/">
	<!ENTITY ns_adobe_xpath "http://ns.adobe.com/XPath/1.0/">
]>
<svg version="1.1" id="Layer_1" xmlns:x="&ns_extend;" xmlns:i="&ns_ai;" xmlns:graph="&ns_graphs;"
	 xmlns="http://www.w3.org/2000/svg" xmlns:xlink="http://www.w3.org/1999/xlink" x="0px" y="0px" viewBox="0 0 576 512"
	 style="enable-background:new 0 0 576 512;" xml:space="preserve">
<style type="text/css">
	.st0{fill:#11548F;}
</style>
<metadata>
	<sfw  xmlns="&ns_sfw;">
		<slices></slices>
		<sliceSourceBounds  bottomLeftOrigin="true" height="384" width="576" x="0" y="64"></sliceSourceBounds>
	</sfw>
</metadata>
<path class="st0" d="M456,272c13.3,0,24,10.7,24,24s-10.7,24-24,24H280c-13.3,0-24-10.7-24-24s10.7-24,24-24H456z M256,200
	c0-13.3,10.7-24,24-24h176c13.3,0,24,10.7,24,24s-10.7,24-24,24H280C266.7,224,256,213.3,256,200z M180.1,166.3
	c6.6,1.2,16.6,3.2,21,4.4c10.7,2.8,17.1,13.8,14.2,24.4c-2.8,10.7-13.8,17.1-24.4,14.2c-3.9-1-17.4-3.6-21.8-5.2
	c-12.2-1-23,0.6-28.6,3.5c-6.3,2.8-7.8,6.1-8.2,8.1c-0.6,3.4,0,4.6,0.2,5c0.2,0.5,1,1.7,3.6,3.5c6.1,4.2,15.7,7.2,29,11.5l1.7,0.2
	c12.1,3.7,28.3,8.5,40.4,17.4c6.7,4.8,13,11.4,16.9,20.4c4,9.1,4.8,19.1,3,29.5c-3.3,19-15.9,32-31.7,38.7c-4.8,1.2-10,3.6-15.3,4.6
	v5.5c0,11.1-9,20.1-21,20.1c-10.2,0-19.2-9-19.2-20.1v-6.4c-9.5-2.2-22.8-6.4-29.8-9.1c-1.7-0.6-3.2-1.1-4.4-2.4
	c-10.5-2.6-16.2-13.9-12.7-24.4c3.5-10.5,14.8-16.2,25.3-12.7c2,0.7,4.2,1.4,6.4,2.2c9.5,3.2,20.2,6.8,26.2,7.8
	c12.8,2,22.7,0.7,28.8-1.9c5.5-2.3,7.4-5.3,8-8.8c0.7-4,0.1-5.8-0.3-6.6c-0.3-0.9-1.2-2.3-3.7-4.1c-5.9-4.3-15.3-7.4-29.3-11.7
	l-2.2-0.6c-11.7-3.5-27-8.1-38.6-16c-6.6-4.5-13.1-10.7-17.3-19.5c-4.2-8.9-5.2-18.8-3.4-29c3.2-18.3,16.2-30.9,31.1-37.7
	c4.1-2.2,10.3-3.9,15.9-5.1v-6.9c0-10.2,9-19.2,20.1-19.2s20.1,9,20.1,19.2V166.3z M0,128c0-35.3,28.6-64,64-64h448
	c35.3,0,64,28.7,64,64v256c0,35.3-28.7,64-64,64H64c-35.3,0-64-28.7-64-64V128z M48,128v256c0,8.8,7.2,16,16,16h448
	c8.8,0,16-7.2,16-16V128c0-8.8-7.2-16-16-16H64C55.2,112,48,119.2,48,128z"/>
</svg>
