<?xml version="1.0" encoding="utf-8"?>
<!-- Generator: Adobe Illustrator 26.0.3, SVG Export Plug-In . SVG Version: 6.00 Build 0)  -->
<!DOCTYPE svg PUBLIC "-//W3C//DTD SVG 1.1//EN" "http://www.w3.org/Graphics/SVG/1.1/DTD/svg11.dtd" [
	<!ENTITY ns_extend "http://ns.adobe.com/Extensibility/1.0/">
	<!ENTITY ns_ai "http://ns.adobe.com/AdobeIllustrator/10.0/">
	<!ENTITY ns_graphs "http://ns.adobe.com/Graphs/1.0/">
	<!ENTITY ns_vars "http://ns.adobe.com/Variables/1.0/">
	<!ENTITY ns_imrep "http://ns.adobe.com/ImageReplacement/1.0/">
	<!ENTITY ns_sfw "http://ns.adobe.com/SaveForWeb/1.0/">
	<!ENTITY ns_custom "http://ns.adobe.com/GenericCustomNamespace/1.0/">
	<!ENTITY ns_adobe_xpath "http://ns.adobe.com/XPath/1.0/">
]>
<svg version="1.1" id="Layer_1" xmlns:x="&ns_extend;" xmlns:i="&ns_ai;" xmlns:graph="&ns_graphs;"
	 xmlns="http://www.w3.org/2000/svg" xmlns:xlink="http://www.w3.org/1999/xlink" x="0px" y="0px" viewBox="0 0 384 512"
	 style="enable-background:new 0 0 384 512;" xml:space="preserve">
<style type="text/css">
	.st0{fill:#11548F;}
</style>
<metadata>
	<sfw  xmlns="&ns_sfw;">
		<slices></slices>
		<sliceSourceBounds  bottomLeftOrigin="true" height="512" width="384" x="0" y="0"></sliceSourceBounds>
	</sfw>
</metadata>
<path class="st0" d="M320,64h-49.6C262.1,27.5,230.7,0,192,0s-71,27.5-78.4,64H64C28.6,64,0,92.7,0,128v320c0,35.3,28.6,64,64,64
	h256c35.4,0,64-28.7,64-64V128C384,92.7,355.3,64,320,64z M192,48c13.2,0,24,10.8,24,24s-10.8,24-24,24s-24-10.8-24-24
	S178.8,48,192,48z M336,448c0,8.8-7.2,16-16,16H64c-8.8,0-16-7.2-16-16V128c0-8.8,7.2-16,16-16h18.3c-1.3,5.1-2.3,10.4-2.3,16v16
	c0,8.8,7.2,16,16,16h192c8.8,0,16-7.2,16-16v-16c0-5.6-0.9-10.9-2.3-16H320c8.8,0,16,7.2,16,16V448z M288,256H176
	c-8.8,0-16,7.2-16,16s7.2,16,16,16h112c8.8,0,16-7.2,16-16S296.8,256,288,256z M288,352H176c-8.8,0-16,7.2-16,16s7.2,16,16,16h112
	c8.8,0,16-7.2,16-16S296.8,352,288,352z M104,344c-13.2,0-24,10.8-24,24s10.8,24,24,24c13.3,0,24-10.7,24-24S117.3,344,104,344z
	 M108,288c4.1,0,8.2-1.6,11.3-4.7l48-48c6.2-6.2,6.2-16.4,0-22.6s-16.4-6.2-22.6,0L108,249.4l-12.7-12.7c-6.2-6.2-16.4-6.2-22.6,0
	s-6.2,16.4,0,22.6l24,24C99.8,286.4,103.9,288,108,288z"/>
</svg>
