<?xml version="1.0" encoding="UTF-8"?><svg id="uuid-7ecf975a-427c-4231-bc92-b9461d3133cf" xmlns="http://www.w3.org/2000/svg" viewBox="0 0 764.63 167.3"><defs><style>.uuid-f22846d6-a0fa-4fe5-893f-73e1dbca170d{fill:#001746;}.uuid-fcdf7908-3466-490b-8674-b14f79fbbaf6{fill:#11548f;}.uuid-65f18787-b567-4eb4-82ce-aac4e7af5477{fill:#6eccff;}</style></defs><g><path class="uuid-f22846d6-a0fa-4fe5-893f-73e1dbca170d" d="M502.74,45.97h-16.83l-4.57,24.3,13.55,.04,2.35-12.54h2.69c4.68,0,7.01,3.68,5.89,9.54l-.23,1.26c-.79,4.16-1.35,8.39-3.86,9.48,0,0-.08,.02-.23,.05-.1,.51-2.17,11.55-2.26,11.55-.08,.01-.19,.03-.33,.04,9.95-.55,17.9-8.99,20.12-21.03l.29-1.51c2.63-13.98-4.39-21.18-16.61-21.18Zm-26.41,50.89l-5.47,27.75h13.57l5.43-27.76h-13.53Z"/><path class="uuid-65f18787-b567-4eb4-82ce-aac4e7af5477" d="M501.54,78.08s-2.19,11.59-2.28,11.59c-.08,.01-.57,.03-.7,.04l-.59,.02-6.72,.02-1.39,7.11h-13.53l1.41-7.13h-6.95l2.27-12.03h6.88l1.39-7.47,13.55,.05-1.5,8.02h2.68c2.62,.06,5.47-.23,5.47-.23Z"/><path class="uuid-fcdf7908-3466-490b-8674-b14f79fbbaf6" d="M49.02,45.96h1.68l15.41,25.44,24.62-25.47h1.67l-10.76,57.44h-12.98l4.86-25.95-10.38,11.14h-1.09l-5.95-11.13-4.86,25.96h-12.98l10.76-57.43Z"/><path class="uuid-fcdf7908-3466-490b-8674-b14f79fbbaf6" d="M133.07,46.4h13.57l-10.67,56.93h-13.57l10.67-56.93Z"/><path class="uuid-fcdf7908-3466-490b-8674-b14f79fbbaf6" d="M184.87,46.36h16.75c14.32-.02,22.23,9.18,18.85,27.18l-.47,2.51c-3.28,17.5-14.39,27.22-29.05,27.23h-16.75l10.67-56.92Zm7.46,45.12c6.78,0,11.73-4.53,13.85-15.83l.33-1.76c2.13-11.39-1.15-15.74-7.94-15.73h-2.34l-6.24,33.33h2.34Z"/><path class="uuid-fcdf7908-3466-490b-8674-b14f79fbbaf6" d="M256.52,46.3h13.57l1.56,18.49c.28,3.43,.27,7.95,.27,7.95,0,0,2.05-4.69,3.68-8.04l9.51-19.01h1.84l2.64,19c.48,3.27,.75,8.04,.75,8.04,0,0,1.53-4.61,3-7.96l8.32-18.51h12.81l-27.12,57.61h-1.84l-3.62-20c-.79-4.27-1.34-9.38-1.42-9.88-.13,.25-2.62,5.53-5.03,9.88l-11.12,20.02h-1.84l-5.96-57.59Z"/><path class="uuid-fcdf7908-3466-490b-8674-b14f79fbbaf6" d="M361.98,45.56h1.84l10.23,57.59h-13.48l-.62-4.76h-14.82l-2.4,4.78h-12.73l31.98-57.61Zm-11.79,42.79h8.38l-1.06-8.21c-.37-2.51-.5-5.36-.54-5.61-.12,.17-1.32,3.02-2.56,5.61l-4.22,8.21Z"/><path class="uuid-fcdf7908-3466-490b-8674-b14f79fbbaf6" d="M418.38,85.03l-8.3-38.84h14.15l3.07,17.99c.51,3.1,.61,7.45,.61,7.45,0,0,1.82-4.36,3.49-7.45l9.9-18.01h13.4l-22.71,38.52-3.45,18.42h-13.57l3.39-18.07Z"/><path class="uuid-f22846d6-a0fa-4fe5-893f-73e1dbca170d" d="M550.34,45.96h13.57l-8.47,45.05h17.5l-2.24,11.89h-31.07l10.71-56.94Z"/><path class="uuid-f22846d6-a0fa-4fe5-893f-73e1dbca170d" d="M606.28,84.31l7.21-38.35h13.56l-7.21,38.35c-.87,4.6,.12,7.37,4.48,7.37s6.38-2.76,7.25-7.37l7.21-38.35h13.57l-7.21,38.35c-2.44,12.98-11.52,19.42-23.08,19.42s-18.21-6.45-15.77-19.42Z"/><path class="uuid-f22846d6-a0fa-4fe5-893f-73e1dbca170d" d="M674.21,98.55l8.5-10.05c2.47,2.01,4.83,3.68,8.18,3.68,3.85,0,6.06-1.93,6.43-3.93l.06-.33c.5-2.68-.77-3.94-3.31-6.45l-5.71-5.69c-4.22-4.27-6.05-8.79-4.9-14.91l.08-.42c1.75-9.29,8.82-15.32,19.71-15.32,6.28,0,10.77,1.93,13.3,4.1l-7.81,10.38c-1.96-1.59-4.06-2.93-6.98-2.93-3.27,0-4.8,1.92-5.08,3.43l-.03,.17c-.35,1.84,.35,3.02,2.76,5.36l6.07,6.03c4.44,4.44,6.62,9.29,5.46,15.49l-.13,.67c-1.54,8.2-8.3,16.08-21.03,16.08-8.71,0-12.96-2.76-15.57-5.36Z"/></g><path class="uuid-f22846d6-a0fa-4fe5-893f-73e1dbca170d" d="M718.95,48.57h3.63v.52h-1.5v4.28h-.56v-4.28h-1.57v-.52Zm8.92,.3l-1.42,4.5h-.73l-1.43-4.5v4.5h-.52v-4.8h1l1.33,4.29,1.31-4.29h1.02v4.8h-.56v-4.5Z"/></svg>