<?xml version="1.0" encoding="utf-8"?>
<!-- Generator: Adobe Illustrator 27.0.0, SVG Export Plug-In . SVG Version: 6.00 Build 0)  -->
<!DOCTYPE svg PUBLIC "-//W3C//DTD SVG 1.1//EN" "http://www.w3.org/Graphics/SVG/1.1/DTD/svg11.dtd" [
	<!ENTITY ns_extend "http://ns.adobe.com/Extensibility/1.0/">
	<!ENTITY ns_ai "http://ns.adobe.com/AdobeIllustrator/10.0/">
	<!ENTITY ns_graphs "http://ns.adobe.com/Graphs/1.0/">
	<!ENTITY ns_vars "http://ns.adobe.com/Variables/1.0/">
	<!ENTITY ns_imrep "http://ns.adobe.com/ImageReplacement/1.0/">
	<!ENTITY ns_sfw "http://ns.adobe.com/SaveForWeb/1.0/">
	<!ENTITY ns_custom "http://ns.adobe.com/GenericCustomNamespace/1.0/">
	<!ENTITY ns_adobe_xpath "http://ns.adobe.com/XPath/1.0/">
]>
<svg version="1.1" id="Layer_1" xmlns:x="&ns_extend;" xmlns:i="&ns_ai;" xmlns:graph="&ns_graphs;"
	 xmlns="http://www.w3.org/2000/svg" xmlns:xlink="http://www.w3.org/1999/xlink" x="0px" y="0px" viewBox="0 0 640 512"
	 style="enable-background:new 0 0 640 512;" xml:space="preserve">
<style type="text/css">
	.st0{fill:#11548F;}
</style>
<metadata>
	<sfw  xmlns="&ns_sfw;">
		<slices></slices>
		<sliceSourceBounds  bottomLeftOrigin="true" height="512" width="640" x="0" y="0"></sliceSourceBounds>
	</sfw>
</metadata>
<path class="st0" d="M64,0C28.7,0,0,28.7,0,64v192c0,35.3,28.7,64,64,64h32v48c0,6.1,3.4,11.6,8.8,14.3s11.9,2.1,16.8-1.5l81.1-60.8
	H352c35.3,0,64-28.7,64-64V64c0-35.3-28.7-64-64-64H64z M352,352h-96v32c0,35.3,28.7,64,64,64h117.3l81.1,60.8
	c4.8,3.6,11.3,4.2,16.8,1.5s8.8-8.2,8.8-14.3v-48h32c35.3,0,64-28.7,64-64V192c0-35.3-28.7-64-64-64H448v128
	C448,309,405,352,352,352z"/>
</svg>
