<?xml version="1.0" encoding="utf-8"?>
<!-- Generator: Adobe Illustrator 26.0.3, SVG Export Plug-In . SVG Version: 6.00 Build 0)  -->
<!DOCTYPE svg PUBLIC "-//W3C//DTD SVG 1.1//EN" "http://www.w3.org/Graphics/SVG/1.1/DTD/svg11.dtd" [
	<!ENTITY ns_extend "http://ns.adobe.com/Extensibility/1.0/">
	<!ENTITY ns_ai "http://ns.adobe.com/AdobeIllustrator/10.0/">
	<!ENTITY ns_graphs "http://ns.adobe.com/Graphs/1.0/">
	<!ENTITY ns_vars "http://ns.adobe.com/Variables/1.0/">
	<!ENTITY ns_imrep "http://ns.adobe.com/ImageReplacement/1.0/">
	<!ENTITY ns_sfw "http://ns.adobe.com/SaveForWeb/1.0/">
	<!ENTITY ns_custom "http://ns.adobe.com/GenericCustomNamespace/1.0/">
	<!ENTITY ns_adobe_xpath "http://ns.adobe.com/XPath/1.0/">
]>
<svg version="1.1" id="Layer_1" xmlns:x="&ns_extend;" xmlns:i="&ns_ai;" xmlns:graph="&ns_graphs;"
	 xmlns="http://www.w3.org/2000/svg" xmlns:xlink="http://www.w3.org/1999/xlink" x="0px" y="0px" viewBox="0 0 640 512"
	 style="enable-background:new 0 0 640 512;" xml:space="preserve">
<style type="text/css">
	.st0{fill:#11548F;}
</style>
<metadata>
	<sfw  xmlns="&ns_sfw;">
		<slices></slices>
		<sliceSourceBounds  bottomLeftOrigin="true" height="512" width="640" x="0" y="0"></sliceSourceBounds>
	</sfw>
</metadata>
<path class="st0" d="M288,64c0,16.8-6.5,32.2-17.2,43.6l26.9,57.6c12.2-3.4,25-5.2,38.3-5.2c38.1,0,74.4,15.5,100.3,40.7l77.6-57
	c-1.2-5-1.9-10.3-1.9-15.7c0-35.3,28.7-64,64-64s64,28.7,64,64c0,35.3-28.7,64-64,64c-12.3,0-23.9-3.5-33.7-9.6l-77.6,57
	c9.8,19.4,15.3,41.4,15.3,64.6c0,18.5-3.5,36.2-9.9,52.5l67.4,40.4c10.7-8.1,24-12.9,38.5-12.9c35.3,0,64,28.7,64,64s-28.7,64-64,64
	s-64-28.7-64-64c0-3.4,0.3-6.7,0.8-9.9l-67.4-40.5C418.1,428.5,379.8,448,336,448c-71.4,0-130.6-51.9-142.9-120h-69.8
	c-9.4,23.5-32.4,40-59.3,40c-35.3,0-64-28.7-64-64s28.6-64,64-64c26.9,0,49.9,16.5,59.3,40h69.8c7.5-39.1,29.8-72.9,61.1-94.5
	l-26.9-57.6c-1.1-0.8-2.2,0.1-3.3,0.1c-35.3,0-64-28.7-64-64s28.7-64,64-64S288,28.6,288,64L288,64z M336,400c53,0,96-43,96-96
	c0-53.9-43-96-96-96c-53.9,0-96,42.1-96,96C240,357,282.1,400,336,400z"/>
</svg>
