<?xml version="1.0" encoding="utf-8"?>
<!-- Generator: Adobe Illustrator 26.0.3, SVG Export Plug-In . SVG Version: 6.00 Build 0)  -->
<!DOCTYPE svg PUBLIC "-//W3C//DTD SVG 1.1//EN" "http://www.w3.org/Graphics/SVG/1.1/DTD/svg11.dtd" [
	<!ENTITY ns_extend "http://ns.adobe.com/Extensibility/1.0/">
	<!ENTITY ns_ai "http://ns.adobe.com/AdobeIllustrator/10.0/">
	<!ENTITY ns_graphs "http://ns.adobe.com/Graphs/1.0/">
	<!ENTITY ns_vars "http://ns.adobe.com/Variables/1.0/">
	<!ENTITY ns_imrep "http://ns.adobe.com/ImageReplacement/1.0/">
	<!ENTITY ns_sfw "http://ns.adobe.com/SaveForWeb/1.0/">
	<!ENTITY ns_custom "http://ns.adobe.com/GenericCustomNamespace/1.0/">
	<!ENTITY ns_adobe_xpath "http://ns.adobe.com/XPath/1.0/">
]>
<svg version="1.1" id="Layer_1" xmlns:x="&ns_extend;" xmlns:i="&ns_ai;" xmlns:graph="&ns_graphs;"
	 xmlns="http://www.w3.org/2000/svg" xmlns:xlink="http://www.w3.org/1999/xlink" x="0px" y="0px" viewBox="0 0 640 512"
	 style="enable-background:new 0 0 640 512;" xml:space="preserve">
<style type="text/css">
	.st0{fill:#11548F;}
	.st1{fill:#001746;}
	.st2{fill:#005082;}
	.st3{fill:#92AFC6;}
	.st4{fill:#022542;}
	.st5{fill:#CDCDCD;}
	.st6{fill:#008A47;}
	.st7{fill:#6ECCFF;}
</style>
<metadata>
	<sfw  xmlns="&ns_sfw;">
		<slices></slices>
		<sliceSourceBounds  bottomLeftOrigin="true" height="456.9" width="862.6" x="-222.6" y="64.1"></sliceSourceBounds>
	</sfw>
</metadata>
<path class="st0" d="M640,328c0,13.2-10.8,24-24,24l-129.8-0.2c-1.9,8.2-5.4,16.1-11,23l-26.1,32.2c-15.9,19.5-41.9,25.5-64,16.9
	c-13.5,16.6-30.6,24-48.9,24c-15,0-28.5-5.1-41-15.9c-31.9,21.9-74.8,21.2-105.6-3.9L105,351.8L24,352c-13.2,0-24-10.7-24-24
	s10.8-24,24-24l99.8-0.1l97.2,87.9c16.1,13.1,41.4,10.5,55.2-6.6l15.6-19.1l36.9,31.5c2,1.6,5.5,2.8,9,2.4s6.8-2.1,9-4.9l30-36.5
	l23.9,19.5c3.5,2.7,8.5,2.1,11.2-1.2l26.1-32.2c2.8-3.4,2.2-8.4-1.2-11.2l-108.2-87.8l-8.2,7.5c-40.2,36.7-86.6,11.8-101.5-4.5
	c-26.6-29-25-74.3,4.4-101.2l38.8-35.5l-35.9-0.8c-16.4,0-32.9,7-44.9,20.2l-43.3,44.5L24,176c-13.2,0-24-10.7-24-24s10.8-24,24-24
	l93.1-0.2l26.4-26.4c24-24,56.6-37.5,90.5-37.5h167.5c33.9,0,66.4,13.4,90.4,37.4l26.5,26.4L616,128c13.3,0,24,10.7,24,24
	c0,13.2-10.8,24-24,24l-116.8-0.4l-48.6-46.2c-11.9-11.3-27.8-17.6-44.3-17.6l-58.1,0.2c-10,0-19.7,3.8-27.1,10.6l-65.4,60
	c-9.6,8.7-10.5,24-1.1,34c8.9,9.4,25.1,8.6,34.6,0l55.1-50.6c6.5-5.9,16.6-5.5,22.6,1l10.9,11.8c6,6.5,5.5,16.6-1,22.6l-12.5,11.4
	l102.8,83.4c2.8,2.4,5.4,5,7.6,7.7L616,304C629.3,304,640,314.7,640,328z"/>
<path class="st1" d="M-181,44.4h-29.4c-6.6,0-12-5.4-12-12V3c0-6.6,5.4-12,12-12h29.4c6.6,0,12,5.4,12,12v29.4
	C-169,39-174.4,44.4-181,44.4z"/>
<path class="st2" d="M-180.9,206.2h-29.4c-6.6,0-12-5.4-12-12v-29.4c0-6.6,5.4-12,12-12h29.4c6.6,0,12,5.4,12,12v29.4
	C-168.9,200.8-174.3,206.2-180.9,206.2z"/>
<path class="st3" d="M-181,360.4h-29.4c-6.6,0-12-5.4-12-12v-29.4c0-6.6,5.4-12,12-12h29.4c6.6,0,12,5.4,12,12v29.4
	C-169,355-174.4,360.4-181,360.4z"/>
<g>
	<g>
		<g>
			<path class="st3" d="M-153.6,323.6c-0.3,1.1-1.1,1.9-2.5,1.9c-1.9,0-2.8-1.4-2.8-3.2c0-1.7,0.9-3.2,2.9-3.2
				c1.5,0,2.3,0.9,2.5,1.9h-0.9c-0.2-0.6-0.6-1.2-1.6-1.2c-1.3,0-1.9,1.2-1.9,2.4c0,1.2,0.5,2.5,1.9,2.5c0.9,0,1.3-0.6,1.6-1.1
				H-153.6z"/>
			<path class="st3" d="M-147.6,321.3v0.8h-4.9v-0.8H-147.6z M-147.6,323.6v0.8h-4.9v-0.8H-147.6z"/>
			<path class="st3" d="M-143.7,325.4v-1.5h-2.8v-0.8l2.7-3.6h1v3.7h0.8l-0.1,0.7h-0.7v1.5H-143.7z M-143.7,321.8c0-0.5,0-1,0-1.4
				c-0.2,0.5-1.3,2-1.9,2.8h1.9V321.8z"/>
			<path class="st3" d="M-141.5,325.4L-141.5,325.4c0-0.9,0.5-1.8,1.8-2.7c0.9-0.7,1.2-0.9,1.2-1.6c0-0.6-0.3-1-1-1
				c-0.7,0-1,0.4-1.1,1.1h-0.9c0.1-1,0.7-1.8,2-1.8c1.4,0,1.9,0.9,1.9,1.7c0,0.9-0.4,1.3-1.5,2.1c-0.8,0.6-1.2,1.1-1.3,1.5h3.1
				l-0.1,0.8H-141.5z"/>
			<path class="st3" d="M-128.8,322.8c0-1.1,0-2.3,0-3h0c-0.3,1.1-1.2,3.6-1.9,5.6h-0.8c-0.5-1.6-1.5-4.5-1.8-5.6h0
				c0,0.7,0.1,2.1,0.1,3.2v2.4h-0.9v-6.3h1.4c0.7,1.9,1.5,4.3,1.7,5.1h0c0.1-0.6,1.1-3.3,1.8-5.1h1.3v6.3h-0.9V322.8z"/>
			<path class="st3" d="M-121.4,321.3v0.8h-4.9v-0.8H-121.4z M-121.4,323.6v0.8h-4.9v-0.8H-121.4z"/>
			<path class="st3" d="M-120.2,325.4L-120.2,325.4c0-0.9,0.5-1.8,1.8-2.7c0.9-0.7,1.2-0.9,1.2-1.6c0-0.6-0.3-1-1-1
				c-0.7,0-1,0.4-1.1,1.1h-0.9c0.1-1,0.7-1.8,2-1.8c1.4,0,1.9,0.9,1.9,1.7c0,0.9-0.4,1.3-1.5,2.1c-0.8,0.6-1.2,1.1-1.3,1.5h3.1
				l-0.1,0.8H-120.2z"/>
			<path class="st3" d="M-114.3,325.4v-4.9c-0.3,0.2-0.9,0.4-1.2,0.5v-0.7c0.5-0.1,1-0.5,1.4-0.8h0.7v5.9H-114.3z"/>
			<path class="st3" d="M-108.1,325.4v-2.3c0-0.1,0-0.1,0-0.2l-2.2-3.8h1.1c0.6,1,1.4,2.5,1.7,3.1c0.3-0.6,1.2-2.1,1.7-3.1h1
				l-2.3,3.8c0,0,0,0.1,0,0.2v2.3H-108.1z"/>
			<path class="st3" d="M-99.2,321.3v0.8h-4.9v-0.8H-99.2z M-99.2,323.6v0.8h-4.9v-0.8H-99.2z"/>
			<path class="st3" d="M-96.9,325.4v-4.9c-0.3,0.2-0.9,0.4-1.2,0.5v-0.7c0.5-0.1,1-0.5,1.4-0.8h0.7v5.9H-96.9z"/>
			<path class="st3" d="M-94.6,320.9c0.1-0.7,0.6-1.5,1.9-1.5c1.3,0,1.8,0.8,1.8,1.6c0,0.7-0.4,1.1-0.8,1.2v0c0.5,0.2,1,0.6,1,1.5
				c0,0.9-0.6,1.9-2.1,1.9c-1.4,0-2-0.9-2.1-1.7h0.9c0.1,0.5,0.5,0.9,1.2,0.9c0.8,0,1.1-0.5,1.1-1.1c0-0.7-0.4-1.1-1.2-1.1h-0.4
				v-0.7h0.4c0.7,0,1.1-0.3,1.1-0.9c0-0.5-0.3-0.9-1-0.9c-0.7,0-0.9,0.4-1,0.8H-94.6z"/>
			<path class="st3" d="M-87.1,319.2h0.9v3c0.5-0.5,2-2,2.9-3h1.1l-2.7,2.6l2.8,3.6h-1.1l-2.3-3l-0.8,0.7v2.3h-0.9V319.2z"/>
			<path class="st3" d="M-76.4,321.3v0.8h-4.9v-0.8H-76.4z M-76.4,323.6v0.8h-4.9v-0.8H-76.4z"/>
			<path class="st3" d="M-74.1,325.4v-4.9c-0.3,0.2-0.9,0.4-1.2,0.5v-0.7c0.5-0.1,1-0.5,1.4-0.8h0.7v5.9H-74.1z"/>
			<path class="st3" d="M-157.7,333.5v2.7h-0.9V330h2.5c1.3,0,2,0.7,2,1.7c0,0.8-0.5,1.3-1,1.5c0.5,0.1,0.9,0.5,0.9,1.6v0.3
				c0,0.4,0,1,0.1,1.2h-0.9c-0.1-0.3-0.1-0.8-0.1-1.4v-0.1c0-0.9-0.2-1.2-1.3-1.2H-157.7z M-157.7,332.7h1.3c0.9,0,1.3-0.3,1.3-1
				c0-0.6-0.4-1-1.2-1h-1.4V332.7z"/>
			<path class="st3" d="M-148,332.1v0.8h-4.9v-0.8H-148z M-148,334.4v0.8h-4.9v-0.8H-148z"/>
			<path class="st3" d="M-145.7,336.2v-4.9c-0.3,0.2-0.9,0.4-1.2,0.5v-0.7c0.5-0.1,1-0.5,1.4-0.8h0.7v5.9H-145.7z"/>
			<path class="st3" d="M-140.8,336.2v-1.5h-2.8v-0.8l2.7-3.6h1v3.7h0.8l-0.1,0.7h-0.7v1.5H-140.8z M-140.8,332.6c0-0.5,0-1,0-1.4
				c-0.2,0.5-1.3,2-1.9,2.8h1.9V332.6z"/>
			<path class="st3" d="M-135.4,331.6c-0.1-0.4-0.4-0.7-1-0.7c-1,0-1.3,0.9-1.3,2.1c0.2-0.4,0.7-0.8,1.5-0.8c1.1,0,1.8,0.8,1.8,2
				c0,1.2-0.7,2.2-2,2.2c-1.6,0-2.1-1.3-2.1-3c0-1.6,0.5-3.1,2.2-3.1c1.2,0,1.7,0.8,1.8,1.4H-135.4z M-135.3,334.2
				c0-0.6-0.2-1.3-1.1-1.3c-0.7,0-1.2,0.4-1.2,1.3c0,0.5,0.2,1.4,1.2,1.4C-135.6,335.6-135.3,334.9-135.3,334.2z"/>
			<path class="st3" d="M-125.8,336.2h-0.7c0-0.1-0.1-0.4-0.1-0.8c-0.3,0.4-0.8,0.9-1.9,0.9c-1.8,0-2.8-1.4-2.8-3.1
				c0-1.9,1-3.3,2.9-3.3c1.5,0,2.4,0.8,2.6,1.9h-0.9c-0.2-0.6-0.7-1.2-1.7-1.2c-1.4,0-2,1.1-2,2.5c0,1.2,0.5,2.4,1.9,2.4
				c1.4,0,1.7-0.9,1.7-1.9v-0.1h-1.7v-0.8h2.6V336.2z"/>
			<path class="st3" d="M-119.5,332.1v0.8h-4.9v-0.8H-119.5z M-119.5,334.4v0.8h-4.9v-0.8H-119.5z"/>
			<path class="st3" d="M-117.2,336.2v-4.9c-0.3,0.2-0.9,0.4-1.2,0.5v-0.7c0.5-0.1,1-0.5,1.4-0.8h0.7v5.9H-117.2z"/>
			<path class="st3" d="M-114,334.9c0.2,0.5,0.4,0.7,1,0.7c1.1,0,1.2-1.5,1.2-2.2c-0.3,0.5-0.8,0.7-1.4,0.7c-1.1,0-1.8-0.8-1.8-1.9
				c0-1.1,0.7-2,2-2c1.5,0,2.1,1.2,2.1,2.7c0,1.6-0.3,3.4-2.1,3.4c-1.2,0-1.7-0.7-1.9-1.4H-114z M-114.1,332.1
				c0,0.7,0.4,1.2,1.1,1.2c0.8,0,1.1-0.4,1.1-1.2c0-0.4-0.1-1.3-1.1-1.3C-113.8,330.9-114.1,331.4-114.1,332.1z"/>
			<path class="st3" d="M-109.1,334.9c0.2,0.5,0.4,0.7,1,0.7c1.1,0,1.2-1.5,1.2-2.2c-0.3,0.5-0.8,0.7-1.4,0.7
				c-1.1,0-1.8-0.8-1.8-1.9c0-1.1,0.7-2,2-2c1.5,0,2.1,1.2,2.1,2.7c0,1.6-0.3,3.4-2.1,3.4c-1.2,0-1.7-0.7-1.9-1.4H-109.1z
				 M-109.2,332.1c0,0.7,0.4,1.2,1.1,1.2c0.8,0,1.1-0.4,1.1-1.2c0-0.4-0.1-1.3-1.1-1.3C-108.8,330.9-109.2,331.4-109.2,332.1z"/>
			<path class="st3" d="M-102.5,330h2.5c1.4,0,2,0.7,2,1.6c0,0.7-0.4,1.2-0.9,1.4c0.4,0.1,1.1,0.6,1.1,1.5c0,1.2-0.9,1.8-2.1,1.8
				h-2.5V330z M-100.2,332.5c0.9,0,1.2-0.3,1.2-0.9c0-0.5-0.4-0.9-1.1-0.9h-1.5v1.8H-100.2z M-101.6,335.5h1.5
				c0.8,0,1.3-0.4,1.3-1.1c0-0.6-0.4-1.1-1.4-1.1h-1.4V335.5z"/>
			<path class="st3" d="M-91.7,332.1v0.8h-4.9v-0.8H-91.7z M-91.7,334.4v0.8h-4.9v-0.8H-91.7z"/>
			<path class="st3" d="M-90.6,336.2L-90.6,336.2c0-0.9,0.5-1.8,1.8-2.7c0.9-0.7,1.2-0.9,1.2-1.6c0-0.6-0.3-1-1-1
				c-0.7,0-1,0.4-1.1,1.1h-0.9c0.1-1,0.7-1.8,2-1.8c1.4,0,1.9,0.9,1.9,1.7c0,0.9-0.4,1.3-1.5,2.1c-0.8,0.6-1.2,1.1-1.3,1.5h3.1
				l-0.1,0.8H-90.6z"/>
			<path class="st3" d="M-85.8,336.2L-85.8,336.2c0-0.9,0.5-1.8,1.8-2.7c0.9-0.7,1.2-0.9,1.2-1.6c0-0.6-0.3-1-1-1
				c-0.7,0-1,0.4-1.1,1.1h-0.9c0.1-1,0.7-1.8,2-1.8c1.4,0,1.9,0.9,1.9,1.7c0,0.9-0.4,1.3-1.5,2.1c-0.8,0.6-1.2,1.1-1.3,1.5h3.1
				l-0.1,0.8H-85.8z"/>
			<path class="st3" d="M-81.1,336.2L-81.1,336.2c0-0.9,0.5-1.8,1.8-2.7c0.9-0.7,1.2-0.9,1.2-1.6c0-0.6-0.3-1-1-1
				c-0.7,0-1,0.4-1.1,1.1h-0.9c0.1-1,0.7-1.8,2-1.8c1.4,0,1.9,0.9,1.9,1.7c0,0.9-0.4,1.3-1.5,2.1c-0.8,0.6-1.2,1.1-1.3,1.5h3.1
				l-0.1,0.8H-81.1z"/>
			<path class="st3" d="M-159.1,344.5h4.2v0.7h-4.2V344.5z M-157.3,340.9h0.6l-1.5,6.1h-0.7L-157.3,340.9z M-158.6,342.5h4.2l0,0.7
				h-4.2V342.5z M-155.5,340.9h0.6l-1.5,6.1h-0.7L-155.5,340.9z"/>
			<path class="st3" d="M-152.7,345.7c0.2,0.5,0.4,0.7,1,0.7c1.1,0,1.2-1.5,1.2-2.2c-0.3,0.5-0.8,0.7-1.4,0.7
				c-1.1,0-1.8-0.8-1.8-1.9c0-1.1,0.7-2,2-2c1.5,0,2.1,1.2,2.1,2.7c0,1.6-0.3,3.4-2.1,3.4c-1.2,0-1.7-0.7-1.9-1.4H-152.7z
				 M-152.8,342.9c0,0.7,0.4,1.2,1.1,1.2c0.8,0,1.1-0.4,1.1-1.2c0-0.4-0.1-1.3-1.1-1.3C-152.4,341.7-152.8,342.2-152.8,342.9z"/>
			<path class="st3" d="M-148.8,347L-148.8,347c0-0.9,0.5-1.8,1.8-2.7c0.9-0.7,1.2-0.9,1.2-1.6c0-0.6-0.3-1-1-1
				c-0.7,0-1,0.4-1.1,1.1h-0.9c0.1-1,0.7-1.8,2-1.8c1.4,0,1.9,0.9,1.9,1.7c0,0.9-0.4,1.3-1.5,2.1c-0.8,0.6-1.2,1.1-1.3,1.5h3.1
				l-0.1,0.8H-148.8z"/>
			<path class="st3" d="M-138.5,345.2c-0.3,1.1-1.1,1.9-2.5,1.9c-1.9,0-2.8-1.4-2.8-3.2c0-1.7,0.9-3.2,2.9-3.2
				c1.5,0,2.3,0.9,2.5,1.9h-0.9c-0.2-0.6-0.6-1.2-1.6-1.2c-1.3,0-1.9,1.2-1.9,2.4c0,1.2,0.5,2.5,1.9,2.5c0.9,0,1.3-0.6,1.6-1.1
				H-138.5z"/>
			<path class="st3" d="M-134,341.1v0.7c-1,1.4-2,3.5-2.3,5.2h-0.9c0.3-1.7,1.3-3.9,2.2-5.2h-3v-0.8H-134z"/>
			<path class="st3" d="M-133,340.8h2.3c1.8,0,3,1.2,3,3.1c0,1.8-1.2,3.2-3,3.2h-2.2V340.8z M-132.1,346.2h1.3c1.4,0,2.1-1,2.1-2.4
				c0-1.2-0.6-2.3-2.1-2.3h-1.3V346.2z"/>
			<path class="st3" d="M-122.5,344.1h-3.1v2.1h3.4l-0.1,0.8h-4.2v-6.3h4.1v0.8h-3.2v1.8h3.1V344.1z"/>
		</g>
	</g>
</g>
<g>
	<g>
		<g>
			<path class="st0" d="M-153.4,170.2c-0.3,1.1-1.1,1.9-2.5,1.9c-1.9,0-2.8-1.4-2.8-3.2c0-1.7,0.9-3.2,2.9-3.2
				c1.5,0,2.3,0.9,2.5,1.9h-0.9c-0.2-0.6-0.6-1.2-1.6-1.2c-1.3,0-1.9,1.2-1.9,2.4c0,1.2,0.5,2.5,1.9,2.5c0.9,0,1.3-0.6,1.6-1.1
				H-153.4z"/>
			<path class="st0" d="M-147.3,167.9v0.8h-4.9v-0.8H-147.3z M-147.3,170.2v0.8h-4.9v-0.8H-147.3z"/>
			<path class="st0" d="M-146.2,170.3c0-0.8,0.6-1.3,1.1-1.5c-0.5-0.3-0.8-0.7-0.8-1.3c0-0.9,0.7-1.6,1.9-1.6c1.1,0,1.8,0.7,1.8,1.6
				c0,0.6-0.3,1-0.8,1.2c0.5,0.2,1,0.7,1,1.5c0,1.1-0.9,1.8-2.2,1.8C-145.3,172.1-146.2,171.4-146.2,170.3z M-142.9,170.3
				c0-0.7-0.5-1.1-1.2-1.1c-0.8,0-1.2,0.5-1.2,1.1c0,0.6,0.5,1.1,1.2,1.1C-143.4,171.4-142.9,171-142.9,170.3z M-145.1,167.6
				c0,0.5,0.3,0.9,1,0.9c0.7,0,1-0.3,1-0.9c0-0.5-0.3-0.9-1-0.9C-144.8,166.7-145.1,167-145.1,167.6z"/>
			<path class="st0" d="M-141.2,170.3c0-0.8,0.6-1.3,1.1-1.5c-0.5-0.3-0.8-0.7-0.8-1.3c0-0.9,0.7-1.6,1.9-1.6c1.1,0,1.8,0.7,1.8,1.6
				c0,0.6-0.3,1-0.8,1.2c0.5,0.2,1,0.7,1,1.5c0,1.1-0.9,1.8-2.2,1.8C-140.3,172.1-141.2,171.4-141.2,170.3z M-137.8,170.3
				c0-0.7-0.5-1.1-1.2-1.1c-0.8,0-1.2,0.5-1.2,1.1c0,0.6,0.5,1.1,1.2,1.1C-138.3,171.4-137.8,171-137.8,170.3z M-140,167.6
				c0,0.5,0.3,0.9,1,0.9c0.7,0,1-0.3,1-0.9c0-0.5-0.3-0.9-1-0.9C-139.7,166.7-140,167-140,167.6z"/>
			<path class="st0" d="M-128.1,169.4c0-1.1,0-2.3,0-3h0c-0.3,1.1-1.2,3.6-1.9,5.6h-0.8c-0.5-1.6-1.5-4.5-1.8-5.6h0
				c0,0.7,0.1,2.1,0.1,3.2v2.4h-0.9v-6.3h1.4c0.7,1.9,1.5,4.3,1.7,5.1h0c0.1-0.6,1.1-3.3,1.8-5.1h1.3v6.3h-0.9V169.4z"/>
			<path class="st0" d="M-120.8,167.9v0.8h-4.9v-0.8H-120.8z M-120.8,170.2v0.8h-4.9v-0.8H-120.8z"/>
			<path class="st0" d="M-116.9,172v-1.5h-2.8v-0.8l2.7-3.6h1v3.7h0.8l-0.1,0.7h-0.7v1.5H-116.9z M-116.9,168.4c0-0.5,0-1,0-1.4
				c-0.2,0.5-1.3,2-1.9,2.8h1.9V168.4z"/>
			<path class="st0" d="M-113.6,172v-4.9c-0.3,0.2-0.9,0.4-1.2,0.5v-0.7c0.5-0.1,1-0.5,1.4-0.8h0.7v5.9H-113.6z"/>
			<path class="st0" d="M-107.4,172v-2.3c0-0.1,0-0.1,0-0.2l-2.2-3.8h1.1c0.6,1,1.4,2.5,1.7,3.1c0.3-0.6,1.2-2.1,1.7-3.1h1l-2.3,3.8
				c0,0,0,0.1,0,0.2v2.3H-107.4z"/>
			<path class="st0" d="M-98.5,167.9v0.8h-4.9v-0.8H-98.5z M-98.5,170.2v0.8h-4.9v-0.8H-98.5z"/>
			<path class="st0" d="M-93.1,169c0,1.5-0.4,3.1-2.1,3.1c-1.6,0-2.1-1.5-2.1-3.1c0-1.5,0.5-3.1,2.1-3.1
				C-93.6,166-93.1,167.4-93.1,169z M-96.4,169c0,1.1,0.2,2.3,1.2,2.3c1,0,1.2-1.2,1.2-2.4c0-1.1-0.2-2.3-1.2-2.3
				C-96.2,166.7-96.4,167.7-96.4,169z"/>
			<path class="st0" d="M-89.6,165.7h0.9v3c0.5-0.5,2-2,2.9-3h1.1l-2.7,2.6l2.8,3.6h-1.1l-2.3-3l-0.8,0.7v2.3h-0.9V165.7z"/>
			<path class="st0" d="M-78.9,167.9v0.8h-4.9v-0.8H-78.9z M-78.9,170.2v0.8h-4.9v-0.8H-78.9z"/>
			<path class="st0" d="M-75.1,172v-1.5h-2.8v-0.8l2.7-3.6h1v3.7h0.8l-0.1,0.7h-0.7v1.5H-75.1z M-75.1,168.4c0-0.5,0-1,0-1.4
				c-0.2,0.5-1.3,2-1.9,2.8h1.9V168.4z"/>
			<path class="st0" d="M-70.2,172v-1.5H-73v-0.8l2.7-3.6h1v3.7h0.8l-0.1,0.7h-0.7v1.5H-70.2z M-70.2,168.4c0-0.5,0-1,0-1.4
				c-0.2,0.5-1.3,2-1.9,2.8h1.9V168.4z"/>
			<path class="st0" d="M-157.5,180.1v2.7h-0.9v-6.3h2.5c1.3,0,2,0.7,2,1.7c0,0.8-0.5,1.3-1,1.5c0.5,0.1,0.9,0.5,0.9,1.6v0.3
				c0,0.4,0,1,0.1,1.2h-0.9c-0.1-0.3-0.1-0.8-0.1-1.4v-0.1c0-0.9-0.2-1.2-1.3-1.2H-157.5z M-157.5,179.3h1.3c0.9,0,1.3-0.3,1.3-1
				c0-0.6-0.4-1-1.2-1h-1.4V179.3z"/>
			<path class="st0" d="M-147.7,178.7v0.8h-4.9v-0.8H-147.7z M-147.7,181v0.8h-4.9V181H-147.7z"/>
			<path class="st0" d="M-145.4,182.8v-4.9c-0.3,0.2-0.9,0.4-1.2,0.5v-0.7c0.5-0.1,1-0.5,1.4-0.8h0.7v5.9H-145.4z"/>
			<path class="st0" d="M-139.5,176.9v0.7c-1,1.4-2,3.5-2.3,5.2h-0.9c0.3-1.7,1.3-3.9,2.2-5.2h-3v-0.8H-139.5z"/>
			<path class="st0" d="M-131.1,182.8h-0.7c0-0.1-0.1-0.4-0.1-0.8c-0.3,0.4-0.8,0.9-1.9,0.9c-1.8,0-2.8-1.4-2.8-3.1
				c0-1.9,1-3.3,2.9-3.3c1.5,0,2.4,0.8,2.6,1.9h-0.9c-0.2-0.6-0.7-1.2-1.7-1.2c-1.4,0-2,1.1-2,2.5c0,1.2,0.5,2.4,1.9,2.4
				c1.4,0,1.7-0.9,1.7-1.9v-0.1h-1.7v-0.8h2.6V182.8z"/>
			<path class="st0" d="M-124.8,178.7v0.8h-4.9v-0.8H-124.8z M-124.8,181v0.8h-4.9V181H-124.8z"/>
			<path class="st0" d="M-123.7,181.1c0-0.8,0.6-1.3,1.1-1.5c-0.5-0.3-0.8-0.7-0.8-1.3c0-0.9,0.7-1.6,1.9-1.6c1.1,0,1.8,0.7,1.8,1.6
				c0,0.6-0.3,1-0.8,1.2c0.5,0.2,1,0.7,1,1.5c0,1.1-0.9,1.8-2.2,1.8C-122.8,182.9-123.7,182.2-123.7,181.1z M-120.3,181.1
				c0-0.7-0.5-1.1-1.2-1.1c-0.8,0-1.2,0.5-1.2,1.1c0,0.6,0.5,1.1,1.2,1.1C-120.8,182.2-120.3,181.8-120.3,181.1z M-122.6,178.4
				c0,0.5,0.3,0.9,1,0.9c0.7,0,1-0.3,1-0.9c0-0.5-0.3-0.9-1-0.9C-122.3,177.5-122.6,177.8-122.6,178.4z"/>
			<path class="st0" d="M-116,182.8v-1.5h-2.8v-0.8l2.7-3.6h1v3.7h0.8l-0.1,0.7h-0.7v1.5H-116z M-116,179.2c0-0.5,0-1,0-1.4
				c-0.2,0.5-1.3,2-1.9,2.8h1.9V179.2z"/>
			<path class="st0" d="M-111.1,176.5h2.5c1.4,0,2,0.7,2,1.6c0,0.7-0.4,1.2-0.9,1.4c0.4,0.1,1.1,0.6,1.1,1.5c0,1.2-0.9,1.8-2.1,1.8
				h-2.5V176.5z M-108.8,179.1c0.9,0,1.2-0.3,1.2-0.9c0-0.5-0.4-0.9-1.1-0.9h-1.5v1.8H-108.8z M-110.2,182h1.5
				c0.8,0,1.3-0.4,1.3-1.1c0-0.6-0.4-1.1-1.4-1.1h-1.4V182z"/>
			<path class="st0" d="M-100.4,178.7v0.8h-4.9v-0.8H-100.4z M-100.4,181v0.8h-4.9V181H-100.4z"/>
			<path class="st0" d="M-98.1,182.8v-4.9c-0.3,0.2-0.9,0.4-1.2,0.5v-0.7c0.5-0.1,1-0.5,1.4-0.8h0.7v5.9H-98.1z"/>
			<path class="st0" d="M-93.2,182.8v-1.5H-96v-0.8l2.7-3.6h1v3.7h0.8l-0.1,0.7h-0.7v1.5H-93.2z M-93.2,179.2c0-0.5,0-1,0-1.4
				c-0.2,0.5-1.3,2-1.9,2.8h1.9V179.2z"/>
			<path class="st0" d="M-90.9,178.3c0.1-0.7,0.6-1.5,1.9-1.5c1.3,0,1.8,0.8,1.8,1.6c0,0.7-0.4,1.1-0.8,1.2v0c0.5,0.2,1,0.6,1,1.5
				c0,0.9-0.6,1.9-2.1,1.9c-1.4,0-2-0.9-2.1-1.7h0.9c0.1,0.5,0.5,0.9,1.2,0.9c0.8,0,1.1-0.5,1.1-1.1c0-0.7-0.4-1.1-1.2-1.1h-0.4
				v-0.7h0.4c0.7,0,1.1-0.3,1.1-0.9c0-0.5-0.3-0.9-1-0.9c-0.7,0-0.9,0.4-1,0.8H-90.9z"/>
			<path class="st0" d="M-158.8,191.1h4.2v0.7h-4.2V191.1z M-157,187.5h0.6l-1.5,6.1h-0.7L-157,187.5z M-158.4,189.1h4.2l0,0.7h-4.2
				V189.1z M-155.2,187.5h0.6l-1.5,6.1h-0.7L-155.2,187.5z"/>
			<path class="st0" d="M-152.3,193.6v-4.9c-0.3,0.2-0.9,0.4-1.2,0.5v-0.7c0.5-0.1,1-0.5,1.4-0.8h0.7v5.9H-152.3z"/>
			<path class="st0" d="M-148.9,193.6v-4.9c-0.3,0.2-0.9,0.4-1.2,0.5v-0.7c0.5-0.1,1-0.5,1.4-0.8h0.7v5.9H-148.9z"/>
			<path class="st0" d="M-142.9,188.4h-2.5c-0.1,0.4-0.2,1.3-0.2,1.6c0.2-0.3,0.6-0.4,1.2-0.4c1.1,0,1.8,0.8,1.8,2
				c0,1.2-0.6,2.2-2.1,2.2c-1.1,0-1.9-0.6-2-1.6h0.9c0.1,0.5,0.5,0.9,1.1,0.9c0.8,0,1.1-0.6,1.1-1.4c0-0.7-0.3-1.3-1.1-1.3
				c-0.7,0-1,0.3-1.2,0.7l-0.8-0.1c0.2-0.8,0.4-2.5,0.5-3.2h3.3L-142.9,188.4z"/>
			<path class="st0" d="M-139.1,193.6v-1.5h-2.8v-0.8l2.7-3.6h1v3.7h0.8l-0.1,0.7h-0.7v1.5H-139.1z M-139.1,190c0-0.5,0-1,0-1.4
				c-0.2,0.5-1.3,2-1.9,2.8h1.9V190z"/>
			<path class="st0" d="M-136.9,191.9c0-0.8,0.6-1.3,1.1-1.5c-0.5-0.3-0.8-0.7-0.8-1.3c0-0.9,0.7-1.6,1.9-1.6c1.1,0,1.8,0.7,1.8,1.6
				c0,0.6-0.3,1-0.8,1.2c0.5,0.2,1,0.7,1,1.5c0,1.1-0.9,1.8-2.2,1.8C-136,193.7-136.9,193-136.9,191.9z M-133.6,191.9
				c0-0.7-0.5-1.1-1.2-1.1c-0.8,0-1.2,0.5-1.2,1.1c0,0.6,0.5,1.1,1.2,1.1C-134.1,193-133.6,192.6-133.6,191.9z M-135.8,189.2
				c0,0.5,0.3,0.9,1,0.9c0.7,0,1-0.3,1-0.9c0-0.5-0.3-0.9-1-0.9C-135.5,188.3-135.8,188.6-135.8,189.2z"/>
			<path class="st0" d="M-131.5,187.3h4.1v0.8h-3.2v1.9h3v0.8h-3v2.7h-0.9V187.3z"/>
		</g>
	</g>
</g>
<g>
	<g>
		<g>
			<path class="st4" d="M-154.6,10c-0.3,1.1-1.1,1.9-2.5,1.9c-1.9,0-2.8-1.4-2.8-3.2c0-1.7,0.9-3.2,2.9-3.2c1.5,0,2.3,0.9,2.5,1.9
				h-0.9c-0.2-0.6-0.6-1.2-1.6-1.2c-1.3,0-1.9,1.2-1.9,2.4c0,1.2,0.5,2.5,1.9,2.5c0.9,0,1.3-0.6,1.6-1.1H-154.6z"/>
			<path class="st4" d="M-148.5,7.7v0.8h-4.9V7.7H-148.5z M-148.5,10v0.8h-4.9V10H-148.5z"/>
			<path class="st4" d="M-146.2,11.8V6.9c-0.3,0.2-0.9,0.4-1.2,0.5V6.7c0.5-0.1,1-0.5,1.4-0.8h0.7v5.9H-146.2z"/>
			<path class="st4" d="M-139.8,8.8c0,1.5-0.4,3.1-2.1,3.1c-1.6,0-2.1-1.5-2.1-3.1c0-1.5,0.5-3.1,2.1-3.1
				C-140.3,5.8-139.8,7.3-139.8,8.8z M-143.1,8.8c0,1.1,0.2,2.3,1.2,2.3c1,0,1.2-1.2,1.2-2.4c0-1.1-0.2-2.3-1.2-2.3
				C-142.9,6.5-143.1,7.5-143.1,8.8z"/>
			<path class="st4" d="M-134.7,8.8c0,1.5-0.4,3.1-2.1,3.1c-1.6,0-2.1-1.5-2.1-3.1c0-1.5,0.5-3.1,2.1-3.1
				C-135.2,5.8-134.7,7.3-134.7,8.8z M-138,8.8c0,1.1,0.2,2.3,1.2,2.3c1,0,1.2-1.2,1.2-2.4c0-1.1-0.2-2.3-1.2-2.3
				C-137.8,6.5-138,7.5-138,8.8z"/>
			<path class="st4" d="M-125.9,9.2c0-1.1,0-2.3,0-3h0c-0.3,1.1-1.2,3.6-1.9,5.6h-0.8c-0.5-1.6-1.5-4.5-1.8-5.6h0
				c0,0.7,0.1,2.1,0.1,3.2v2.4h-0.9V5.6h1.4c0.7,1.9,1.5,4.3,1.7,5.1h0c0.1-0.6,1.1-3.3,1.8-5.1h1.3v6.3h-0.9V9.2z"/>
			<path class="st4" d="M-118.5,7.7v0.8h-4.9V7.7H-118.5z M-118.5,10v0.8h-4.9V10H-118.5z"/>
			<path class="st4" d="M-117.4,10.1c0-0.8,0.6-1.3,1.1-1.5c-0.5-0.3-0.8-0.7-0.8-1.3c0-0.9,0.7-1.6,1.9-1.6c1.1,0,1.8,0.7,1.8,1.6
				c0,0.6-0.3,1-0.8,1.2c0.5,0.2,1,0.7,1,1.5c0,1.1-0.9,1.8-2.2,1.8C-116.5,11.9-117.4,11.2-117.4,10.1z M-114.1,10.1
				c0-0.7-0.5-1.1-1.2-1.1c-0.8,0-1.2,0.5-1.2,1.1c0,0.6,0.5,1.1,1.2,1.1C-114.6,11.2-114.1,10.8-114.1,10.1z M-116.3,7.4
				c0,0.5,0.3,0.9,1,0.9c0.7,0,1-0.3,1-0.9c0-0.5-0.3-0.9-1-0.9C-116,6.5-116.3,6.9-116.3,7.4z"/>
			<path class="st4" d="M-112.4,11.8L-112.4,11.8c0-0.9,0.5-1.8,1.8-2.7c0.9-0.7,1.2-0.9,1.2-1.6c0-0.6-0.3-1-1-1
				c-0.7,0-1,0.4-1.1,1.1h-0.9c0.1-1,0.7-1.8,2-1.8c1.4,0,1.9,0.9,1.9,1.7c0,0.9-0.4,1.3-1.5,2.1c-0.8,0.6-1.2,1.1-1.3,1.5h3.1
				l-0.1,0.8H-112.4z"/>
			<path class="st4" d="M-103.5,11.8V9.5c0-0.1,0-0.1,0-0.2l-2.2-3.8h1.1c0.6,1,1.4,2.5,1.7,3.1c0.3-0.6,1.2-2.1,1.7-3.1h1l-2.3,3.8
				c0,0,0,0.1,0,0.2v2.3H-103.5z"/>
			<path class="st4" d="M-94.7,7.7v0.8h-4.9V7.7H-94.7z M-94.7,10v0.8h-4.9V10H-94.7z"/>
			<path class="st4" d="M-90.9,11.8v-1.5h-2.8V9.5l2.7-3.6h1v3.7h0.8l-0.1,0.7H-90v1.5H-90.9z M-90.9,8.2c0-0.5,0-1,0-1.4
				c-0.2,0.5-1.3,2-1.9,2.8h1.9V8.2z"/>
			<path class="st4" d="M-84.8,6.6h-2.5c-0.1,0.4-0.2,1.3-0.2,1.6c0.2-0.3,0.6-0.4,1.2-0.4c1.1,0,1.8,0.8,1.8,2
				c0,1.2-0.6,2.2-2.1,2.2c-1.1,0-1.9-0.6-2-1.6h0.9c0.1,0.5,0.5,0.9,1.1,0.9c0.8,0,1.1-0.6,1.1-1.4c0-0.7-0.3-1.3-1.1-1.3
				c-0.7,0-1,0.3-1.2,0.7l-0.8-0.1c0.2-0.8,0.4-2.5,0.5-3.2h3.3L-84.8,6.6z"/>
			<path class="st4" d="M-81,5.6h0.9v3c0.5-0.5,2-2,2.9-3h1.1l-2.7,2.6l2.8,3.6H-77l-2.3-3l-0.8,0.7v2.3H-81V5.6z"/>
			<path class="st4" d="M-70.3,7.7v0.8h-4.9V7.7H-70.3z M-70.3,10v0.8h-4.9V10H-70.3z"/>
			<path class="st4" d="M-65.4,6.6h-2.5c-0.1,0.4-0.2,1.3-0.2,1.6c0.2-0.3,0.6-0.4,1.2-0.4c1.1,0,1.8,0.8,1.8,2
				c0,1.2-0.6,2.2-2.1,2.2c-1.1,0-1.9-0.6-2-1.6h0.9c0.1,0.5,0.5,0.9,1.1,0.9c0.8,0,1.1-0.6,1.1-1.4c0-0.7-0.3-1.3-1.1-1.3
				c-0.7,0-1,0.3-1.2,0.7L-69,9.1c0.2-0.8,0.4-2.5,0.5-3.2h3.3L-65.4,6.6z"/>
			<path class="st4" d="M-60,8.8c0,1.5-0.4,3.1-2.1,3.1c-1.6,0-2.1-1.5-2.1-3.1c0-1.5,0.5-3.1,2.1-3.1C-60.5,5.8-60,7.3-60,8.8z
				 M-63.3,8.8c0,1.1,0.2,2.3,1.2,2.3c1,0,1.2-1.2,1.2-2.4c0-1.1-0.2-2.3-1.2-2.3C-63.1,6.5-63.3,7.5-63.3,8.8z"/>
			<path class="st4" d="M-158.7,19.9v2.7h-0.9v-6.3h2.5c1.3,0,2,0.7,2,1.7c0,0.8-0.5,1.3-1,1.5c0.5,0.1,0.9,0.5,0.9,1.6v0.3
				c0,0.4,0,1,0.1,1.2h-0.9c-0.1-0.3-0.1-0.8-0.1-1.4v-0.1c0-0.9-0.2-1.2-1.3-1.2H-158.7z M-158.7,19.1h1.3c0.9,0,1.3-0.3,1.3-1
				c0-0.6-0.4-1-1.2-1h-1.4V19.1z"/>
			<path class="st4" d="M-148.9,18.5v0.8h-4.9v-0.8H-148.9z M-148.9,20.8v0.8h-4.9v-0.8H-148.9z"/>
			<path class="st4" d="M-143.6,19.6c0,1.5-0.4,3.1-2.1,3.1c-1.6,0-2.1-1.5-2.1-3.1c0-1.5,0.5-3.1,2.1-3.1
				C-144,16.6-143.6,18.1-143.6,19.6z M-146.8,19.6c0,1.1,0.2,2.3,1.2,2.3c1,0,1.2-1.2,1.2-2.4c0-1.1-0.2-2.3-1.2-2.3
				C-146.6,17.3-146.8,18.3-146.8,19.6z"/>
			<path class="st4" d="M-134.9,22.6h-0.7c0-0.1-0.1-0.4-0.1-0.8c-0.3,0.4-0.8,0.9-1.9,0.9c-1.8,0-2.8-1.4-2.8-3.1
				c0-1.9,1-3.3,2.9-3.3c1.5,0,2.4,0.8,2.6,1.9h-0.9c-0.2-0.6-0.7-1.2-1.7-1.2c-1.4,0-2,1.1-2,2.5c0,1.2,0.5,2.4,1.9,2.4
				c1.4,0,1.7-0.9,1.7-1.9V20h-1.7v-0.8h2.6V22.6z"/>
			<path class="st4" d="M-128.6,18.5v0.8h-4.9v-0.8H-128.6z M-128.6,20.8v0.8h-4.9v-0.8H-128.6z"/>
			<path class="st4" d="M-127.5,22.6L-127.5,22.6c0-0.9,0.5-1.8,1.8-2.7c0.9-0.7,1.2-0.9,1.2-1.6c0-0.6-0.3-1-1-1
				c-0.7,0-1,0.4-1.1,1.1h-0.9c0.1-1,0.7-1.8,2-1.8c1.4,0,1.9,0.9,1.9,1.7c0,0.9-0.4,1.3-1.5,2.1c-0.8,0.6-1.2,1.1-1.3,1.5h3.1
				l-0.1,0.8H-127.5z"/>
			<path class="st4" d="M-122.5,18.1c0.1-0.7,0.6-1.5,1.9-1.5c1.3,0,1.8,0.8,1.8,1.6c0,0.7-0.4,1.1-0.8,1.2v0c0.5,0.2,1,0.6,1,1.5
				c0,0.9-0.6,1.9-2.1,1.9c-1.4,0-2-0.9-2.1-1.7h0.9c0.1,0.5,0.5,0.9,1.2,0.9c0.8,0,1.1-0.5,1.1-1.1c0-0.7-0.4-1.1-1.2-1.1h-0.4V19
				h0.4c0.7,0,1.1-0.3,1.1-0.9c0-0.5-0.3-0.9-1-0.9c-0.7,0-0.9,0.4-1,0.8H-122.5z"/>
			<path class="st4" d="M-115,16.4h2.5c1.4,0,2,0.7,2,1.6c0,0.7-0.4,1.2-0.9,1.4c0.4,0.1,1.1,0.6,1.1,1.5c0,1.2-0.9,1.8-2.1,1.8
				h-2.5V16.4z M-112.7,18.9c0.9,0,1.2-0.3,1.2-0.9c0-0.5-0.4-0.9-1.1-0.9h-1.5v1.8H-112.7z M-114.1,21.9h1.5c0.8,0,1.3-0.4,1.3-1.1
				c0-0.6-0.4-1.1-1.4-1.1h-1.4V21.9z"/>
			<path class="st4" d="M-104.3,18.5v0.8h-4.9v-0.8H-104.3z M-104.3,20.8v0.8h-4.9v-0.8H-104.3z"/>
			<path class="st4" d="M-99.4,16.7v0.7c-1,1.4-2,3.5-2.3,5.2h-0.9c0.3-1.7,1.3-3.9,2.2-5.2h-3v-0.8H-99.4z"/>
			<path class="st4" d="M-94.6,19.6c0,1.5-0.4,3.1-2.1,3.1c-1.6,0-2.1-1.5-2.1-3.1c0-1.5,0.5-3.1,2.1-3.1
				C-95.1,16.6-94.6,18.1-94.6,19.6z M-97.9,19.6c0,1.1,0.2,2.3,1.2,2.3c1,0,1.2-1.2,1.2-2.4c0-1.1-0.2-2.3-1.2-2.3
				C-97.7,17.3-97.9,18.3-97.9,19.6z"/>
			<path class="st4" d="M-160.1,30.9h4.2v0.7h-4.2V30.9z M-158.2,27.3h0.6l-1.5,6.1h-0.7L-158.2,27.3z M-159.6,28.9h4.2l0,0.7h-4.2
				V28.9z M-156.4,27.3h0.6l-1.5,6.1h-0.7L-156.4,27.3z"/>
			<path class="st4" d="M-150.4,30.4c0,1.5-0.4,3.1-2.1,3.1c-1.6,0-2.1-1.5-2.1-3.1c0-1.5,0.5-3.1,2.1-3.1
				C-150.9,27.4-150.4,28.9-150.4,30.4z M-153.7,30.4c0,1.1,0.2,2.3,1.2,2.3c1,0,1.2-1.2,1.2-2.4c0-1.1-0.2-2.3-1.2-2.3
				C-153.5,28.1-153.7,29.1-153.7,30.4z"/>
			<path class="st4" d="M-145.3,30.4c0,1.5-0.4,3.1-2.1,3.1c-1.6,0-2.1-1.5-2.1-3.1c0-1.5,0.5-3.1,2.1-3.1
				C-145.8,27.4-145.3,28.9-145.3,30.4z M-148.6,30.4c0,1.1,0.2,2.3,1.2,2.3c1,0,1.2-1.2,1.2-2.4c0-1.1-0.2-2.3-1.2-2.3
				C-148.4,28.1-148.6,29.1-148.6,30.4z"/>
			<path class="st4" d="M-143.3,33.4v-4.9c-0.3,0.2-0.9,0.4-1.2,0.5v-0.7c0.5-0.1,1-0.5,1.4-0.8h0.7v5.9H-143.3z"/>
			<path class="st4" d="M-137.4,27.5v0.7c-1,1.4-2,3.5-2.3,5.2h-0.9c0.3-1.7,1.3-3.9,2.2-5.2h-3v-0.8H-137.4z"/>
			<path class="st4" d="M-134.1,33.4v-1.5h-2.8v-0.8l2.7-3.6h1v3.7h0.8l-0.1,0.7h-0.7v1.5H-134.1z M-134.1,29.8c0-0.5,0-1,0-1.4
				c-0.2,0.5-1.3,2-1.9,2.8h1.9V29.8z"/>
			<path class="st4" d="M-128.8,28.8c-0.1-0.4-0.4-0.7-1-0.7c-1,0-1.3,0.9-1.3,2.1c0.2-0.4,0.7-0.8,1.5-0.8c1.1,0,1.8,0.8,1.8,2
				c0,1.2-0.7,2.2-2,2.2c-1.6,0-2.1-1.3-2.1-3c0-1.6,0.5-3.1,2.2-3.1c1.2,0,1.7,0.8,1.8,1.4H-128.8z M-128.6,31.4
				c0-0.6-0.2-1.3-1.1-1.3c-0.7,0-1.2,0.4-1.2,1.3c0,0.5,0.2,1.4,1.2,1.4C-129,32.8-128.6,32.1-128.6,31.4z"/>
		</g>
	</g>
</g>
<path class="st5" d="M-180.8,437h-29.4c-6.6,0-12-5.4-12-12v-29.4c0-6.6,5.4-12,12-12h29.4c6.6,0,12,5.4,12,12V425
	C-168.8,431.6-174.2,437-180.8,437z"/>
<g>
	<g>
		<path class="st5" d="M-152.7,400.3c-0.3,1.1-1.1,1.9-2.5,1.9c-1.9,0-2.8-1.4-2.8-3.2c0-1.7,0.9-3.2,2.9-3.2c1.5,0,2.3,0.9,2.5,1.9
			h-0.9c-0.2-0.6-0.6-1.2-1.6-1.2c-1.3,0-1.9,1.2-1.9,2.4c0,1.2,0.5,2.5,1.9,2.5c0.9,0,1.3-0.6,1.6-1.1H-152.7z"/>
		<path class="st5" d="M-146.7,398v0.8h-4.9V398H-146.7z M-146.7,400.2v0.8h-4.9v-0.8H-146.7z"/>
		<path class="st5" d="M-141.3,399.1c0,1.5-0.4,3.1-2.1,3.1c-1.6,0-2.1-1.5-2.1-3.1c0-1.5,0.5-3.1,2.1-3.1
			C-141.8,396-141.3,397.5-141.3,399.1z M-144.6,399.1c0,1.1,0.2,2.3,1.2,2.3c1,0,1.2-1.2,1.2-2.4c0-1.1-0.2-2.3-1.2-2.3
			C-144.3,396.8-144.6,397.8-144.6,399.1z"/>
		<path class="st5" d="M-132.5,399.5c0-1.1,0-2.3,0-3h0c-0.3,1.1-1.2,3.6-1.9,5.6h-0.8c-0.5-1.6-1.5-4.5-1.8-5.6h0
			c0,0.7,0.1,2.1,0.1,3.2v2.4h-0.9v-6.3h1.4c0.7,1.9,1.5,4.3,1.7,5.1h0c0.1-0.6,1.1-3.3,1.8-5.1h1.3v6.3h-0.9V399.5z"/>
		<path class="st5" d="M-125.1,398v0.8h-4.9V398H-125.1z M-125.1,400.2v0.8h-4.9v-0.8H-125.1z"/>
		<path class="st5" d="M-119.7,399.1c0,1.5-0.4,3.1-2.1,3.1c-1.6,0-2.1-1.5-2.1-3.1c0-1.5,0.5-3.1,2.1-3.1
			C-120.2,396-119.7,397.5-119.7,399.1z M-123,399.1c0,1.1,0.2,2.3,1.2,2.3c1,0,1.2-1.2,1.2-2.4c0-1.1-0.2-2.3-1.2-2.3
			C-122.7,396.8-123,397.8-123,399.1z"/>
		<path class="st5" d="M-114.8,402.1v-2.3c0-0.1,0-0.1,0-0.2l-2.2-3.8h1.1c0.6,1,1.4,2.5,1.7,3.1c0.3-0.6,1.2-2.1,1.7-3.1h1
			l-2.3,3.8c0,0,0,0.1,0,0.2v2.3H-114.8z"/>
		<path class="st5" d="M-105.9,398v0.8h-4.9V398H-105.9z M-105.9,400.2v0.8h-4.9v-0.8H-105.9z"/>
		<path class="st5" d="M-100.6,399.1c0,1.5-0.4,3.1-2.1,3.1c-1.6,0-2.1-1.5-2.1-3.1c0-1.5,0.5-3.1,2.1-3.1
			C-101,396-100.6,397.5-100.6,399.1z M-103.8,399.1c0,1.1,0.2,2.3,1.2,2.3c1,0,1.2-1.2,1.2-2.4c0-1.1-0.2-2.3-1.2-2.3
			C-103.6,396.8-103.8,397.8-103.8,399.1z"/>
		<path class="st5" d="M-97.1,395.8h0.9v3c0.5-0.5,2-2,2.9-3h1.1l-2.7,2.6l2.8,3.6h-1.1l-2.3-3l-0.8,0.7v2.3h-0.9V395.8z"/>
		<path class="st5" d="M-86.4,398v0.8h-4.9V398H-86.4z M-86.4,400.2v0.8h-4.9v-0.8H-86.4z"/>
		<path class="st5" d="M-85.2,402.1L-85.2,402.1c0-0.9,0.5-1.8,1.8-2.7c0.9-0.7,1.2-0.9,1.2-1.6c0-0.6-0.3-1-1-1
			c-0.7,0-1,0.4-1.1,1.1h-0.9c0.1-1,0.7-1.8,2-1.8c1.4,0,1.9,0.9,1.9,1.7c0,0.9-0.4,1.3-1.5,2.1c-0.8,0.6-1.2,1.1-1.3,1.5h3.1
			l-0.1,0.8H-85.2z"/>
		<path class="st5" d="M-76.2,399.1c0,1.5-0.4,3.1-2.1,3.1c-1.6,0-2.1-1.5-2.1-3.1c0-1.5,0.5-3.1,2.1-3.1
			C-76.7,396-76.2,397.5-76.2,399.1z M-79.5,399.1c0,1.1,0.2,2.3,1.2,2.3c1,0,1.2-1.2,1.2-2.4c0-1.1-0.2-2.3-1.2-2.3
			C-79.3,396.8-79.5,397.8-79.5,399.1z"/>
		<path class="st5" d="M-156.8,410.2v2.7h-0.9v-6.3h2.5c1.3,0,2,0.7,2,1.7c0,0.8-0.5,1.3-1,1.5c0.5,0.1,0.9,0.5,0.9,1.6v0.3
			c0,0.4,0,1,0.1,1.2h-0.9c-0.1-0.3-0.1-0.8-0.1-1.4v-0.1c0-0.9-0.2-1.2-1.3-1.2H-156.8z M-156.8,409.4h1.3c0.9,0,1.3-0.3,1.3-1
			c0-0.6-0.4-1-1.2-1h-1.4V409.4z"/>
		<path class="st5" d="M-147.1,408.8v0.8h-4.9v-0.8H-147.1z M-147.1,411v0.8h-4.9V411H-147.1z"/>
		<path class="st5" d="M-144.8,412.9V408c-0.3,0.2-0.9,0.4-1.2,0.5v-0.7c0.5-0.1,1-0.5,1.4-0.8h0.7v5.9H-144.8z"/>
		<path class="st5" d="M-138.3,409.9c0,1.5-0.4,3.1-2.1,3.1c-1.6,0-2.1-1.5-2.1-3.1c0-1.5,0.5-3.1,2.1-3.1
			C-138.8,406.8-138.3,408.3-138.3,409.9z M-141.6,409.9c0,1.1,0.2,2.3,1.2,2.3c1,0,1.2-1.2,1.2-2.4c0-1.1-0.2-2.3-1.2-2.3
			C-141.4,407.6-141.6,408.6-141.6,409.9z"/>
		<path class="st5" d="M-137.5,412.9L-137.5,412.9c0-0.9,0.5-1.8,1.8-2.7c0.9-0.7,1.2-0.9,1.2-1.6c0-0.6-0.3-1-1-1
			c-0.7,0-1,0.4-1.1,1.1h-0.9c0.1-1,0.7-1.8,2-1.8c1.4,0,1.9,0.9,1.9,1.7c0,0.9-0.4,1.3-1.5,2.1c-0.8,0.6-1.2,1.1-1.3,1.5h3.1
			l-0.1,0.8H-137.5z"/>
		<path class="st5" d="M-124.9,412.9h-0.7c0-0.1-0.1-0.4-0.1-0.8c-0.3,0.4-0.8,0.9-1.9,0.9c-1.8,0-2.8-1.4-2.8-3.1
			c0-1.9,1-3.3,2.9-3.3c1.5,0,2.4,0.8,2.6,1.9h-0.9c-0.2-0.6-0.7-1.2-1.7-1.2c-1.4,0-2,1.1-2,2.5c0,1.2,0.5,2.4,1.9,2.4
			c1.4,0,1.7-0.9,1.7-1.9v-0.1h-1.7v-0.8h2.6V412.9z"/>
		<path class="st5" d="M-118.6,408.8v0.8h-4.9v-0.8H-118.6z M-118.6,411v0.8h-4.9V411H-118.6z"/>
		<path class="st5" d="M-117.5,412.9L-117.5,412.9c0-0.9,0.5-1.8,1.8-2.7c0.9-0.7,1.2-0.9,1.2-1.6c0-0.6-0.3-1-1-1
			c-0.7,0-1,0.4-1.1,1.1h-0.9c0.1-1,0.7-1.8,2-1.8c1.4,0,1.9,0.9,1.9,1.7c0,0.9-0.4,1.3-1.5,2.1c-0.8,0.6-1.2,1.1-1.3,1.5h3.1
			l-0.1,0.8H-117.5z"/>
		<path class="st5" d="M-108.4,409.9c0,1.5-0.4,3.1-2.1,3.1c-1.6,0-2.1-1.5-2.1-3.1c0-1.5,0.5-3.1,2.1-3.1
			C-108.9,406.8-108.4,408.3-108.4,409.9z M-111.7,409.9c0,1.1,0.2,2.3,1.2,2.3c1,0,1.2-1.2,1.2-2.4c0-1.1-0.2-2.3-1.2-2.3
			C-111.5,407.6-111.7,408.6-111.7,409.9z"/>
		<path class="st5" d="M-103.7,407.7h-2.5c-0.1,0.4-0.2,1.3-0.2,1.6c0.2-0.3,0.6-0.4,1.2-0.4c1.1,0,1.8,0.8,1.8,2
			c0,1.2-0.6,2.2-2.1,2.2c-1.1,0-1.9-0.6-2-1.6h0.9c0.1,0.5,0.5,0.9,1.1,0.9c0.8,0,1.1-0.6,1.1-1.4c0-0.7-0.3-1.3-1.1-1.3
			c-0.7,0-1,0.3-1.2,0.7l-0.8-0.1c0.2-0.8,0.4-2.5,0.5-3.2h3.3L-103.7,407.7z"/>
		<path class="st5" d="M-100,406.6h2.5c1.4,0,2,0.7,2,1.6c0,0.7-0.4,1.2-0.9,1.4c0.4,0.1,1.1,0.6,1.1,1.5c0,1.2-0.9,1.8-2.1,1.8
			h-2.5V406.6z M-97.7,409.2c0.9,0,1.2-0.3,1.2-0.9c0-0.5-0.4-0.9-1.1-0.9h-1.5v1.8H-97.7z M-99.1,412.1h1.5c0.8,0,1.3-0.4,1.3-1.1
			c0-0.6-0.4-1.1-1.4-1.1h-1.4V412.1z"/>
		<path class="st5" d="M-89.2,408.8v0.8h-4.9v-0.8H-89.2z M-89.2,411v0.8h-4.9V411H-89.2z"/>
		<path class="st5" d="M-88.1,412.9L-88.1,412.9c0-0.9,0.5-1.8,1.8-2.7c0.9-0.7,1.2-0.9,1.2-1.6c0-0.6-0.3-1-1-1
			c-0.7,0-1,0.4-1.1,1.1h-0.9c0.1-1,0.7-1.8,2-1.8c1.4,0,1.9,0.9,1.9,1.7c0,0.9-0.4,1.3-1.5,2.1c-0.8,0.6-1.2,1.1-1.3,1.5h3.1
			l-0.1,0.8H-88.1z"/>
		<path class="st5" d="M-79.1,409.9c0,1.5-0.4,3.1-2.1,3.1c-1.6,0-2.1-1.5-2.1-3.1c0-1.5,0.5-3.1,2.1-3.1
			C-79.6,406.8-79.1,408.3-79.1,409.9z M-82.4,409.9c0,1.1,0.2,2.3,1.2,2.3c1,0,1.2-1.2,1.2-2.4c0-1.1-0.2-2.3-1.2-2.3
			C-82.1,407.6-82.4,408.6-82.4,409.9z"/>
		<path class="st5" d="M-74.4,407.7h-2.5c-0.1,0.4-0.2,1.3-0.2,1.6c0.2-0.3,0.6-0.4,1.2-0.4c1.1,0,1.8,0.8,1.8,2
			c0,1.2-0.6,2.2-2.1,2.2c-1.1,0-1.9-0.6-2-1.6h0.9c0.1,0.5,0.5,0.9,1.1,0.9c0.8,0,1.1-0.6,1.1-1.4c0-0.7-0.3-1.3-1.1-1.3
			c-0.7,0-1,0.3-1.2,0.7l-0.8-0.1c0.2-0.8,0.4-2.5,0.5-3.2h3.3L-74.4,407.7z"/>
		<path class="st5" d="M-158.2,421.2h4.2v0.7h-4.2V421.2z M-156.4,417.6h0.6l-1.5,6.1h-0.7L-156.4,417.6z M-157.7,419.2h4.2l0,0.7
			h-4.2V419.2z M-154.6,417.6h0.6l-1.5,6.1h-0.7L-154.6,417.6z"/>
		<path class="st5" d="M-147.3,421.9c-0.3,1.1-1.1,1.9-2.5,1.9c-1.9,0-2.8-1.4-2.8-3.2c0-1.7,0.9-3.2,2.9-3.2c1.5,0,2.3,0.9,2.5,1.9
			h-0.9c-0.2-0.6-0.6-1.2-1.6-1.2c-1.3,0-1.9,1.2-1.9,2.4c0,1.2,0.5,2.5,1.9,2.5c0.9,0,1.3-0.6,1.6-1.1H-147.3z"/>
		<path class="st5" d="M-146.1,417.4h2.3c1.8,0,3,1.2,3,3.1c0,1.8-1.2,3.2-3,3.2h-2.2V417.4z M-145.2,422.9h1.3c1.4,0,2.1-1,2.1-2.4
			c0-1.2-0.6-2.3-2.1-2.3h-1.3V422.9z"/>
		<path class="st5" d="M-134.6,421.9c-0.3,1.1-1.1,1.9-2.5,1.9c-1.9,0-2.8-1.4-2.8-3.2c0-1.7,0.9-3.2,2.9-3.2c1.5,0,2.3,0.9,2.5,1.9
			h-0.9c-0.2-0.6-0.6-1.2-1.6-1.2c-1.3,0-1.9,1.2-1.9,2.4c0,1.2,0.5,2.5,1.9,2.5c0.9,0,1.3-0.6,1.6-1.1H-134.6z"/>
		<path class="st5" d="M-133.4,417.4h2.3c1.8,0,3,1.2,3,3.1c0,1.8-1.2,3.2-3,3.2h-2.2V417.4z M-132.5,422.9h1.3c1.4,0,2.1-1,2.1-2.4
			c0-1.2-0.6-2.3-2.1-2.3h-1.3V422.9z"/>
		<path class="st5" d="M-121.9,421.9c-0.3,1.1-1.1,1.9-2.5,1.9c-1.9,0-2.8-1.4-2.8-3.2c0-1.7,0.9-3.2,2.9-3.2c1.5,0,2.3,0.9,2.5,1.9
			h-0.9c-0.2-0.6-0.6-1.2-1.6-1.2c-1.3,0-1.9,1.2-1.9,2.4c0,1.2,0.5,2.5,1.9,2.5c0.9,0,1.3-0.6,1.6-1.1H-121.9z"/>
		<path class="st5" d="M-120.7,417.4h2.3c1.8,0,3,1.2,3,3.1c0,1.8-1.2,3.2-3,3.2h-2.2V417.4z M-119.7,422.9h1.3c1.4,0,2.1-1,2.1-2.4
			c0-1.2-0.6-2.3-2.1-2.3h-1.3V422.9z"/>
	</g>
</g>
<path class="st6" d="M-181.1,283.9h-29.4c-6.6,0-12-5.4-12-12v-29.4c0-6.6,5.4-12,12-12h29.4c6.6,0,12,5.4,12,12v29.4
	C-169.1,278.5-174.5,283.9-181.1,283.9z"/>
<g>
	<g>
		<g>
			<path class="st6" d="M-153.7,247.8c-0.3,1.1-1.1,1.9-2.5,1.9c-1.9,0-2.8-1.4-2.8-3.2c0-1.7,0.9-3.2,2.9-3.2
				c1.5,0,2.3,0.9,2.5,1.9h-0.9c-0.2-0.6-0.6-1.2-1.6-1.2c-1.3,0-1.9,1.2-1.9,2.4c0,1.2,0.5,2.5,1.9,2.5c0.9,0,1.3-0.6,1.6-1.1
				H-153.7z"/>
			<path class="st6" d="M-147.6,245.6v0.8h-4.9v-0.8H-147.6z M-147.6,247.8v0.8h-4.9v-0.8H-147.6z"/>
			<path class="st6" d="M-145.5,248.3c0.2,0.5,0.4,0.7,1,0.7c1.1,0,1.2-1.5,1.2-2.2c-0.3,0.5-0.8,0.7-1.4,0.7
				c-1.1,0-1.8-0.8-1.8-1.9c0-1.1,0.7-2,2-2c1.5,0,2.1,1.2,2.1,2.7c0,1.6-0.3,3.4-2.1,3.4c-1.2,0-1.7-0.7-1.9-1.4H-145.5z
				 M-145.6,245.6c0,0.7,0.4,1.2,1.1,1.2c0.8,0,1.1-0.4,1.1-1.2c0-0.4-0.1-1.3-1.1-1.3C-145.2,244.3-145.6,244.9-145.6,245.6z"/>
			<path class="st6" d="M-140.4,249.6v-4.9c-0.3,0.2-0.9,0.4-1.2,0.5v-0.7c0.5-0.1,1-0.5,1.4-0.8h0.7v5.9H-140.4z"/>
			<path class="st6" d="M-130.2,247c0-1.1,0-2.3,0-3h0c-0.3,1.1-1.2,3.6-1.9,5.6h-0.8c-0.5-1.6-1.5-4.5-1.8-5.6h0
				c0,0.7,0.1,2.1,0.1,3.2v2.4h-0.9v-6.3h1.4c0.7,1.9,1.5,4.3,1.7,5.1h0c0.1-0.6,1.1-3.3,1.8-5.1h1.3v6.3h-0.9V247z"/>
			<path class="st6" d="M-122.8,245.6v0.8h-4.9v-0.8H-122.8z M-122.8,247.8v0.8h-4.9v-0.8H-122.8z"/>
			<path class="st6" d="M-117.4,246.6c0,1.5-0.4,3.1-2.1,3.1c-1.6,0-2.1-1.5-2.1-3.1c0-1.5,0.5-3.1,2.1-3.1
				C-117.9,243.6-117.4,245.1-117.4,246.6z M-120.7,246.7c0,1.1,0.2,2.3,1.2,2.3c1,0,1.2-1.2,1.2-2.4c0-1.1-0.2-2.3-1.2-2.3
				C-120.5,244.3-120.7,245.4-120.7,246.7z"/>
			<path class="st6" d="M-112.6,249.6v-2.3c0-0.1,0-0.1,0-0.2l-2.2-3.8h1.1c0.6,1,1.4,2.5,1.7,3.1c0.3-0.6,1.2-2.1,1.7-3.1h1
				l-2.3,3.8c0,0,0,0.1,0,0.2v2.3H-112.6z"/>
			<path class="st6" d="M-103.7,245.6v0.8h-4.9v-0.8H-103.7z M-103.7,247.8v0.8h-4.9v-0.8H-103.7z"/>
			<path class="st6" d="M-99.9,249.6v-1.5h-2.8v-0.8l2.7-3.6h1v3.7h0.8l-0.1,0.7H-99v1.5H-99.9z M-99.9,246c0-0.5,0-1,0-1.4
				c-0.2,0.5-1.3,2-1.9,2.8h1.9V246z"/>
			<path class="st6" d="M-94,243.7v0.7c-1,1.4-2,3.5-2.3,5.2h-0.9c0.3-1.7,1.3-3.9,2.2-5.2h-3v-0.8H-94z"/>
			<path class="st6" d="M-90.7,243.4h0.9v3c0.5-0.5,2-2,2.9-3h1.1l-2.7,2.6l2.8,3.6h-1.1l-2.3-3l-0.8,0.7v2.3h-0.9V243.4z"/>
			<path class="st6" d="M-80,245.6v0.8H-85v-0.8H-80z M-80,247.8v0.8H-85v-0.8H-80z"/>
			<path class="st6" d="M-76.2,249.6v-1.5H-79v-0.8l2.7-3.6h1v3.7h0.8l-0.1,0.7h-0.7v1.5H-76.2z M-76.2,246c0-0.5,0-1,0-1.4
				c-0.2,0.5-1.3,2-1.9,2.8h1.9V246z"/>
			<path class="st6" d="M-70.8,245c-0.1-0.4-0.4-0.7-1-0.7c-1,0-1.3,0.9-1.3,2.1c0.2-0.4,0.7-0.8,1.5-0.8c1.1,0,1.8,0.8,1.8,2
				c0,1.2-0.7,2.2-2,2.2c-1.6,0-2.1-1.3-2.1-3c0-1.6,0.5-3.1,2.2-3.1c1.2,0,1.7,0.8,1.8,1.4H-70.8z M-70.7,247.6
				c0-0.6-0.2-1.3-1.1-1.3c-0.7,0-1.2,0.4-1.2,1.3c0,0.5,0.2,1.4,1.2,1.4C-71,249-70.7,248.3-70.7,247.6z"/>
			<path class="st6" d="M-157.8,257.7v2.7h-0.9v-6.3h2.5c1.3,0,2,0.7,2,1.7c0,0.8-0.5,1.3-1,1.5c0.5,0.1,0.9,0.5,0.9,1.6v0.3
				c0,0.4,0,1,0.1,1.2h-0.9c-0.1-0.3-0.1-0.8-0.1-1.4v-0.1c0-0.9-0.2-1.2-1.3-1.2H-157.8z M-157.8,256.9h1.3c0.9,0,1.3-0.3,1.3-1
				c0-0.6-0.4-1-1.2-1h-1.4V256.9z"/>
			<path class="st6" d="M-148,256.4v0.8h-4.9v-0.8H-148z M-148,258.6v0.8h-4.9v-0.8H-148z"/>
			<path class="st6" d="M-145.7,260.4v-4.9c-0.3,0.2-0.9,0.4-1.2,0.5v-0.7c0.5-0.1,1-0.5,1.4-0.8h0.7v5.9H-145.7z"/>
			<path class="st6" d="M-143.4,255.9c0.1-0.7,0.6-1.5,1.9-1.5c1.3,0,1.8,0.8,1.8,1.6c0,0.7-0.4,1.1-0.8,1.2v0c0.5,0.2,1,0.6,1,1.5
				c0,0.9-0.6,1.9-2.1,1.9c-1.4,0-2-0.9-2.1-1.7h0.9c0.1,0.5,0.5,0.9,1.2,0.9c0.8,0,1.1-0.5,1.1-1.1c0-0.7-0.4-1.1-1.2-1.1h-0.4
				v-0.7h0.4c0.7,0,1.1-0.3,1.1-0.9c0-0.5-0.3-0.9-1-0.9c-0.7,0-0.9,0.4-1,0.8H-143.4z"/>
			<path class="st6" d="M-130.8,260.4h-0.7c0-0.1-0.1-0.4-0.1-0.8c-0.3,0.4-0.8,0.9-1.9,0.9c-1.8,0-2.8-1.4-2.8-3.1
				c0-1.9,1-3.3,2.9-3.3c1.5,0,2.4,0.8,2.6,1.9h-0.9c-0.2-0.6-0.7-1.2-1.7-1.2c-1.4,0-2,1.1-2,2.5c0,1.2,0.5,2.4,1.9,2.4
				c1.4,0,1.7-0.9,1.7-1.9v-0.1h-1.7V257h2.6V260.4z"/>
			<path class="st6" d="M-124.4,256.4v0.8h-4.9v-0.8H-124.4z M-124.4,258.6v0.8h-4.9v-0.8H-124.4z"/>
			<path class="st6" d="M-122.1,260.4v-4.9c-0.3,0.2-0.9,0.4-1.2,0.5v-0.7c0.5-0.1,1-0.5,1.4-0.8h0.7v5.9H-122.1z"/>
			<path class="st6" d="M-119.8,255.9c0.1-0.7,0.6-1.5,1.9-1.5c1.3,0,1.8,0.8,1.8,1.6c0,0.7-0.4,1.1-0.8,1.2v0c0.5,0.2,1,0.6,1,1.5
				c0,0.9-0.6,1.9-2.1,1.9c-1.4,0-2-0.9-2.1-1.7h0.9c0.1,0.5,0.5,0.9,1.2,0.9c0.8,0,1.1-0.5,1.1-1.1c0-0.7-0.4-1.1-1.2-1.1h-0.4
				v-0.7h0.4c0.7,0,1.1-0.3,1.1-0.9c0-0.5-0.3-0.9-1-0.9c-0.7,0-0.9,0.4-1,0.8H-119.8z"/>
			<path class="st6" d="M-111.3,254.5v0.7c-1,1.4-2,3.5-2.3,5.2h-0.9c0.3-1.7,1.3-3.9,2.2-5.2h-3v-0.8H-111.3z"/>
			<path class="st6" d="M-108,254.2h2.5c1.4,0,2,0.7,2,1.6c0,0.7-0.4,1.2-0.9,1.4c0.4,0.1,1.1,0.6,1.1,1.5c0,1.2-0.9,1.8-2.1,1.8
				h-2.5V254.2z M-105.7,256.7c0.9,0,1.2-0.3,1.2-0.9c0-0.5-0.4-0.9-1.1-0.9h-1.5v1.8H-105.7z M-107.1,259.7h1.5
				c0.8,0,1.3-0.4,1.3-1.1c0-0.6-0.4-1.1-1.4-1.1h-1.4V259.7z"/>
			<path class="st6" d="M-97.3,256.4v0.8h-4.9v-0.8H-97.3z M-97.3,258.6v0.8h-4.9v-0.8H-97.3z"/>
			<path class="st6" d="M-92.4,254.5v0.7c-1,1.4-2,3.5-2.3,5.2h-0.9c0.3-1.7,1.3-3.9,2.2-5.2h-3v-0.8H-92.4z"/>
			<path class="st6" d="M-91.7,255.9c0.1-0.7,0.6-1.5,1.9-1.5c1.3,0,1.8,0.8,1.8,1.6c0,0.7-0.4,1.1-0.8,1.2v0c0.5,0.2,1,0.6,1,1.5
				c0,0.9-0.6,1.9-2.1,1.9c-1.4,0-2-0.9-2.1-1.7h0.9c0.1,0.5,0.5,0.9,1.2,0.9c0.8,0,1.1-0.5,1.1-1.1c0-0.7-0.4-1.1-1.2-1.1h-0.4
				v-0.7h0.4c0.7,0,1.1-0.3,1.1-0.9c0-0.5-0.3-0.9-1-0.9c-0.7,0-0.9,0.4-1,0.8H-91.7z"/>
			<path class="st6" d="M-159.1,268.8h4.2v0.7h-4.2V268.8z M-157.3,265.2h0.6l-1.5,6.1h-0.7L-157.3,265.2z M-158.7,266.7h4.2l0,0.7
				h-4.2V266.7z M-155.5,265.2h0.6l-1.5,6.1h-0.7L-155.5,265.2z"/>
			<path class="st6" d="M-149.5,268.2c0,1.5-0.4,3.1-2.1,3.1c-1.6,0-2.1-1.5-2.1-3.1c0-1.5,0.5-3.1,2.1-3.1
				C-149.9,265.2-149.5,266.7-149.5,268.2z M-152.7,268.3c0,1.1,0.2,2.3,1.2,2.3c1,0,1.2-1.2,1.2-2.4c0-1.1-0.2-2.3-1.2-2.3
				C-152.5,265.9-152.7,267-152.7,268.3z"/>
			<path class="st6" d="M-144.5,264.6v5.3c0,0.4,0,0.9,0,1.3h-0.8c0-0.1,0-0.5,0-0.6c-0.2,0.5-0.7,0.7-1.4,0.7c-1.2,0-1.9-1-1.9-2.4
				c0-1.4,0.8-2.4,2.1-2.4c0.8,0,1.1,0.3,1.3,0.6v-2.5H-144.5z M-147.8,268.9c0,1.1,0.5,1.6,1.2,1.6c1,0,1.2-0.8,1.2-1.7
				c0-1-0.2-1.6-1.2-1.6C-147.3,267.3-147.8,267.9-147.8,268.9z"/>
			<path class="st6" d="M-143.4,269.5c0-0.8,0.6-1.3,1.1-1.5c-0.5-0.3-0.8-0.7-0.8-1.3c0-0.9,0.7-1.6,1.9-1.6c1.1,0,1.8,0.7,1.8,1.6
				c0,0.6-0.3,1-0.8,1.2c0.5,0.2,1,0.7,1,1.5c0,1.1-0.9,1.8-2.2,1.8C-142.5,271.3-143.4,270.7-143.4,269.5z M-140.1,269.5
				c0-0.7-0.5-1.1-1.2-1.1c-0.8,0-1.2,0.5-1.2,1.1c0,0.6,0.5,1.1,1.2,1.1C-140.6,270.6-140.1,270.2-140.1,269.5z M-142.3,266.8
				c0,0.5,0.3,0.9,1,0.9c0.7,0,1-0.3,1-0.9c0-0.5-0.3-0.9-1-0.9C-142,265.9-142.3,266.3-142.3,266.8z"/>
			<path class="st6" d="M-137.4,269.9c0.2,0.5,0.4,0.7,1,0.7c1.1,0,1.2-1.5,1.2-2.2c-0.3,0.5-0.8,0.7-1.4,0.7
				c-1.1,0-1.8-0.8-1.8-1.9c0-1.1,0.7-2,2-2c1.5,0,2.1,1.2,2.1,2.7c0,1.6-0.3,3.4-2.1,3.4c-1.2,0-1.7-0.7-1.9-1.4H-137.4z
				 M-137.5,267.2c0,0.7,0.4,1.2,1.1,1.2c0.8,0,1.1-0.4,1.1-1.2c0-0.4-0.1-1.3-1.1-1.3C-137.2,265.9-137.5,266.5-137.5,267.2z"/>
			<path class="st6" d="M-130.8,271.2v-1.5h-2.8v-0.8l2.7-3.6h1v3.7h0.8l-0.1,0.7h-0.7v1.5H-130.8z M-130.8,267.6c0-0.5,0-1,0-1.4
				c-0.2,0.5-1.3,2-1.9,2.8h1.9V267.6z"/>
			<path class="st6" d="M-127.6,269.9c0.2,0.5,0.4,0.7,1,0.7c1.1,0,1.2-1.5,1.2-2.2c-0.3,0.5-0.8,0.7-1.4,0.7
				c-1.1,0-1.8-0.8-1.8-1.9c0-1.1,0.7-2,2-2c1.5,0,2.1,1.2,2.1,2.7c0,1.6-0.3,3.4-2.1,3.4c-1.2,0-1.7-0.7-1.9-1.4H-127.6z
				 M-127.7,267.2c0,0.7,0.4,1.2,1.1,1.2c0.8,0,1.1-0.4,1.1-1.2c0-0.4-0.1-1.3-1.1-1.3C-127.4,265.9-127.7,266.5-127.7,267.2z"/>
		</g>
	</g>
</g>
<path class="st7" d="M-179.7,120.1h-29.4c-6.6,0-12-5.4-12-12V78.6c0-6.6,5.4-12,12-12h29.4c6.6,0,12,5.4,12,12v29.4
	C-167.7,114.7-173.1,120.1-179.7,120.1z"/>
<g>
	<g>
		<g>
			<path class="st7" d="M-153.7,84.1c-0.3,1.1-1.1,1.9-2.5,1.9c-1.9,0-2.8-1.4-2.8-3.2c0-1.7,0.9-3.2,2.9-3.2c1.5,0,2.3,0.9,2.5,1.9
				h-0.9c-0.2-0.6-0.6-1.2-1.6-1.2c-1.3,0-1.9,1.2-1.9,2.4c0,1.2,0.5,2.5,1.9,2.5c0.9,0,1.3-0.6,1.6-1.1H-153.7z"/>
			<path class="st7" d="M-147.6,81.9v0.8h-4.9v-0.8H-147.6z M-147.6,84.1v0.8h-4.9v-0.8H-147.6z"/>
			<path class="st7" d="M-142.6,80.7h-2.5c-0.1,0.4-0.2,1.3-0.2,1.6c0.2-0.3,0.6-0.4,1.2-0.4c1.1,0,1.8,0.8,1.8,2
				c0,1.2-0.6,2.2-2.1,2.2c-1.1,0-1.9-0.6-2-1.6h0.9c0.1,0.5,0.5,0.9,1.1,0.9c0.8,0,1.1-0.6,1.1-1.4c0-0.7-0.3-1.3-1.1-1.3
				c-0.7,0-1,0.3-1.2,0.7l-0.8-0.1c0.2-0.8,0.4-2.5,0.5-3.2h3.3L-142.6,80.7z"/>
			<path class="st7" d="M-137.8,80v0.7c-1,1.4-2,3.5-2.3,5.2h-0.9c0.3-1.7,1.3-3.9,2.2-5.2h-3V80H-137.8z"/>
			<path class="st7" d="M-129.2,83.3c0-1.1,0-2.3,0-3h0c-0.3,1.1-1.2,3.6-1.9,5.6h-0.8c-0.5-1.6-1.5-4.5-1.8-5.6h0
				c0,0.7,0.1,2.1,0.1,3.2v2.4h-0.9v-6.3h1.4c0.7,1.9,1.5,4.3,1.7,5.1h0c0.1-0.6,1.1-3.3,1.8-5.1h1.3v6.3h-0.9V83.3z"/>
			<path class="st7" d="M-121.8,81.9v0.8h-4.9v-0.8H-121.8z M-121.8,84.1v0.8h-4.9v-0.8H-121.8z"/>
			<path class="st7" d="M-120.7,85.9L-120.7,85.9c0-0.9,0.5-1.8,1.8-2.7c0.9-0.7,1.2-0.9,1.2-1.6c0-0.6-0.3-1-1-1
				c-0.7,0-1,0.4-1.1,1.1h-0.9c0.1-1,0.7-1.8,2-1.8c1.4,0,1.9,0.9,1.9,1.7c0,0.9-0.4,1.3-1.5,2.1c-0.8,0.6-1.2,1.1-1.3,1.5h3.1
				l-0.1,0.8H-120.7z"/>
			<path class="st7" d="M-111.7,82.9c0,1.5-0.4,3.1-2.1,3.1c-1.6,0-2.1-1.5-2.1-3.1c0-1.5,0.5-3.1,2.1-3.1
				C-112.2,79.9-111.7,81.4-111.7,82.9z M-115,83c0,1.1,0.2,2.3,1.2,2.3c1,0,1.2-1.2,1.2-2.4c0-1.1-0.2-2.3-1.2-2.3
				C-114.7,80.6-115,81.7-115,83z"/>
			<path class="st7" d="M-106.8,85.9v-2.3c0-0.1,0-0.1,0-0.2l-2.2-3.8h1.1c0.6,1,1.4,2.5,1.7,3.1c0.3-0.6,1.2-2.1,1.7-3.1h1
				l-2.3,3.8c0,0,0,0.1,0,0.2v2.3H-106.8z"/>
			<path class="st7" d="M-97.9,81.9v0.8h-4.9v-0.8H-97.9z M-97.9,84.1v0.8h-4.9v-0.8H-97.9z"/>
			<path class="st7" d="M-92.6,82.9c0,1.5-0.4,3.1-2.1,3.1c-1.6,0-2.1-1.5-2.1-3.1c0-1.5,0.5-3.1,2.1-3.1
				C-93,79.9-92.6,81.4-92.6,82.9z M-95.8,83c0,1.1,0.2,2.3,1.2,2.3c1,0,1.2-1.2,1.2-2.4c0-1.1-0.2-2.3-1.2-2.3
				C-95.6,80.6-95.8,81.7-95.8,83z"/>
			<path class="st7" d="M-89.1,79.7h0.9v3c0.5-0.5,2-2,2.9-3h1.1l-2.7,2.6l2.8,3.6h-1.1l-2.3-3l-0.8,0.7v2.3h-0.9V79.7z"/>
			<path class="st7" d="M-78.4,81.9v0.8h-4.9v-0.8H-78.4z M-78.4,84.1v0.8h-4.9v-0.8H-78.4z"/>
			<path class="st7" d="M-73,82.9c0,1.5-0.4,3.1-2.1,3.1c-1.6,0-2.1-1.5-2.1-3.1c0-1.5,0.5-3.1,2.1-3.1C-73.5,79.9-73,81.4-73,82.9z
				 M-76.3,83c0,1.1,0.2,2.3,1.2,2.3c1,0,1.2-1.2,1.2-2.4c0-1.1-0.2-2.3-1.2-2.3C-76,80.6-76.3,81.7-76.3,83z"/>
			<path class="st7" d="M-157.8,94v2.7h-0.9v-6.3h2.5c1.3,0,2,0.7,2,1.7c0,0.8-0.5,1.3-1,1.5c0.5,0.1,0.9,0.5,0.9,1.6v0.3
				c0,0.4,0,1,0.1,1.2h-0.9c-0.1-0.3-0.1-0.8-0.1-1.4v-0.1c0-0.9-0.2-1.2-1.3-1.2H-157.8z M-157.8,93.2h1.3c0.9,0,1.3-0.3,1.3-1
				c0-0.6-0.4-1-1.2-1h-1.4V93.2z"/>
			<path class="st7" d="M-148,92.7v0.8h-4.9v-0.8H-148z M-148,94.9v0.8h-4.9v-0.8H-148z"/>
			<path class="st7" d="M-145.7,96.7v-4.9c-0.3,0.2-0.9,0.4-1.2,0.5v-0.7c0.5-0.1,1-0.5,1.4-0.8h0.7v5.9H-145.7z"/>
			<path class="st7" d="M-142.4,96.7v-4.9c-0.3,0.2-0.9,0.4-1.2,0.5v-0.7c0.5-0.1,1-0.5,1.4-0.8h0.7v5.9H-142.4z"/>
			<path class="st7" d="M-136,93.7c0,1.5-0.4,3.1-2.1,3.1c-1.6,0-2.1-1.5-2.1-3.1c0-1.5,0.5-3.1,2.1-3.1
				C-136.4,90.7-136,92.2-136,93.7z M-139.2,93.8c0,1.1,0.2,2.3,1.2,2.3c1,0,1.2-1.2,1.2-2.4c0-1.1-0.2-2.3-1.2-2.3
				C-139,91.4-139.2,92.5-139.2,93.8z"/>
			<path class="st7" d="M-127.3,96.7h-0.7c0-0.1-0.1-0.4-0.1-0.8c-0.3,0.4-0.8,0.9-1.9,0.9c-1.8,0-2.8-1.4-2.8-3.1
				c0-1.9,1-3.3,2.9-3.3c1.5,0,2.4,0.8,2.6,1.9h-0.9c-0.2-0.6-0.7-1.2-1.7-1.2c-1.4,0-2,1.1-2,2.5c0,1.2,0.5,2.4,1.9,2.4
				c1.4,0,1.7-0.9,1.7-1.9v-0.1h-1.7v-0.8h2.6V96.7z"/>
			<path class="st7" d="M-121,92.7v0.8h-4.9v-0.8H-121z M-121,94.9v0.8h-4.9v-0.8H-121z"/>
			<path class="st7" d="M-119.9,96.7L-119.9,96.7c0-0.9,0.5-1.8,1.8-2.7c0.9-0.7,1.2-0.9,1.2-1.6c0-0.6-0.3-1-1-1
				c-0.7,0-1,0.4-1.1,1.1h-0.9c0.1-1,0.7-1.8,2-1.8c1.4,0,1.9,0.9,1.9,1.7c0,0.9-0.4,1.3-1.5,2.1c-0.8,0.6-1.2,1.1-1.3,1.5h3.1
				l-0.1,0.8H-119.9z"/>
			<path class="st7" d="M-110.8,93.7c0,1.5-0.4,3.1-2.1,3.1c-1.6,0-2.1-1.5-2.1-3.1c0-1.5,0.5-3.1,2.1-3.1
				C-111.3,90.7-110.8,92.2-110.8,93.7z M-114.1,93.8c0,1.1,0.2,2.3,1.2,2.3c1,0,1.2-1.2,1.2-2.4c0-1.1-0.2-2.3-1.2-2.3
				C-113.9,91.4-114.1,92.5-114.1,93.8z"/>
			<path class="st7" d="M-107.3,96.7v-1.5h-2.8v-0.8l2.7-3.6h1v3.7h0.8l-0.1,0.7h-0.7v1.5H-107.3z M-107.3,93.1c0-0.5,0-1,0-1.4
				c-0.2,0.5-1.3,2-1.9,2.8h1.9V93.1z"/>
			<path class="st7" d="M-102.4,90.5h2.5c1.4,0,2,0.7,2,1.6c0,0.7-0.4,1.2-0.9,1.4c0.4,0.1,1.1,0.6,1.1,1.5c0,1.2-0.9,1.8-2.1,1.8
				h-2.5V90.5z M-100.1,93c0.9,0,1.2-0.3,1.2-0.9c0-0.5-0.4-0.9-1.1-0.9h-1.5V93H-100.1z M-101.5,96h1.5c0.8,0,1.3-0.4,1.3-1.1
				c0-0.6-0.4-1.1-1.4-1.1h-1.4V96z"/>
			<path class="st7" d="M-91.7,92.7v0.8h-4.9v-0.8H-91.7z M-91.7,94.9v0.8h-4.9v-0.8H-91.7z"/>
			<path class="st7" d="M-90.6,96.7L-90.6,96.7c0-0.9,0.5-1.8,1.8-2.7c0.9-0.7,1.2-0.9,1.2-1.6c0-0.6-0.3-1-1-1
				c-0.7,0-1,0.4-1.1,1.1h-0.9c0.1-1,0.7-1.8,2-1.8c1.4,0,1.9,0.9,1.9,1.7c0,0.9-0.4,1.3-1.5,2.1c-0.8,0.6-1.2,1.1-1.3,1.5h3.1
				l-0.1,0.8H-90.6z"/>
			<path class="st7" d="M-81.9,91.5h-2.5c-0.1,0.4-0.2,1.3-0.2,1.6c0.2-0.3,0.6-0.4,1.2-0.4c1.1,0,1.8,0.8,1.8,2
				c0,1.2-0.6,2.2-2.1,2.2c-1.1,0-1.9-0.6-2-1.6h0.9c0.1,0.5,0.5,0.9,1.1,0.9c0.8,0,1.1-0.6,1.1-1.4c0-0.7-0.3-1.3-1.1-1.3
				c-0.7,0-1,0.3-1.2,0.7l-0.8-0.1c0.2-0.8,0.4-2.5,0.5-3.2h3.3L-81.9,91.5z"/>
			<path class="st7" d="M-77,91.5h-2.5c-0.1,0.4-0.2,1.3-0.2,1.6c0.2-0.3,0.6-0.4,1.2-0.4c1.1,0,1.8,0.8,1.8,2
				c0,1.2-0.6,2.2-2.1,2.2c-1.1,0-1.9-0.6-2-1.6h0.9c0.1,0.5,0.5,0.9,1.1,0.9c0.8,0,1.1-0.6,1.1-1.4c0-0.7-0.3-1.3-1.1-1.3
				c-0.7,0-1,0.3-1.2,0.7l-0.8-0.1c0.2-0.8,0.4-2.5,0.5-3.2h3.3L-77,91.5z"/>
			<path class="st7" d="M-159.1,105.1h4.2v0.7h-4.2V105.1z M-157.3,101.4h0.6l-1.5,6.1h-0.7L-157.3,101.4z M-158.7,103h4.2l0,0.7
				h-4.2V103z M-155.5,101.4h0.6l-1.5,6.1h-0.7L-155.5,101.4z"/>
			<path class="st7" d="M-150.6,102.9c-0.1-0.4-0.4-0.7-1-0.7c-1,0-1.3,0.9-1.3,2.1c0.2-0.4,0.7-0.8,1.5-0.8c1.1,0,1.8,0.8,1.8,2
				c0,1.2-0.7,2.2-2,2.2c-1.6,0-2.1-1.3-2.1-3c0-1.6,0.5-3.1,2.2-3.1c1.2,0,1.7,0.8,1.8,1.4H-150.6z M-150.4,105.5
				c0-0.6-0.2-1.3-1.1-1.3c-0.7,0-1.2,0.4-1.2,1.3c0,0.5,0.2,1.4,1.2,1.4C-150.8,106.9-150.4,106.2-150.4,105.5z"/>
			<path class="st7" d="M-144.3,104.6h-3.1v2.1h3.4l-0.1,0.8h-4.2v-6.3h4.1v0.8h-3.2v1.8h3.1V104.6z"/>
			<path class="st7" d="M-137.9,105.7c-0.3,1.1-1.1,1.9-2.5,1.9c-1.9,0-2.8-1.4-2.8-3.2c0-1.7,0.9-3.2,2.9-3.2
				c1.5,0,2.3,0.9,2.5,1.9h-0.9c-0.2-0.6-0.6-1.2-1.6-1.2c-1.3,0-1.9,1.2-1.9,2.4c0,1.2,0.5,2.5,1.9,2.5c0.9,0,1.3-0.6,1.6-1.1
				H-137.9z"/>
			<path class="st7" d="M-131.7,105.7c-0.3,1.1-1.1,1.9-2.5,1.9c-1.9,0-2.8-1.4-2.8-3.2c0-1.7,0.9-3.2,2.9-3.2
				c1.5,0,2.3,0.9,2.5,1.9h-0.9c-0.2-0.6-0.6-1.2-1.6-1.2c-1.3,0-1.9,1.2-1.9,2.4c0,1.2,0.5,2.5,1.9,2.5c0.9,0,1.3-0.6,1.6-1.1
				H-131.7z"/>
			<path class="st7" d="M-130.5,101.3h4.1v0.8h-3.2v1.9h3v0.8h-3v2.7h-0.9V101.3z"/>
			<path class="st7" d="M-125.4,101.3h4.1v0.8h-3.2v1.9h3v0.8h-3v2.7h-0.9V101.3z"/>
		</g>
	</g>
</g>
</svg>
