<?xml version="1.0" encoding="utf-8"?>
<!-- Generator: Adobe Illustrator 26.0.3, SVG Export Plug-In . SVG Version: 6.00 Build 0)  -->
<!DOCTYPE svg PUBLIC "-//W3C//DTD SVG 1.1//EN" "http://www.w3.org/Graphics/SVG/1.1/DTD/svg11.dtd" [
	<!ENTITY ns_extend "http://ns.adobe.com/Extensibility/1.0/">
	<!ENTITY ns_ai "http://ns.adobe.com/AdobeIllustrator/10.0/">
	<!ENTITY ns_graphs "http://ns.adobe.com/Graphs/1.0/">
	<!ENTITY ns_vars "http://ns.adobe.com/Variables/1.0/">
	<!ENTITY ns_imrep "http://ns.adobe.com/ImageReplacement/1.0/">
	<!ENTITY ns_sfw "http://ns.adobe.com/SaveForWeb/1.0/">
	<!ENTITY ns_custom "http://ns.adobe.com/GenericCustomNamespace/1.0/">
	<!ENTITY ns_adobe_xpath "http://ns.adobe.com/XPath/1.0/">
]>
<svg version="1.1" id="Layer_1" xmlns:x="&ns_extend;" xmlns:i="&ns_ai;" xmlns:graph="&ns_graphs;"
	 xmlns="http://www.w3.org/2000/svg" xmlns:xlink="http://www.w3.org/1999/xlink" x="0px" y="0px" viewBox="0 0 512 512"
	 style="enable-background:new 0 0 512 512;" xml:space="preserve">
<style type="text/css">
	.st0{fill:#11548F;}
</style>
<metadata>
	<sfw  xmlns="&ns_sfw;">
		<slices></slices>
		<sliceSourceBounds  bottomLeftOrigin="true" height="512" width="512" x="0" y="0"></sliceSourceBounds>
	</sfw>
</metadata>
<path class="st0" d="M256,464c114.9,0,208-93.1,208-208S370.9,48,256,48S48,141.1,48,256c0,5.5,0.2,10.9,0.6,16.3L1.8,286.1
	C0.6,276.2,0,266.2,0,256C0,114.6,114.6,0,256,0s256,114.6,256,256S397.4,512,256,512c-10.2,0-20.2-0.6-30.1-1.8l13.8-46.8
	C245.1,463.8,250.5,464,256,464z M267.9,367.4c56.3-6,100.1-53.6,100.1-111.4c0-61.9-50.1-112-112-112
	c-57.8,0-105.4,43.8-111.4,100.1L96,258.4c0-0.8,0-1.6,0-2.4c0-88.4,71.6-160,160-160s160,71.6,160,160s-71.6,160-160,160
	c-0.8,0-1.6-0.9-2.4-0.9L267.9,367.4z M39,308.5l204.9-60.2c12.1-3.6,23.4,6.8,19.8,19.8l-60.2,204c-4.1,14.8-23.2,16.5-29.7,3.5
	l-28.6-57.3c-0.7-2.2-1.6-2.6-2.6-3.7l-88,88c-12.5,12.5-32.8,12.5-45.3,0c-12.5-12.5-12.5-32.7,0-45.2l88-88
	c-1.1-1-2.3-1.9-3.7-2.6l-57.3-28.6C23.4,331.7,25.1,312.6,39,308.5L39,308.5z"/>
</svg>
