<?xml version="1.0" encoding="utf-8"?>
<!-- Generator: Adobe Illustrator 26.0.3, SVG Export Plug-In . SVG Version: 6.00 Build 0)  -->
<!DOCTYPE svg PUBLIC "-//W3C//DTD SVG 1.1//EN" "http://www.w3.org/Graphics/SVG/1.1/DTD/svg11.dtd" [
	<!ENTITY ns_extend "http://ns.adobe.com/Extensibility/1.0/">
	<!ENTITY ns_ai "http://ns.adobe.com/AdobeIllustrator/10.0/">
	<!ENTITY ns_graphs "http://ns.adobe.com/Graphs/1.0/">
	<!ENTITY ns_vars "http://ns.adobe.com/Variables/1.0/">
	<!ENTITY ns_imrep "http://ns.adobe.com/ImageReplacement/1.0/">
	<!ENTITY ns_sfw "http://ns.adobe.com/SaveForWeb/1.0/">
	<!ENTITY ns_custom "http://ns.adobe.com/GenericCustomNamespace/1.0/">
	<!ENTITY ns_adobe_xpath "http://ns.adobe.com/XPath/1.0/">
]>
<svg version="1.1" id="Layer_1" xmlns:x="&ns_extend;" xmlns:i="&ns_ai;" xmlns:graph="&ns_graphs;"
	 xmlns="http://www.w3.org/2000/svg" xmlns:xlink="http://www.w3.org/1999/xlink" x="0px" y="0px" viewBox="0 0 384 512"
	 style="enable-background:new 0 0 384 512;" xml:space="preserve">
<style type="text/css">
	.st0{fill:#005082;}
	.st1{fill:#001746;}
	.st2{fill:#92AFC6;}
	.st3{fill:#11548F;}
	.st4{fill:#022542;}
	.st5{fill:#CDCDCD;}
	.st6{fill:#008A47;}
	.st7{fill:#6ECCFF;}
</style>
<metadata>
	<sfw  xmlns="&ns_sfw;">
		<slices></slices>
		<sliceSourceBounds  bottomLeftOrigin="true" height="521.9" width="810.9" x="-426.9" y="0"></sliceSourceBounds>
	</sfw>
</metadata>
<path class="st0" d="M365.3,93.4l-74.6-74.6C278.6,6.7,262.3,0,245.4,0H64C28.6,0,0,28.6,0,64l0,384c0,35.3,28.6,64,64,64h256
	c35.2,0,64-28.8,64-64V138.6C384,121.7,377.3,105.4,365.3,93.4z M336,448c0,8.8-7.2,16-16,16H64c-8.8,0-16-7.2-16-16l0-383.9
	c0-8.8,7.2-16,16-16h160V128c0,17.7,14.3,32,32,32h79.1v288H336z M96,128h80c8.8,0,16-7.2,16-16s-7.2-16-16-16H96
	c-8.8,0-16,7.2-16,16S87.2,128,96,128z M96,192h80c8.8,0,16-7.2,16-16s-7.2-16-16-16H96c-8.8,0-16,7.2-16,16S87.2,192,96,192z
	 M196.6,363.4l-13.9-41.6c-3.2-9.9-12.3-16.5-22.7-16.5s-19.5,6.6-22.8,16.5L119,376.4c-1.5,4.5-5.7,7.6-10.6,7.6H96
	c-8.9,0-16,7.1-16,16s7.1,16,16,16h12.4c18.6,0,35.1-11.9,41-29.5l10.6-31.9l16.9,50.4c2,6.2,7.5,10.5,14,11h1.1
	c5.1,0,11.6-3.4,14.2-8.9l7.8-15.4c2.8-5.4,7.9-6.1,10-6.1s7.2,0.6,10.1,6.5c7.4,14.8,22.3,23.9,38.7,23.9H288c8.9,0,16-7.1,16-16
	s-7.1-16-16-16h-15.2c-4.1,0-8.1-2.5-10.1-6.5C250.8,353.6,216.4,347.1,196.6,363.4z"/>
<path class="st1" d="M-385.3,43.6h-29.4c-6.6,0-12-5.4-12-12V2.1c0-6.6,5.4-12,12-12h29.4c6.6,0,12,5.4,12,12v29.4
	C-373.3,38.2-378.7,43.6-385.3,43.6z"/>
<path class="st0" d="M-385.2,205.4h-29.4c-6.6,0-12-5.4-12-12v-29.4c0-6.6,5.4-12,12-12h29.4c6.6,0,12,5.4,12,12v29.4
	C-373.2,200-378.6,205.4-385.2,205.4z"/>
<path class="st2" d="M-385.3,359.5h-29.4c-6.6,0-12-5.4-12-12v-29.4c0-6.6,5.4-12,12-12h29.4c6.6,0,12,5.4,12,12v29.4
	C-373.3,354.1-378.7,359.5-385.3,359.5z"/>
<g>
	<g>
		<g>
			<path class="st2" d="M-358,322.8c-0.3,1.1-1.1,1.9-2.5,1.9c-1.9,0-2.8-1.4-2.8-3.2c0-1.7,0.9-3.2,2.9-3.2c1.5,0,2.3,0.9,2.5,1.9
				h-0.9c-0.2-0.6-0.6-1.2-1.6-1.2c-1.3,0-1.9,1.2-1.9,2.4c0,1.2,0.5,2.5,1.9,2.5c0.9,0,1.3-0.6,1.6-1.1H-358z"/>
			<path class="st2" d="M-351.9,320.5v0.8h-4.9v-0.8H-351.9z M-351.9,322.8v0.8h-4.9v-0.8H-351.9z"/>
			<path class="st2" d="M-348.1,324.6v-1.5h-2.8v-0.8l2.7-3.6h1v3.7h0.8l-0.1,0.7h-0.7v1.5H-348.1z M-348.1,320.9c0-0.5,0-1,0-1.4
				c-0.2,0.5-1.3,2-1.9,2.8h1.9V320.9z"/>
			<path class="st2" d="M-345.9,324.6L-345.9,324.6c0-0.9,0.5-1.8,1.8-2.7c0.9-0.7,1.2-0.9,1.2-1.6c0-0.6-0.3-1-1-1
				c-0.7,0-1,0.4-1.1,1.1h-0.9c0.1-1,0.7-1.8,2-1.8c1.4,0,1.9,0.9,1.9,1.7c0,0.9-0.4,1.3-1.5,2.1c-0.8,0.6-1.2,1.1-1.3,1.5h3.1
				l-0.1,0.8H-345.9z"/>
			<path class="st2" d="M-333.1,322c0-1.1,0-2.3,0-3h0c-0.3,1.1-1.2,3.6-1.9,5.6h-0.8c-0.5-1.6-1.5-4.5-1.8-5.6h0
				c0,0.7,0.1,2.1,0.1,3.2v2.4h-0.9v-6.3h1.4c0.7,1.9,1.5,4.3,1.7,5.1h0c0.1-0.6,1.1-3.3,1.8-5.1h1.3v6.3h-0.9V322z"/>
			<path class="st2" d="M-325.7,320.5v0.8h-4.9v-0.8H-325.7z M-325.7,322.8v0.8h-4.9v-0.8H-325.7z"/>
			<path class="st2" d="M-324.6,324.6L-324.6,324.6c0-0.9,0.5-1.8,1.8-2.7c0.9-0.7,1.2-0.9,1.2-1.6c0-0.6-0.3-1-1-1
				c-0.7,0-1,0.4-1.1,1.1h-0.9c0.1-1,0.7-1.8,2-1.8c1.4,0,1.9,0.9,1.9,1.7c0,0.9-0.4,1.3-1.5,2.1c-0.8,0.6-1.2,1.1-1.3,1.5h3.1
				l-0.1,0.8H-324.6z"/>
			<path class="st2" d="M-318.7,324.6v-4.9c-0.3,0.2-0.9,0.4-1.2,0.5v-0.7c0.5-0.1,1-0.5,1.4-0.8h0.7v5.9H-318.7z"/>
			<path class="st2" d="M-312.4,324.6v-2.3c0-0.1,0-0.1,0-0.2l-2.2-3.8h1.1c0.6,1,1.4,2.5,1.7,3.1c0.3-0.6,1.2-2.1,1.7-3.1h1
				l-2.3,3.8c0,0,0,0.1,0,0.2v2.3H-312.4z"/>
			<path class="st2" d="M-303.6,320.5v0.8h-4.9v-0.8H-303.6z M-303.6,322.8v0.8h-4.9v-0.8H-303.6z"/>
			<path class="st2" d="M-301.3,324.6v-4.9c-0.3,0.2-0.9,0.4-1.2,0.5v-0.7c0.5-0.1,1-0.5,1.4-0.8h0.7v5.9H-301.3z"/>
			<path class="st2" d="M-299,320.1c0.1-0.7,0.6-1.5,1.9-1.5c1.3,0,1.8,0.8,1.8,1.6c0,0.7-0.4,1.1-0.8,1.2v0c0.5,0.2,1,0.6,1,1.5
				c0,0.9-0.6,1.9-2.1,1.9c-1.4,0-2-0.9-2.1-1.7h0.9c0.1,0.5,0.5,0.9,1.2,0.9c0.8,0,1.1-0.5,1.1-1.1c0-0.7-0.4-1.1-1.2-1.1h-0.4V321
				h0.4c0.7,0,1.1-0.3,1.1-0.9c0-0.5-0.3-0.9-1-0.9c-0.7,0-0.9,0.4-1,0.8H-299z"/>
			<path class="st2" d="M-291.5,318.3h0.9v3c0.5-0.5,2-2,2.9-3h1.1l-2.7,2.6l2.8,3.6h-1.1l-2.3-3l-0.8,0.7v2.3h-0.9V318.3z"/>
			<path class="st2" d="M-280.8,320.5v0.8h-4.9v-0.8H-280.8z M-280.8,322.8v0.8h-4.9v-0.8H-280.8z"/>
			<path class="st2" d="M-278.5,324.6v-4.9c-0.3,0.2-0.9,0.4-1.2,0.5v-0.7c0.5-0.1,1-0.5,1.4-0.8h0.7v5.9H-278.5z"/>
			<path class="st2" d="M-362.1,332.7v2.7h-0.9v-6.3h2.5c1.3,0,2,0.7,2,1.7c0,0.8-0.5,1.3-1,1.5c0.5,0.1,0.9,0.5,0.9,1.6v0.3
				c0,0.4,0,1,0.1,1.2h-0.9c-0.1-0.3-0.1-0.8-0.1-1.4v-0.1c0-0.9-0.2-1.2-1.3-1.2H-362.1z M-362.1,331.9h1.3c0.9,0,1.3-0.3,1.3-1
				c0-0.6-0.4-1-1.2-1h-1.4V331.9z"/>
			<path class="st2" d="M-352.3,331.3v0.8h-4.9v-0.8H-352.3z M-352.3,333.6v0.8h-4.9v-0.8H-352.3z"/>
			<path class="st2" d="M-350,335.4v-4.9c-0.3,0.2-0.9,0.4-1.2,0.5v-0.7c0.5-0.1,1-0.5,1.4-0.8h0.7v5.9H-350z"/>
			<path class="st2" d="M-345.2,335.4v-1.5h-2.8v-0.8l2.7-3.6h1v3.7h0.8l-0.1,0.7h-0.7v1.5H-345.2z M-345.2,331.7c0-0.5,0-1,0-1.4
				c-0.2,0.5-1.3,2-1.9,2.8h1.9V331.7z"/>
			<path class="st2" d="M-339.8,330.8c-0.1-0.4-0.4-0.7-1-0.7c-1,0-1.3,0.9-1.3,2.1c0.2-0.4,0.7-0.8,1.5-0.8c1.1,0,1.8,0.8,1.8,2
				c0,1.2-0.7,2.2-2,2.2c-1.6,0-2.1-1.3-2.1-3c0-1.6,0.5-3.1,2.2-3.1c1.2,0,1.7,0.8,1.8,1.4H-339.8z M-339.7,333.4
				c0-0.6-0.2-1.3-1.1-1.3c-0.7,0-1.2,0.4-1.2,1.3c0,0.5,0.2,1.4,1.2,1.4C-340,334.7-339.7,334.1-339.7,333.4z"/>
			<path class="st2" d="M-330.2,335.4h-0.7c0-0.1-0.1-0.4-0.1-0.8c-0.3,0.4-0.8,0.9-1.9,0.9c-1.8,0-2.8-1.4-2.8-3.1
				c0-1.9,1-3.3,2.9-3.3c1.5,0,2.4,0.8,2.6,1.9h-0.9c-0.2-0.6-0.7-1.2-1.7-1.2c-1.4,0-2,1.1-2,2.5c0,1.2,0.5,2.4,1.9,2.4
				c1.4,0,1.7-0.9,1.7-1.9v-0.1h-1.7V332h2.6V335.4z"/>
			<path class="st2" d="M-323.8,331.3v0.8h-4.9v-0.8H-323.8z M-323.8,333.6v0.8h-4.9v-0.8H-323.8z"/>
			<path class="st2" d="M-321.5,335.4v-4.9c-0.3,0.2-0.9,0.4-1.2,0.5v-0.7c0.5-0.1,1-0.5,1.4-0.8h0.7v5.9H-321.5z"/>
			<path class="st2" d="M-318.4,334c0.2,0.5,0.4,0.7,1,0.7c1.1,0,1.2-1.5,1.2-2.2c-0.3,0.5-0.8,0.7-1.4,0.7c-1.1,0-1.8-0.8-1.8-1.9
				c0-1.1,0.7-2,2-2c1.5,0,2.1,1.2,2.1,2.7c0,1.6-0.3,3.4-2.1,3.4c-1.2,0-1.7-0.7-1.9-1.4H-318.4z M-318.5,331.3
				c0,0.7,0.4,1.2,1.1,1.2c0.8,0,1.1-0.4,1.1-1.2c0-0.4-0.1-1.3-1.1-1.3C-318.1,330.1-318.5,330.6-318.5,331.3z"/>
			<path class="st2" d="M-313.5,334c0.2,0.5,0.4,0.7,1,0.7c1.1,0,1.2-1.5,1.2-2.2c-0.3,0.5-0.8,0.7-1.4,0.7c-1.1,0-1.8-0.8-1.8-1.9
				c0-1.1,0.7-2,2-2c1.5,0,2.1,1.2,2.1,2.7c0,1.6-0.3,3.4-2.1,3.4c-1.2,0-1.7-0.7-1.9-1.4H-313.5z M-313.5,331.3
				c0,0.7,0.4,1.2,1.1,1.2c0.8,0,1.1-0.4,1.1-1.2c0-0.4-0.1-1.3-1.1-1.3C-313.2,330.1-313.5,330.6-313.5,331.3z"/>
			<path class="st2" d="M-306.8,329.1h2.5c1.4,0,2,0.7,2,1.6c0,0.7-0.4,1.2-0.9,1.4c0.4,0.1,1.1,0.6,1.1,1.5c0,1.2-0.9,1.8-2.1,1.8
				h-2.5V329.1z M-304.5,331.7c0.9,0,1.2-0.3,1.2-0.9c0-0.5-0.4-0.9-1.1-0.9h-1.5v1.8H-304.5z M-305.9,334.6h1.5
				c0.8,0,1.3-0.4,1.3-1.1c0-0.6-0.4-1.1-1.4-1.1h-1.4V334.6z"/>
			<path class="st2" d="M-296.1,331.3v0.8h-4.9v-0.8H-296.1z M-296.1,333.6v0.8h-4.9v-0.8H-296.1z"/>
			<path class="st2" d="M-295,335.4L-295,335.4c0-0.9,0.5-1.8,1.8-2.7c0.9-0.7,1.2-0.9,1.2-1.6c0-0.6-0.3-1-1-1
				c-0.7,0-1,0.4-1.1,1.1h-0.9c0.1-1,0.7-1.8,2-1.8c1.4,0,1.9,0.9,1.9,1.7c0,0.9-0.4,1.3-1.5,2.1c-0.8,0.6-1.2,1.1-1.3,1.5h3.1
				l-0.1,0.8H-295z"/>
			<path class="st2" d="M-290.2,335.4L-290.2,335.4c0-0.9,0.5-1.8,1.8-2.7c0.9-0.7,1.2-0.9,1.2-1.6c0-0.6-0.3-1-1-1
				c-0.7,0-1,0.4-1.1,1.1h-0.9c0.1-1,0.7-1.8,2-1.8c1.4,0,1.9,0.9,1.9,1.7c0,0.9-0.4,1.3-1.5,2.1c-0.8,0.6-1.2,1.1-1.3,1.5h3.1
				l-0.1,0.8H-290.2z"/>
			<path class="st2" d="M-285.4,335.4L-285.4,335.4c0-0.9,0.5-1.8,1.8-2.7c0.9-0.7,1.2-0.9,1.2-1.6c0-0.6-0.3-1-1-1
				c-0.7,0-1,0.4-1.1,1.1h-0.9c0.1-1,0.7-1.8,2-1.8c1.4,0,1.9,0.9,1.9,1.7c0,0.9-0.4,1.3-1.5,2.1c-0.8,0.6-1.2,1.1-1.3,1.5h3.1
				l-0.1,0.8H-285.4z"/>
			<path class="st2" d="M-363.4,343.7h4.2v0.7h-4.2V343.7z M-361.6,340.1h0.6l-1.5,6.1h-0.7L-361.6,340.1z M-363,341.7h4.2l0,0.7
				h-4.2V341.7z M-359.8,340.1h0.6l-1.5,6.1h-0.7L-359.8,340.1z"/>
			<path class="st2" d="M-357.1,344.8c0.2,0.5,0.4,0.7,1,0.7c1.1,0,1.2-1.5,1.2-2.2c-0.3,0.5-0.8,0.7-1.4,0.7
				c-1.1,0-1.8-0.8-1.8-1.9c0-1.1,0.7-2,2-2c1.5,0,2.1,1.2,2.1,2.7c0,1.6-0.3,3.4-2.1,3.4c-1.2,0-1.7-0.7-1.9-1.4H-357.1z
				 M-357.1,342.1c0,0.7,0.4,1.2,1.1,1.2c0.8,0,1.1-0.4,1.1-1.2c0-0.4-0.1-1.3-1.1-1.3C-356.8,340.9-357.1,341.4-357.1,342.1z"/>
			<path class="st2" d="M-353.1,346.2L-353.1,346.2c0-0.9,0.5-1.8,1.8-2.7c0.9-0.7,1.2-0.9,1.2-1.6c0-0.6-0.3-1-1-1
				c-0.7,0-1,0.4-1.1,1.1h-0.9c0.1-1,0.7-1.8,2-1.8c1.4,0,1.9,0.9,1.9,1.7c0,0.9-0.4,1.3-1.5,2.1c-0.8,0.6-1.2,1.1-1.3,1.5h3.1
				l-0.1,0.8H-353.1z"/>
			<path class="st2" d="M-342.9,344.4c-0.3,1.1-1.1,1.9-2.5,1.9c-1.9,0-2.8-1.4-2.8-3.2c0-1.7,0.9-3.2,2.9-3.2
				c1.5,0,2.3,0.9,2.5,1.9h-0.9c-0.2-0.6-0.6-1.2-1.6-1.2c-1.3,0-1.9,1.2-1.9,2.4c0,1.2,0.5,2.5,1.9,2.5c0.9,0,1.3-0.6,1.6-1.1
				H-342.9z"/>
			<path class="st2" d="M-338.4,340.2v0.7c-1,1.4-2,3.5-2.3,5.2h-0.9c0.3-1.7,1.3-3.9,2.2-5.2h-3v-0.8H-338.4z"/>
			<path class="st2" d="M-337.4,339.9h2.3c1.8,0,3,1.2,3,3.1c0,1.8-1.2,3.2-3,3.2h-2.2V339.9z M-336.5,345.4h1.3
				c1.4,0,2.1-1,2.1-2.4c0-1.2-0.6-2.3-2.1-2.3h-1.3V345.4z"/>
			<path class="st2" d="M-326.9,343.3h-3.1v2.1h3.4l-0.1,0.8h-4.2v-6.3h4.1v0.8h-3.2v1.8h3.1V343.3z"/>
		</g>
	</g>
</g>
<g>
	<g>
		<g>
			<path class="st3" d="M-357.8,169.4c-0.3,1.1-1.1,1.9-2.5,1.9c-1.9,0-2.8-1.4-2.8-3.2c0-1.7,0.9-3.2,2.9-3.2
				c1.5,0,2.3,0.9,2.5,1.9h-0.9c-0.2-0.6-0.6-1.2-1.6-1.2c-1.3,0-1.9,1.2-1.9,2.4c0,1.2,0.5,2.5,1.9,2.5c0.9,0,1.3-0.6,1.6-1.1
				H-357.8z"/>
			<path class="st3" d="M-351.7,167.1v0.8h-4.9v-0.8H-351.7z M-351.7,169.4v0.8h-4.9v-0.8H-351.7z"/>
			<path class="st3" d="M-350.5,169.5c0-0.8,0.6-1.3,1.1-1.5c-0.5-0.3-0.8-0.7-0.8-1.3c0-0.9,0.7-1.6,1.9-1.6c1.1,0,1.8,0.7,1.8,1.6
				c0,0.6-0.3,1-0.8,1.2c0.5,0.2,1,0.7,1,1.5c0,1.1-0.9,1.8-2.2,1.8C-349.6,171.3-350.5,170.6-350.5,169.5z M-347.2,169.4
				c0-0.7-0.5-1.1-1.2-1.1c-0.8,0-1.2,0.5-1.2,1.1c0,0.6,0.5,1.1,1.2,1.1C-347.7,170.6-347.2,170.2-347.2,169.4z M-349.4,166.7
				c0,0.5,0.3,0.9,1,0.9c0.7,0,1-0.3,1-0.9c0-0.5-0.3-0.9-1-0.9C-349.1,165.9-349.4,166.2-349.4,166.7z"/>
			<path class="st3" d="M-345.5,169.5c0-0.8,0.6-1.3,1.1-1.5c-0.5-0.3-0.8-0.7-0.8-1.3c0-0.9,0.7-1.6,1.9-1.6c1.1,0,1.8,0.7,1.8,1.6
				c0,0.6-0.3,1-0.8,1.2c0.5,0.2,1,0.7,1,1.5c0,1.1-0.9,1.8-2.2,1.8C-344.6,171.3-345.5,170.6-345.5,169.5z M-342.2,169.4
				c0-0.7-0.5-1.1-1.2-1.1c-0.8,0-1.2,0.5-1.2,1.1c0,0.6,0.5,1.1,1.2,1.1C-342.7,170.6-342.2,170.2-342.2,169.4z M-344.4,166.7
				c0,0.5,0.3,0.9,1,0.9c0.7,0,1-0.3,1-0.9c0-0.5-0.3-0.9-1-0.9C-344.1,165.9-344.4,166.2-344.4,166.7z"/>
			<path class="st3" d="M-332.5,168.6c0-1.1,0-2.3,0-3h0c-0.3,1.1-1.2,3.6-1.9,5.6h-0.8c-0.5-1.6-1.5-4.5-1.8-5.6h0
				c0,0.7,0.1,2.1,0.1,3.2v2.4h-0.9v-6.3h1.4c0.7,1.9,1.5,4.3,1.7,5.1h0c0.1-0.6,1.1-3.3,1.8-5.1h1.3v6.3h-0.9V168.6z"/>
			<path class="st3" d="M-325.1,167.1v0.8h-4.9v-0.8H-325.1z M-325.1,169.4v0.8h-4.9v-0.8H-325.1z"/>
			<path class="st3" d="M-321.3,171.2v-1.5h-2.8v-0.8l2.7-3.6h1v3.7h0.8l-0.1,0.7h-0.7v1.5H-321.3z M-321.3,167.5c0-0.5,0-1,0-1.4
				c-0.2,0.5-1.3,2-1.9,2.8h1.9V167.5z"/>
			<path class="st3" d="M-317.9,171.2v-4.9c-0.3,0.2-0.9,0.4-1.2,0.5v-0.7c0.5-0.1,1-0.5,1.4-0.8h0.7v5.9H-317.9z"/>
			<path class="st3" d="M-311.7,171.2v-2.3c0-0.1,0-0.1,0-0.2l-2.2-3.8h1.1c0.6,1,1.4,2.5,1.7,3.1c0.3-0.6,1.2-2.1,1.7-3.1h1
				l-2.3,3.8c0,0,0,0.1,0,0.2v2.3H-311.7z"/>
			<path class="st3" d="M-302.9,167.1v0.8h-4.9v-0.8H-302.9z M-302.9,169.4v0.8h-4.9v-0.8H-302.9z"/>
			<path class="st3" d="M-297.5,168.2c0,1.5-0.4,3.1-2.1,3.1c-1.6,0-2.1-1.5-2.1-3.1c0-1.5,0.5-3.1,2.1-3.1
				C-297.9,165.1-297.5,166.6-297.5,168.2z M-300.8,168.2c0,1.1,0.2,2.3,1.2,2.3c1,0,1.2-1.2,1.2-2.4c0-1.1-0.2-2.3-1.2-2.3
				C-300.5,165.9-300.8,166.9-300.8,168.2z"/>
			<path class="st3" d="M-294,164.9h0.9v3c0.5-0.5,2-2,2.9-3h1.1l-2.7,2.6l2.8,3.6h-1.1l-2.3-3l-0.8,0.7v2.3h-0.9V164.9z"/>
			<path class="st3" d="M-283.3,167.1v0.8h-4.9v-0.8H-283.3z M-283.3,169.4v0.8h-4.9v-0.8H-283.3z"/>
			<path class="st3" d="M-279.5,171.2v-1.5h-2.8v-0.8l2.7-3.6h1v3.7h0.8l-0.1,0.7h-0.7v1.5H-279.5z M-279.5,167.5c0-0.5,0-1,0-1.4
				c-0.2,0.5-1.3,2-1.9,2.8h1.9V167.5z"/>
			<path class="st3" d="M-274.6,171.2v-1.5h-2.8v-0.8l2.7-3.6h1v3.7h0.8l-0.1,0.7h-0.7v1.5H-274.6z M-274.6,167.5c0-0.5,0-1,0-1.4
				c-0.2,0.5-1.3,2-1.9,2.8h1.9V167.5z"/>
			<path class="st3" d="M-361.9,179.3v2.7h-0.9v-6.3h2.5c1.3,0,2,0.7,2,1.7c0,0.8-0.5,1.3-1,1.5c0.5,0.1,0.9,0.5,0.9,1.6v0.3
				c0,0.4,0,1,0.1,1.2h-0.9c-0.1-0.3-0.1-0.8-0.1-1.4v-0.1c0-0.9-0.2-1.2-1.3-1.2H-361.9z M-361.9,178.5h1.3c0.9,0,1.3-0.3,1.3-1
				c0-0.6-0.4-1-1.2-1h-1.4V178.5z"/>
			<path class="st3" d="M-352.1,177.9v0.8h-4.9v-0.8H-352.1z M-352.1,180.2v0.8h-4.9v-0.8H-352.1z"/>
			<path class="st3" d="M-349.8,182v-4.9c-0.3,0.2-0.9,0.4-1.2,0.5v-0.7c0.5-0.1,1-0.5,1.4-0.8h0.7v5.9H-349.8z"/>
			<path class="st3" d="M-343.9,176v0.7c-1,1.4-2,3.5-2.3,5.2h-0.9c0.3-1.7,1.3-3.9,2.2-5.2h-3V176H-343.9z"/>
			<path class="st3" d="M-335.5,182h-0.7c0-0.1-0.1-0.4-0.1-0.8c-0.3,0.4-0.8,0.9-1.9,0.9c-1.8,0-2.8-1.4-2.8-3.1
				c0-1.9,1-3.3,2.9-3.3c1.5,0,2.4,0.8,2.6,1.9h-0.9c-0.2-0.6-0.7-1.2-1.7-1.2c-1.4,0-2,1.1-2,2.5c0,1.2,0.5,2.4,1.9,2.4
				c1.4,0,1.7-0.9,1.7-1.9v-0.1h-1.7v-0.8h2.6V182z"/>
			<path class="st3" d="M-329.2,177.9v0.8h-4.9v-0.8H-329.2z M-329.2,180.2v0.8h-4.9v-0.8H-329.2z"/>
			<path class="st3" d="M-328,180.3c0-0.8,0.6-1.3,1.1-1.5c-0.5-0.3-0.8-0.7-0.8-1.3c0-0.9,0.7-1.6,1.9-1.6c1.1,0,1.8,0.7,1.8,1.6
				c0,0.6-0.3,1-0.8,1.2c0.5,0.2,1,0.7,1,1.5c0,1.1-0.9,1.8-2.2,1.8C-327.1,182.1-328,181.4-328,180.3z M-324.7,180.2
				c0-0.7-0.5-1.1-1.2-1.1c-0.8,0-1.2,0.5-1.2,1.1c0,0.6,0.5,1.1,1.2,1.1C-325.2,181.4-324.7,181-324.7,180.2z M-326.9,177.5
				c0,0.5,0.3,0.9,1,0.9c0.7,0,1-0.3,1-0.9c0-0.5-0.3-0.9-1-0.9C-326.6,176.7-326.9,177-326.9,177.5z"/>
			<path class="st3" d="M-320.3,182v-1.5h-2.8v-0.8l2.7-3.6h1v3.7h0.8l-0.1,0.7h-0.7v1.5H-320.3z M-320.3,178.3c0-0.5,0-1,0-1.4
				c-0.2,0.5-1.3,2-1.9,2.8h1.9V178.3z"/>
			<path class="st3" d="M-315.4,175.7h2.5c1.4,0,2,0.7,2,1.6c0,0.7-0.4,1.2-0.9,1.4c0.4,0.1,1.1,0.6,1.1,1.5c0,1.2-0.9,1.8-2.1,1.8
				h-2.5V175.7z M-313.1,178.3c0.9,0,1.2-0.3,1.2-0.9c0-0.5-0.4-0.9-1.1-0.9h-1.5v1.8H-313.1z M-314.5,181.2h1.5
				c0.8,0,1.3-0.4,1.3-1.1c0-0.6-0.4-1.1-1.4-1.1h-1.4V181.2z"/>
			<path class="st3" d="M-304.7,177.9v0.8h-4.9v-0.8H-304.7z M-304.7,180.2v0.8h-4.9v-0.8H-304.7z"/>
			<path class="st3" d="M-302.4,182v-4.9c-0.3,0.2-0.9,0.4-1.2,0.5v-0.7c0.5-0.1,1-0.5,1.4-0.8h0.7v5.9H-302.4z"/>
			<path class="st3" d="M-297.6,182v-1.5h-2.8v-0.8l2.7-3.6h1v3.7h0.8l-0.1,0.7h-0.7v1.5H-297.6z M-297.6,178.3c0-0.5,0-1,0-1.4
				c-0.2,0.5-1.3,2-1.9,2.8h1.9V178.3z"/>
			<path class="st3" d="M-295.2,177.5c0.1-0.7,0.6-1.5,1.9-1.5c1.3,0,1.8,0.8,1.8,1.6c0,0.7-0.4,1.1-0.8,1.2v0c0.5,0.2,1,0.6,1,1.5
				c0,0.9-0.6,1.9-2.1,1.9c-1.4,0-2-0.9-2.1-1.7h0.9c0.1,0.5,0.5,0.9,1.2,0.9c0.8,0,1.1-0.5,1.1-1.1c0-0.7-0.4-1.1-1.2-1.1h-0.4
				v-0.7h0.4c0.7,0,1.1-0.3,1.1-0.9c0-0.5-0.3-0.9-1-0.9c-0.7,0-0.9,0.4-1,0.8H-295.2z"/>
			<path class="st3" d="M-363.2,190.3h4.2v0.7h-4.2V190.3z M-361.4,186.7h0.6l-1.5,6.1h-0.7L-361.4,186.7z M-362.8,188.3h4.2l0,0.7
				h-4.2V188.3z M-359.6,186.7h0.6l-1.5,6.1h-0.7L-359.6,186.7z"/>
			<path class="st3" d="M-356.6,192.8v-4.9c-0.3,0.2-0.9,0.4-1.2,0.5v-0.7c0.5-0.1,1-0.5,1.4-0.8h0.7v5.9H-356.6z"/>
			<path class="st3" d="M-353.3,192.8v-4.9c-0.3,0.2-0.9,0.4-1.2,0.5v-0.7c0.5-0.1,1-0.5,1.4-0.8h0.7v5.9H-353.3z"/>
			<path class="st3" d="M-347.3,187.6h-2.5c-0.1,0.4-0.2,1.3-0.2,1.6c0.2-0.3,0.6-0.4,1.2-0.4c1.1,0,1.8,0.8,1.8,2
				c0,1.2-0.6,2.2-2.1,2.2c-1.1,0-1.9-0.6-2-1.6h0.9c0.1,0.5,0.5,0.9,1.1,0.9c0.8,0,1.1-0.6,1.1-1.4c0-0.7-0.3-1.3-1.1-1.3
				c-0.7,0-1,0.3-1.2,0.7l-0.8-0.1c0.2-0.8,0.4-2.5,0.5-3.2h3.3L-347.3,187.6z"/>
			<path class="st3" d="M-343.5,192.8v-1.5h-2.8v-0.8l2.7-3.6h1v3.7h0.8l-0.1,0.7h-0.7v1.5H-343.5z M-343.5,189.1c0-0.5,0-1,0-1.4
				c-0.2,0.5-1.3,2-1.9,2.8h1.9V189.1z"/>
			<path class="st3" d="M-341.3,191.1c0-0.8,0.6-1.3,1.1-1.5c-0.5-0.3-0.8-0.7-0.8-1.3c0-0.9,0.7-1.6,1.9-1.6c1.1,0,1.8,0.7,1.8,1.6
				c0,0.6-0.3,1-0.8,1.2c0.5,0.2,1,0.7,1,1.5c0,1.1-0.9,1.8-2.2,1.8C-340.4,192.9-341.3,192.2-341.3,191.1z M-338,191
				c0-0.7-0.5-1.1-1.2-1.1c-0.8,0-1.2,0.5-1.2,1.1c0,0.6,0.5,1.1,1.2,1.1C-338.4,192.2-338,191.8-338,191z M-340.2,188.3
				c0,0.5,0.3,0.9,1,0.9c0.7,0,1-0.3,1-0.9c0-0.5-0.3-0.9-1-0.9C-339.9,187.5-340.2,187.8-340.2,188.3z"/>
			<path class="st3" d="M-335.8,186.5h4.1v0.8h-3.2v1.9h3v0.8h-3v2.7h-0.9V186.5z"/>
		</g>
	</g>
</g>
<g>
	<g>
		<g>
			<path class="st4" d="M-359,9.2c-0.3,1.1-1.1,1.9-2.5,1.9c-1.9,0-2.8-1.4-2.8-3.2c0-1.7,0.9-3.2,2.9-3.2c1.5,0,2.3,0.9,2.5,1.9
				h-0.9c-0.2-0.6-0.6-1.2-1.6-1.2c-1.3,0-1.9,1.2-1.9,2.4c0,1.2,0.5,2.5,1.9,2.5c0.9,0,1.3-0.6,1.6-1.1H-359z"/>
			<path class="st4" d="M-352.9,6.9v0.8h-4.9V6.9H-352.9z M-352.9,9.2v0.8h-4.9V9.2H-352.9z"/>
			<path class="st4" d="M-350.6,11V6.1c-0.3,0.2-0.9,0.4-1.2,0.5V5.9c0.5-0.1,1-0.5,1.4-0.8h0.7V11H-350.6z"/>
			<path class="st4" d="M-344.2,8c0,1.5-0.4,3.1-2.1,3.1c-1.6,0-2.1-1.5-2.1-3.1c0-1.5,0.5-3.1,2.1-3.1
				C-344.7,4.9-344.2,6.4-344.2,8z M-347.5,8c0,1.1,0.2,2.3,1.2,2.3c1,0,1.2-1.2,1.2-2.4c0-1.1-0.2-2.3-1.2-2.3
				C-347.2,5.7-347.5,6.7-347.5,8z"/>
			<path class="st4" d="M-339.1,8c0,1.5-0.4,3.1-2.1,3.1c-1.6,0-2.1-1.5-2.1-3.1c0-1.5,0.5-3.1,2.1-3.1
				C-339.6,4.9-339.1,6.4-339.1,8z M-342.4,8c0,1.1,0.2,2.3,1.2,2.3c1,0,1.2-1.2,1.2-2.4c0-1.1-0.2-2.3-1.2-2.3
				C-342.1,5.7-342.4,6.7-342.4,8z"/>
			<path class="st4" d="M-330.3,8.4c0-1.1,0-2.3,0-3h0c-0.3,1.1-1.2,3.6-1.9,5.6h-0.8c-0.5-1.6-1.5-4.5-1.8-5.6h0
				c0,0.7,0.1,2.1,0.1,3.2V11h-0.9V4.7h1.4c0.7,1.9,1.5,4.3,1.7,5.1h0c0.1-0.6,1.1-3.3,1.8-5.1h1.3V11h-0.9V8.4z"/>
			<path class="st4" d="M-322.9,6.9v0.8h-4.9V6.9H-322.9z M-322.9,9.2v0.8h-4.9V9.2H-322.9z"/>
			<path class="st4" d="M-321.7,9.3c0-0.8,0.6-1.3,1.1-1.5c-0.5-0.3-0.8-0.7-0.8-1.3c0-0.9,0.7-1.6,1.9-1.6c1.1,0,1.8,0.7,1.8,1.6
				c0,0.6-0.3,1-0.8,1.2c0.5,0.2,1,0.7,1,1.5c0,1.1-0.9,1.8-2.2,1.8C-320.8,11.1-321.7,10.4-321.7,9.3z M-318.4,9.3
				c0-0.7-0.5-1.1-1.2-1.1c-0.8,0-1.2,0.5-1.2,1.1c0,0.6,0.5,1.1,1.2,1.1C-318.9,10.4-318.4,10-318.4,9.3z M-320.6,6.5
				c0,0.5,0.3,0.9,1,0.9c0.7,0,1-0.3,1-0.9c0-0.5-0.3-0.9-1-0.9C-320.3,5.7-320.6,6-320.6,6.5z"/>
			<path class="st4" d="M-316.7,11L-316.7,11c0-0.9,0.5-1.8,1.8-2.7c0.9-0.7,1.2-0.9,1.2-1.6c0-0.6-0.3-1-1-1c-0.7,0-1,0.4-1.1,1.1
				h-0.9c0.1-1,0.7-1.8,2-1.8c1.4,0,1.9,0.9,1.9,1.7c0,0.9-0.4,1.3-1.5,2.1c-0.8,0.6-1.2,1.1-1.3,1.5h3.1l-0.1,0.8H-316.7z"/>
			<path class="st4" d="M-307.9,11V8.7c0-0.1,0-0.1,0-0.2l-2.2-3.8h1.1c0.6,1,1.4,2.5,1.7,3.1c0.3-0.6,1.2-2.1,1.7-3.1h1l-2.3,3.8
				c0,0,0,0.1,0,0.2V11H-307.9z"/>
			<path class="st4" d="M-299,6.9v0.8h-4.9V6.9H-299z M-299,9.2v0.8h-4.9V9.2H-299z"/>
			<path class="st4" d="M-295.2,11V9.5h-2.8V8.7l2.7-3.6h1v3.7h0.8l-0.1,0.7h-0.7V11H-295.2z M-295.2,7.3c0-0.5,0-1,0-1.4
				c-0.2,0.5-1.3,2-1.9,2.8h1.9V7.3z"/>
			<path class="st4" d="M-289.2,5.8h-2.5c-0.1,0.4-0.2,1.3-0.2,1.6c0.2-0.3,0.6-0.4,1.2-0.4c1.1,0,1.8,0.8,1.8,2
				c0,1.2-0.6,2.2-2.1,2.2c-1.1,0-1.9-0.6-2-1.6h0.9c0.1,0.5,0.5,0.9,1.1,0.9c0.8,0,1.1-0.6,1.1-1.4c0-0.7-0.3-1.3-1.1-1.3
				c-0.7,0-1,0.3-1.2,0.7l-0.8-0.1c0.2-0.8,0.4-2.5,0.5-3.2h3.3L-289.2,5.8z"/>
			<path class="st4" d="M-285.4,4.7h0.9v3c0.5-0.5,2-2,2.9-3h1.1l-2.7,2.6l2.8,3.6h-1.1l-2.3-3l-0.8,0.7V11h-0.9V4.7z"/>
			<path class="st4" d="M-274.7,6.9v0.8h-4.9V6.9H-274.7z M-274.7,9.2v0.8h-4.9V9.2H-274.7z"/>
			<path class="st4" d="M-269.7,5.8h-2.5c-0.1,0.4-0.2,1.3-0.2,1.6c0.2-0.3,0.6-0.4,1.2-0.4c1.1,0,1.8,0.8,1.8,2
				c0,1.2-0.6,2.2-2.1,2.2c-1.1,0-1.9-0.6-2-1.6h0.9c0.1,0.5,0.5,0.9,1.1,0.9c0.8,0,1.1-0.6,1.1-1.4c0-0.7-0.3-1.3-1.1-1.3
				c-0.7,0-1,0.3-1.2,0.7l-0.8-0.1c0.2-0.8,0.4-2.5,0.5-3.2h3.3L-269.7,5.8z"/>
			<path class="st4" d="M-264.4,8c0,1.5-0.4,3.1-2.1,3.1c-1.6,0-2.1-1.5-2.1-3.1c0-1.5,0.5-3.1,2.1-3.1
				C-264.9,4.9-264.4,6.4-264.4,8z M-267.7,8c0,1.1,0.2,2.3,1.2,2.3c1,0,1.2-1.2,1.2-2.4c0-1.1-0.2-2.3-1.2-2.3
				C-267.4,5.7-267.7,6.7-267.7,8z"/>
			<path class="st4" d="M-363.1,19.1v2.7h-0.9v-6.3h2.5c1.3,0,2,0.7,2,1.7c0,0.8-0.5,1.3-1,1.5c0.5,0.1,0.9,0.5,0.9,1.6v0.3
				c0,0.4,0,1,0.1,1.2h-0.9c-0.1-0.3-0.1-0.8-0.1-1.4v-0.1c0-0.9-0.2-1.2-1.3-1.2H-363.1z M-363.1,18.3h1.3c0.9,0,1.3-0.3,1.3-1
				c0-0.6-0.4-1-1.2-1h-1.4V18.3z"/>
			<path class="st4" d="M-353.3,17.7v0.8h-4.9v-0.8H-353.3z M-353.3,20v0.8h-4.9V20H-353.3z"/>
			<path class="st4" d="M-347.9,18.8c0,1.5-0.4,3.1-2.1,3.1c-1.6,0-2.1-1.5-2.1-3.1c0-1.5,0.5-3.1,2.1-3.1
				C-348.4,15.7-347.9,17.2-347.9,18.8z M-351.2,18.8c0,1.1,0.2,2.3,1.2,2.3c1,0,1.2-1.2,1.2-2.4c0-1.1-0.2-2.3-1.2-2.3
				C-351,16.5-351.2,17.5-351.2,18.8z"/>
			<path class="st4" d="M-339.3,21.8h-0.7c0-0.1-0.1-0.4-0.1-0.8c-0.3,0.4-0.8,0.9-1.9,0.9c-1.8,0-2.8-1.4-2.8-3.1
				c0-1.9,1-3.3,2.9-3.3c1.5,0,2.4,0.8,2.6,1.9h-0.9c-0.2-0.6-0.7-1.2-1.7-1.2c-1.4,0-2,1.1-2,2.5c0,1.2,0.5,2.4,1.9,2.4
				c1.4,0,1.7-0.9,1.7-1.9v-0.1h-1.7v-0.8h2.6V21.8z"/>
			<path class="st4" d="M-332.9,17.7v0.8h-4.9v-0.8H-332.9z M-332.9,20v0.8h-4.9V20H-332.9z"/>
			<path class="st4" d="M-331.8,21.8L-331.8,21.8c0-0.9,0.5-1.8,1.8-2.7c0.9-0.7,1.2-0.9,1.2-1.6c0-0.6-0.3-1-1-1
				c-0.7,0-1,0.4-1.1,1.1h-0.9c0.1-1,0.7-1.8,2-1.8c1.4,0,1.9,0.9,1.9,1.7c0,0.9-0.4,1.3-1.5,2.1c-0.8,0.6-1.2,1.1-1.3,1.5h3.1
				l-0.1,0.8H-331.8z"/>
			<path class="st4" d="M-326.9,17.3c0.1-0.7,0.6-1.5,1.9-1.5c1.3,0,1.8,0.8,1.8,1.6c0,0.7-0.4,1.1-0.8,1.2v0c0.5,0.2,1,0.6,1,1.5
				c0,0.9-0.6,1.9-2.1,1.9c-1.4,0-2-0.9-2.1-1.7h0.9c0.1,0.5,0.5,0.9,1.2,0.9c0.8,0,1.1-0.5,1.1-1.1c0-0.7-0.4-1.1-1.2-1.1h-0.4
				v-0.7h0.4c0.7,0,1.1-0.3,1.1-0.9c0-0.5-0.3-0.9-1-0.9c-0.7,0-0.9,0.4-1,0.8H-326.9z"/>
			<path class="st4" d="M-319.4,15.5h2.5c1.4,0,2,0.7,2,1.6c0,0.7-0.4,1.2-0.9,1.4c0.4,0.1,1.1,0.6,1.1,1.5c0,1.2-0.9,1.8-2.1,1.8
				h-2.5V15.5z M-317.1,18.1c0.9,0,1.2-0.3,1.2-0.9c0-0.5-0.4-0.9-1.1-0.9h-1.5v1.8H-317.1z M-318.5,21h1.5c0.8,0,1.3-0.4,1.3-1.1
				c0-0.6-0.4-1.1-1.4-1.1h-1.4V21z"/>
			<path class="st4" d="M-308.7,17.7v0.8h-4.9v-0.8H-308.7z M-308.7,20v0.8h-4.9V20H-308.7z"/>
			<path class="st4" d="M-303.8,15.8v0.7c-1,1.4-2,3.5-2.3,5.2h-0.9c0.3-1.7,1.3-3.9,2.2-5.2h-3v-0.8H-303.8z"/>
			<path class="st4" d="M-299,18.8c0,1.5-0.4,3.1-2.1,3.1c-1.6,0-2.1-1.5-2.1-3.1c0-1.5,0.5-3.1,2.1-3.1
				C-299.4,15.7-299,17.2-299,18.8z M-302.2,18.8c0,1.1,0.2,2.3,1.2,2.3c1,0,1.2-1.2,1.2-2.4c0-1.1-0.2-2.3-1.2-2.3
				C-302,16.5-302.2,17.5-302.2,18.8z"/>
			<path class="st4" d="M-364.4,30.1h4.2v0.7h-4.2V30.1z M-362.6,26.5h0.6l-1.5,6.1h-0.7L-362.6,26.5z M-364,28.1h4.2l0,0.7h-4.2
				V28.1z M-360.8,26.5h0.6l-1.5,6.1h-0.7L-360.8,26.5z"/>
			<path class="st4" d="M-354.8,29.6c0,1.5-0.4,3.1-2.1,3.1c-1.6,0-2.1-1.5-2.1-3.1c0-1.5,0.5-3.1,2.1-3.1
				C-355.2,26.5-354.8,28-354.8,29.6z M-358,29.6c0,1.1,0.2,2.3,1.2,2.3c1,0,1.2-1.2,1.2-2.4c0-1.1-0.2-2.3-1.2-2.3
				C-357.8,27.3-358,28.3-358,29.6z"/>
			<path class="st4" d="M-349.7,29.6c0,1.5-0.4,3.1-2.1,3.1c-1.6,0-2.1-1.5-2.1-3.1c0-1.5,0.5-3.1,2.1-3.1
				C-350.2,26.5-349.7,28-349.7,29.6z M-353,29.6c0,1.1,0.2,2.3,1.2,2.3c1,0,1.2-1.2,1.2-2.4c0-1.1-0.2-2.3-1.2-2.3
				C-352.7,27.3-353,28.3-353,29.6z"/>
			<path class="st4" d="M-347.7,32.6v-4.9c-0.3,0.2-0.9,0.4-1.2,0.5v-0.7c0.5-0.1,1-0.5,1.4-0.8h0.7v5.9H-347.7z"/>
			<path class="st4" d="M-341.8,26.6v0.7c-1,1.4-2,3.5-2.3,5.2h-0.9c0.3-1.7,1.3-3.9,2.2-5.2h-3v-0.8H-341.8z"/>
			<path class="st4" d="M-338.5,32.6v-1.5h-2.8v-0.8l2.7-3.6h1v3.7h0.8l-0.1,0.7h-0.7v1.5H-338.5z M-338.5,28.9c0-0.5,0-1,0-1.4
				c-0.2,0.5-1.3,2-1.9,2.8h1.9V28.9z"/>
			<path class="st4" d="M-333.1,28c-0.1-0.4-0.4-0.7-1-0.7c-1,0-1.3,0.9-1.3,2.1c0.2-0.4,0.7-0.8,1.5-0.8c1.1,0,1.8,0.8,1.8,2
				c0,1.2-0.7,2.2-2,2.2c-1.6,0-2.1-1.3-2.1-3c0-1.6,0.5-3.1,2.2-3.1c1.2,0,1.7,0.8,1.8,1.4H-333.1z M-333,30.6
				c0-0.6-0.2-1.3-1.1-1.3c-0.7,0-1.2,0.4-1.2,1.3c0,0.5,0.2,1.4,1.2,1.4C-333.3,31.9-333,31.3-333,30.6z"/>
		</g>
	</g>
</g>
<path class="st5" d="M-385.2,436.2h-29.4c-6.6,0-12-5.4-12-12v-29.4c0-6.6,5.4-12,12-12h29.4c6.6,0,12,5.4,12,12v29.4
	C-373.2,430.8-378.6,436.2-385.2,436.2z"/>
<g>
	<g>
		<path class="st5" d="M-357.1,399.4c-0.3,1.1-1.1,1.9-2.5,1.9c-1.9,0-2.8-1.4-2.8-3.2c0-1.7,0.9-3.2,2.9-3.2c1.5,0,2.3,0.9,2.5,1.9
			h-0.9c-0.2-0.6-0.6-1.2-1.6-1.2c-1.3,0-1.9,1.2-1.9,2.4c0,1.2,0.5,2.5,1.9,2.5c0.9,0,1.3-0.6,1.6-1.1H-357.1z"/>
		<path class="st5" d="M-351,397.2v0.8h-4.9v-0.8H-351z M-351,399.4v0.8h-4.9v-0.8H-351z"/>
		<path class="st5" d="M-345.6,398.2c0,1.5-0.4,3.1-2.1,3.1c-1.6,0-2.1-1.5-2.1-3.1c0-1.5,0.5-3.1,2.1-3.1
			C-346.1,395.2-345.6,396.7-345.6,398.2z M-348.9,398.3c0,1.1,0.2,2.3,1.2,2.3c1,0,1.2-1.2,1.2-2.4c0-1.1-0.2-2.3-1.2-2.3
			C-348.7,395.9-348.9,397-348.9,398.3z"/>
		<path class="st5" d="M-336.8,398.6c0-1.1,0-2.3,0-3h0c-0.3,1.1-1.2,3.6-1.9,5.6h-0.8c-0.5-1.6-1.5-4.5-1.8-5.6h0
			c0,0.7,0.1,2.1,0.1,3.2v2.4h-0.9V395h1.4c0.7,1.9,1.5,4.3,1.7,5.1h0c0.1-0.6,1.1-3.3,1.8-5.1h1.3v6.3h-0.9V398.6z"/>
		<path class="st5" d="M-329.4,397.2v0.8h-4.9v-0.8H-329.4z M-329.4,399.4v0.8h-4.9v-0.8H-329.4z"/>
		<path class="st5" d="M-324,398.2c0,1.5-0.4,3.1-2.1,3.1c-1.6,0-2.1-1.5-2.1-3.1c0-1.5,0.5-3.1,2.1-3.1
			C-324.5,395.2-324,396.7-324,398.2z M-327.3,398.3c0,1.1,0.2,2.3,1.2,2.3c1,0,1.2-1.2,1.2-2.4c0-1.1-0.2-2.3-1.2-2.3
			C-327.1,395.9-327.3,397-327.3,398.3z"/>
		<path class="st5" d="M-319.2,401.2v-2.3c0-0.1,0-0.1,0-0.2l-2.2-3.8h1.1c0.6,1,1.4,2.5,1.7,3.1c0.3-0.6,1.2-2.1,1.7-3.1h1
			l-2.3,3.8c0,0,0,0.1,0,0.2v2.3H-319.2z"/>
		<path class="st5" d="M-310.3,397.2v0.8h-4.9v-0.8H-310.3z M-310.3,399.4v0.8h-4.9v-0.8H-310.3z"/>
		<path class="st5" d="M-304.9,398.2c0,1.5-0.4,3.1-2.1,3.1c-1.6,0-2.1-1.5-2.1-3.1c0-1.5,0.5-3.1,2.1-3.1
			C-305.4,395.2-304.9,396.7-304.9,398.2z M-308.2,398.3c0,1.1,0.2,2.3,1.2,2.3c1,0,1.2-1.2,1.2-2.4c0-1.1-0.2-2.3-1.2-2.3
			C-308,395.9-308.2,397-308.2,398.3z"/>
		<path class="st5" d="M-301.4,395h0.9v3c0.5-0.5,2-2,2.9-3h1.1l-2.7,2.6l2.8,3.6h-1.1l-2.3-3l-0.8,0.7v2.3h-0.9V395z"/>
		<path class="st5" d="M-290.7,397.2v0.8h-4.9v-0.8H-290.7z M-290.7,399.4v0.8h-4.9v-0.8H-290.7z"/>
		<path class="st5" d="M-289.6,401.2L-289.6,401.2c0-0.9,0.5-1.8,1.8-2.7c0.9-0.7,1.2-0.9,1.2-1.6c0-0.6-0.3-1-1-1
			c-0.7,0-1,0.4-1.1,1.1h-0.9c0.1-1,0.7-1.8,2-1.8c1.4,0,1.9,0.9,1.9,1.7c0,0.9-0.4,1.3-1.5,2.1c-0.8,0.6-1.2,1.1-1.3,1.5h3.1
			l-0.1,0.8H-289.6z"/>
		<path class="st5" d="M-280.6,398.2c0,1.5-0.4,3.1-2.1,3.1c-1.6,0-2.1-1.5-2.1-3.1c0-1.5,0.5-3.1,2.1-3.1
			C-281,395.2-280.6,396.7-280.6,398.2z M-283.8,398.3c0,1.1,0.2,2.3,1.2,2.3c1,0,1.2-1.2,1.2-2.4c0-1.1-0.2-2.3-1.2-2.3
			C-283.6,395.9-283.8,397-283.8,398.3z"/>
		<path class="st5" d="M-361.2,409.3v2.7h-0.9v-6.3h2.5c1.3,0,2,0.7,2,1.7c0,0.8-0.5,1.3-1,1.5c0.5,0.1,0.9,0.5,0.9,1.6v0.3
			c0,0.4,0,1,0.1,1.2h-0.9c-0.1-0.3-0.1-0.8-0.1-1.4v-0.1c0-0.9-0.2-1.2-1.3-1.2H-361.2z M-361.2,408.5h1.3c0.9,0,1.3-0.3,1.3-1
			c0-0.6-0.4-1-1.2-1h-1.4V408.5z"/>
		<path class="st5" d="M-351.4,408v0.8h-4.9V408H-351.4z M-351.4,410.2v0.8h-4.9v-0.8H-351.4z"/>
		<path class="st5" d="M-349.1,412v-4.9c-0.3,0.2-0.9,0.4-1.2,0.5v-0.7c0.5-0.1,1-0.5,1.4-0.8h0.7v5.9H-349.1z"/>
		<path class="st5" d="M-342.7,409c0,1.5-0.4,3.1-2.1,3.1c-1.6,0-2.1-1.5-2.1-3.1c0-1.5,0.5-3.1,2.1-3.1
			C-343.2,406-342.7,407.5-342.7,409z M-346,409.1c0,1.1,0.2,2.3,1.2,2.3c1,0,1.2-1.2,1.2-2.4c0-1.1-0.2-2.3-1.2-2.3
			C-345.8,406.7-346,407.8-346,409.1z"/>
		<path class="st5" d="M-341.9,412L-341.9,412c0-0.9,0.5-1.8,1.8-2.7c0.9-0.7,1.2-0.9,1.2-1.6c0-0.6-0.3-1-1-1c-0.7,0-1,0.4-1.1,1.1
			h-0.9c0.1-1,0.7-1.8,2-1.8c1.4,0,1.9,0.9,1.9,1.7c0,0.9-0.4,1.3-1.5,2.1c-0.8,0.6-1.2,1.1-1.3,1.5h3.1l-0.1,0.8H-341.9z"/>
		<path class="st5" d="M-329.3,412h-0.7c0-0.1-0.1-0.4-0.1-0.8c-0.3,0.4-0.8,0.9-1.9,0.9c-1.8,0-2.8-1.4-2.8-3.1
			c0-1.9,1-3.3,2.9-3.3c1.5,0,2.4,0.8,2.6,1.9h-0.9c-0.2-0.6-0.7-1.2-1.7-1.2c-1.4,0-2,1.1-2,2.5c0,1.2,0.5,2.4,1.9,2.4
			c1.4,0,1.7-0.9,1.7-1.9v-0.1h-1.7v-0.8h2.6V412z"/>
		<path class="st5" d="M-322.9,408v0.8h-4.9V408H-322.9z M-322.9,410.2v0.8h-4.9v-0.8H-322.9z"/>
		<path class="st5" d="M-321.8,412L-321.8,412c0-0.9,0.5-1.8,1.8-2.7c0.9-0.7,1.2-0.9,1.2-1.6c0-0.6-0.3-1-1-1c-0.7,0-1,0.4-1.1,1.1
			h-0.9c0.1-1,0.7-1.8,2-1.8c1.4,0,1.9,0.9,1.9,1.7c0,0.9-0.4,1.3-1.5,2.1c-0.8,0.6-1.2,1.1-1.3,1.5h3.1l-0.1,0.8H-321.8z"/>
		<path class="st5" d="M-312.8,409c0,1.5-0.4,3.1-2.1,3.1c-1.6,0-2.1-1.5-2.1-3.1c0-1.5,0.5-3.1,2.1-3.1
			C-313.3,406-312.8,407.5-312.8,409z M-316.1,409.1c0,1.1,0.2,2.3,1.2,2.3c1,0,1.2-1.2,1.2-2.4c0-1.1-0.2-2.3-1.2-2.3
			C-315.8,406.7-316.1,407.8-316.1,409.1z"/>
		<path class="st5" d="M-308.1,406.9h-2.5c-0.1,0.4-0.2,1.3-0.2,1.6c0.2-0.3,0.6-0.4,1.2-0.4c1.1,0,1.8,0.8,1.8,2
			c0,1.2-0.6,2.2-2.1,2.2c-1.1,0-1.9-0.6-2-1.6h0.9c0.1,0.5,0.5,0.9,1.1,0.9c0.8,0,1.1-0.6,1.1-1.4c0-0.7-0.3-1.3-1.1-1.3
			c-0.7,0-1,0.3-1.2,0.7l-0.8-0.1c0.2-0.8,0.4-2.5,0.5-3.2h3.3L-308.1,406.9z"/>
		<path class="st5" d="M-304.3,405.8h2.5c1.4,0,2,0.7,2,1.6c0,0.7-0.4,1.2-0.9,1.4c0.4,0.1,1.1,0.6,1.1,1.5c0,1.2-0.9,1.8-2.1,1.8
			h-2.5V405.8z M-302,408.3c0.9,0,1.2-0.3,1.2-0.9c0-0.5-0.4-0.9-1.1-0.9h-1.5v1.8H-302z M-303.4,411.3h1.5c0.8,0,1.3-0.4,1.3-1.1
			c0-0.6-0.4-1.1-1.4-1.1h-1.4V411.3z"/>
		<path class="st5" d="M-293.6,408v0.8h-4.9V408H-293.6z M-293.6,410.2v0.8h-4.9v-0.8H-293.6z"/>
		<path class="st5" d="M-292.5,412L-292.5,412c0-0.9,0.5-1.8,1.8-2.7c0.9-0.7,1.2-0.9,1.2-1.6c0-0.6-0.3-1-1-1c-0.7,0-1,0.4-1.1,1.1
			h-0.9c0.1-1,0.7-1.8,2-1.8c1.4,0,1.9,0.9,1.9,1.7c0,0.9-0.4,1.3-1.5,2.1c-0.8,0.6-1.2,1.1-1.3,1.5h3.1l-0.1,0.8H-292.5z"/>
		<path class="st5" d="M-283.4,409c0,1.5-0.4,3.1-2.1,3.1c-1.6,0-2.1-1.5-2.1-3.1c0-1.5,0.5-3.1,2.1-3.1
			C-283.9,406-283.4,407.5-283.4,409z M-286.7,409.1c0,1.1,0.2,2.3,1.2,2.3c1,0,1.2-1.2,1.2-2.4c0-1.1-0.2-2.3-1.2-2.3
			C-286.5,406.7-286.7,407.8-286.7,409.1z"/>
		<path class="st5" d="M-278.7,406.9h-2.5c-0.1,0.4-0.2,1.3-0.2,1.6c0.2-0.3,0.6-0.4,1.2-0.4c1.1,0,1.8,0.8,1.8,2
			c0,1.2-0.6,2.2-2.1,2.2c-1.1,0-1.9-0.6-2-1.6h0.9c0.1,0.5,0.5,0.9,1.1,0.9c0.8,0,1.1-0.6,1.1-1.4c0-0.7-0.3-1.3-1.1-1.3
			c-0.7,0-1,0.3-1.2,0.7l-0.8-0.1c0.2-0.8,0.4-2.5,0.5-3.2h3.3L-278.7,406.9z"/>
		<path class="st5" d="M-362.5,420.4h4.2v0.7h-4.2V420.4z M-360.7,416.8h0.6l-1.5,6.1h-0.7L-360.7,416.8z M-362.1,418.3h4.2l0,0.7
			h-4.2V418.3z M-358.9,416.8h0.6l-1.5,6.1h-0.7L-358.9,416.8z"/>
		<path class="st5" d="M-351.7,421c-0.3,1.1-1.1,1.9-2.5,1.9c-1.9,0-2.8-1.4-2.8-3.2c0-1.7,0.9-3.2,2.9-3.2c1.5,0,2.3,0.9,2.5,1.9
			h-0.9c-0.2-0.6-0.6-1.2-1.6-1.2c-1.3,0-1.9,1.2-1.9,2.4c0,1.2,0.5,2.5,1.9,2.5c0.9,0,1.3-0.6,1.6-1.1H-351.7z"/>
		<path class="st5" d="M-350.5,416.6h2.3c1.8,0,3,1.2,3,3.1c0,1.8-1.2,3.2-3,3.2h-2.2V416.6z M-349.6,422h1.3c1.4,0,2.1-1,2.1-2.4
			c0-1.2-0.6-2.3-2.1-2.3h-1.3V422z"/>
		<path class="st5" d="M-339,421c-0.3,1.1-1.1,1.9-2.5,1.9c-1.9,0-2.8-1.4-2.8-3.2c0-1.7,0.9-3.2,2.9-3.2c1.5,0,2.3,0.9,2.5,1.9
			h-0.9c-0.2-0.6-0.6-1.2-1.6-1.2c-1.3,0-1.9,1.2-1.9,2.4c0,1.2,0.5,2.5,1.9,2.5c0.9,0,1.3-0.6,1.6-1.1H-339z"/>
		<path class="st5" d="M-337.8,416.6h2.3c1.8,0,3,1.2,3,3.1c0,1.8-1.2,3.2-3,3.2h-2.2V416.6z M-336.8,422h1.3c1.4,0,2.1-1,2.1-2.4
			c0-1.2-0.6-2.3-2.1-2.3h-1.3V422z"/>
		<path class="st5" d="M-326.2,421c-0.3,1.1-1.1,1.9-2.5,1.9c-1.9,0-2.8-1.4-2.8-3.2c0-1.7,0.9-3.2,2.9-3.2c1.5,0,2.3,0.9,2.5,1.9
			h-0.9c-0.2-0.6-0.6-1.2-1.6-1.2c-1.3,0-1.9,1.2-1.9,2.4c0,1.2,0.5,2.5,1.9,2.5c0.9,0,1.3-0.6,1.6-1.1H-326.2z"/>
		<path class="st5" d="M-325,416.6h2.3c1.8,0,3,1.2,3,3.1c0,1.8-1.2,3.2-3,3.2h-2.2V416.6z M-324.1,422h1.3c1.4,0,2.1-1,2.1-2.4
			c0-1.2-0.6-2.3-2.1-2.3h-1.3V422z"/>
	</g>
</g>
<path class="st6" d="M-385.5,283.1h-29.4c-6.6,0-12-5.4-12-12v-29.4c0-6.6,5.4-12,12-12h29.4c6.6,0,12,5.4,12,12v29.4
	C-373.5,277.7-378.9,283.1-385.5,283.1z"/>
<g>
	<g>
		<g>
			<path class="st6" d="M-358,247c-0.3,1.1-1.1,1.9-2.5,1.9c-1.9,0-2.8-1.4-2.8-3.2c0-1.7,0.9-3.2,2.9-3.2c1.5,0,2.3,0.9,2.5,1.9
				h-0.9c-0.2-0.6-0.6-1.2-1.6-1.2c-1.3,0-1.9,1.2-1.9,2.4c0,1.2,0.5,2.5,1.9,2.5c0.9,0,1.3-0.6,1.6-1.1H-358z"/>
			<path class="st6" d="M-352,244.7v0.8h-4.9v-0.8H-352z M-352,247v0.8h-4.9V247H-352z"/>
			<path class="st6" d="M-349.9,247.5c0.2,0.5,0.4,0.7,1,0.7c1.1,0,1.2-1.5,1.2-2.2c-0.3,0.5-0.8,0.7-1.4,0.7
				c-1.1,0-1.8-0.8-1.8-1.9c0-1.1,0.7-2,2-2c1.5,0,2.1,1.2,2.1,2.7c0,1.6-0.3,3.4-2.1,3.4c-1.2,0-1.7-0.7-1.9-1.4H-349.9z
				 M-349.9,244.7c0,0.7,0.4,1.2,1.1,1.2c0.8,0,1.1-0.4,1.1-1.2c0-0.4-0.1-1.3-1.1-1.3C-349.6,243.5-349.9,244-349.9,244.7z"/>
			<path class="st6" d="M-344.7,248.8v-4.9c-0.3,0.2-0.9,0.4-1.2,0.5v-0.7c0.5-0.1,1-0.5,1.4-0.8h0.7v5.9H-344.7z"/>
			<path class="st6" d="M-334.6,246.2c0-1.1,0-2.3,0-3h0c-0.3,1.1-1.2,3.6-1.9,5.6h-0.8c-0.5-1.6-1.5-4.5-1.8-5.6h0
				c0,0.7,0.1,2.1,0.1,3.2v2.4h-0.9v-6.3h1.4c0.7,1.9,1.5,4.3,1.7,5.1h0c0.1-0.6,1.1-3.3,1.8-5.1h1.3v6.3h-0.9V246.2z"/>
			<path class="st6" d="M-327.2,244.7v0.8h-4.9v-0.8H-327.2z M-327.2,247v0.8h-4.9V247H-327.2z"/>
			<path class="st6" d="M-321.8,245.8c0,1.5-0.4,3.1-2.1,3.1c-1.6,0-2.1-1.5-2.1-3.1c0-1.5,0.5-3.1,2.1-3.1
				C-322.3,242.8-321.8,244.2-321.8,245.8z M-325.1,245.8c0,1.1,0.2,2.3,1.2,2.3c1,0,1.2-1.2,1.2-2.4c0-1.1-0.2-2.3-1.2-2.3
				C-324.9,243.5-325.1,244.5-325.1,245.8z"/>
			<path class="st6" d="M-316.9,248.8v-2.3c0-0.1,0-0.1,0-0.2l-2.2-3.8h1.1c0.6,1,1.4,2.5,1.7,3.1c0.3-0.6,1.2-2.1,1.7-3.1h1
				l-2.3,3.8c0,0,0,0.1,0,0.2v2.3H-316.9z"/>
			<path class="st6" d="M-308.1,244.7v0.8h-4.9v-0.8H-308.1z M-308.1,247v0.8h-4.9V247H-308.1z"/>
			<path class="st6" d="M-304.2,248.8v-1.5h-2.8v-0.8l2.7-3.6h1v3.7h0.8l-0.1,0.7h-0.7v1.5H-304.2z M-304.2,245.1c0-0.5,0-1,0-1.4
				c-0.2,0.5-1.3,2-1.9,2.8h1.9V245.1z"/>
			<path class="st6" d="M-298.3,242.9v0.7c-1,1.4-2,3.5-2.3,5.2h-0.9c0.3-1.7,1.3-3.9,2.2-5.2h-3v-0.8H-298.3z"/>
			<path class="st6" d="M-295.1,242.5h0.9v3c0.5-0.5,2-2,2.9-3h1.1l-2.7,2.6l2.8,3.6h-1.1l-2.3-3l-0.8,0.7v2.3h-0.9V242.5z"/>
			<path class="st6" d="M-284.4,244.7v0.8h-4.9v-0.8H-284.4z M-284.4,247v0.8h-4.9V247H-284.4z"/>
			<path class="st6" d="M-280.6,248.8v-1.5h-2.8v-0.8l2.7-3.6h1v3.7h0.8l-0.1,0.7h-0.7v1.5H-280.6z M-280.6,245.1c0-0.5,0-1,0-1.4
				c-0.2,0.5-1.3,2-1.9,2.8h1.9V245.1z"/>
			<path class="st6" d="M-275.2,244.2c-0.1-0.4-0.4-0.7-1-0.7c-1,0-1.3,0.9-1.3,2.1c0.2-0.4,0.7-0.8,1.5-0.8c1.1,0,1.8,0.8,1.8,2
				c0,1.2-0.7,2.2-2,2.2c-1.6,0-2.1-1.3-2.1-3c0-1.6,0.5-3.1,2.2-3.1c1.2,0,1.7,0.8,1.8,1.4H-275.2z M-275,246.8
				c0-0.6-0.2-1.3-1.1-1.3c-0.7,0-1.2,0.4-1.2,1.3c0,0.5,0.2,1.4,1.2,1.4C-275.4,248.2-275,247.5-275,246.8z"/>
			<path class="st6" d="M-362.1,256.9v2.7h-0.9v-6.3h2.5c1.3,0,2,0.7,2,1.7c0,0.8-0.5,1.3-1,1.5c0.5,0.1,0.9,0.5,0.9,1.6v0.3
				c0,0.4,0,1,0.1,1.2h-0.9c-0.1-0.3-0.1-0.8-0.1-1.4v-0.1c0-0.9-0.2-1.2-1.3-1.2H-362.1z M-362.1,256.1h1.3c0.9,0,1.3-0.3,1.3-1
				c0-0.6-0.4-1-1.2-1h-1.4V256.1z"/>
			<path class="st6" d="M-352.4,255.5v0.8h-4.9v-0.8H-352.4z M-352.4,257.8v0.8h-4.9v-0.8H-352.4z"/>
			<path class="st6" d="M-350.1,259.6v-4.9c-0.3,0.2-0.9,0.4-1.2,0.5v-0.7c0.5-0.1,1-0.5,1.4-0.8h0.7v5.9H-350.1z"/>
			<path class="st6" d="M-347.8,255.1c0.1-0.7,0.6-1.5,1.9-1.5c1.3,0,1.8,0.8,1.8,1.6c0,0.7-0.4,1.1-0.8,1.2v0c0.5,0.2,1,0.6,1,1.5
				c0,0.9-0.6,1.9-2.1,1.9c-1.4,0-2-0.9-2.1-1.7h0.9c0.1,0.5,0.5,0.9,1.2,0.9c0.8,0,1.1-0.5,1.1-1.1c0-0.7-0.4-1.1-1.2-1.1h-0.4V256
				h0.4c0.7,0,1.1-0.3,1.1-0.9c0-0.5-0.3-0.9-1-0.9c-0.7,0-0.9,0.4-1,0.8H-347.8z"/>
			<path class="st6" d="M-335.1,259.6h-0.7c0-0.1-0.1-0.4-0.1-0.8c-0.3,0.4-0.8,0.9-1.9,0.9c-1.8,0-2.8-1.4-2.8-3.1
				c0-1.9,1-3.3,2.9-3.3c1.5,0,2.4,0.8,2.6,1.9h-0.9c-0.2-0.6-0.7-1.2-1.7-1.2c-1.4,0-2,1.1-2,2.5c0,1.2,0.5,2.4,1.9,2.4
				c1.4,0,1.7-0.9,1.7-1.9V257h-1.7v-0.8h2.6V259.6z"/>
			<path class="st6" d="M-328.8,255.5v0.8h-4.9v-0.8H-328.8z M-328.8,257.8v0.8h-4.9v-0.8H-328.8z"/>
			<path class="st6" d="M-326.5,259.6v-4.9c-0.3,0.2-0.9,0.4-1.2,0.5v-0.7c0.5-0.1,1-0.5,1.4-0.8h0.7v5.9H-326.5z"/>
			<path class="st6" d="M-324.2,255.1c0.1-0.7,0.6-1.5,1.9-1.5c1.3,0,1.8,0.8,1.8,1.6c0,0.7-0.4,1.1-0.8,1.2v0c0.5,0.2,1,0.6,1,1.5
				c0,0.9-0.6,1.9-2.1,1.9c-1.4,0-2-0.9-2.1-1.7h0.9c0.1,0.5,0.5,0.9,1.2,0.9c0.8,0,1.1-0.5,1.1-1.1c0-0.7-0.4-1.1-1.2-1.1h-0.4V256
				h0.4c0.7,0,1.1-0.3,1.1-0.9c0-0.5-0.3-0.9-1-0.9c-0.7,0-0.9,0.4-1,0.8H-324.2z"/>
			<path class="st6" d="M-315.6,253.7v0.7c-1,1.4-2,3.5-2.3,5.2h-0.9c0.3-1.7,1.3-3.9,2.2-5.2h-3v-0.8H-315.6z"/>
			<path class="st6" d="M-312.4,253.3h2.5c1.4,0,2,0.7,2,1.6c0,0.7-0.4,1.2-0.9,1.4c0.4,0.1,1.1,0.6,1.1,1.5c0,1.2-0.9,1.8-2.1,1.8
				h-2.5V253.3z M-310.1,255.9c0.9,0,1.2-0.3,1.2-0.9c0-0.5-0.4-0.9-1.1-0.9h-1.5v1.8H-310.1z M-311.5,258.8h1.5
				c0.8,0,1.3-0.4,1.3-1.1c0-0.6-0.4-1.1-1.4-1.1h-1.4V258.8z"/>
			<path class="st6" d="M-301.6,255.5v0.8h-4.9v-0.8H-301.6z M-301.6,257.8v0.8h-4.9v-0.8H-301.6z"/>
			<path class="st6" d="M-296.8,253.7v0.7c-1,1.4-2,3.5-2.3,5.2h-0.9c0.3-1.7,1.3-3.9,2.2-5.2h-3v-0.8H-296.8z"/>
			<path class="st6" d="M-296,255.1c0.1-0.7,0.6-1.5,1.9-1.5c1.3,0,1.8,0.8,1.8,1.6c0,0.7-0.4,1.1-0.8,1.2v0c0.5,0.2,1,0.6,1,1.5
				c0,0.9-0.6,1.9-2.1,1.9c-1.4,0-2-0.9-2.1-1.7h0.9c0.1,0.5,0.5,0.9,1.2,0.9c0.8,0,1.1-0.5,1.1-1.1c0-0.7-0.4-1.1-1.2-1.1h-0.4V256
				h0.4c0.7,0,1.1-0.3,1.1-0.9c0-0.5-0.3-0.9-1-0.9c-0.7,0-0.9,0.4-1,0.8H-296z"/>
			<path class="st6" d="M-363.5,267.9h4.2v0.7h-4.2V267.9z M-361.7,264.3h0.6l-1.5,6.1h-0.7L-361.7,264.3z M-363,265.9h4.2l0,0.7
				h-4.2V265.9z M-359.9,264.3h0.6l-1.5,6.1h-0.7L-359.9,264.3z"/>
			<path class="st6" d="M-353.8,267.4c0,1.5-0.4,3.1-2.1,3.1c-1.6,0-2.1-1.5-2.1-3.1c0-1.5,0.5-3.1,2.1-3.1
				C-354.3,264.4-353.8,265.8-353.8,267.4z M-357.1,267.4c0,1.1,0.2,2.3,1.2,2.3c1,0,1.2-1.2,1.2-2.4c0-1.1-0.2-2.3-1.2-2.3
				C-356.9,265.1-357.1,266.1-357.1,267.4z"/>
			<path class="st6" d="M-348.8,263.8v5.3c0,0.4,0,0.9,0,1.3h-0.8c0-0.1,0-0.5,0-0.6c-0.2,0.5-0.7,0.7-1.4,0.7c-1.2,0-1.9-1-1.9-2.4
				c0-1.4,0.8-2.4,2.1-2.4c0.8,0,1.1,0.3,1.3,0.6v-2.5H-348.8z M-352.1,268.1c0,1.1,0.5,1.6,1.2,1.6c1,0,1.2-0.8,1.2-1.7
				c0-1-0.2-1.6-1.2-1.6C-351.7,266.4-352.1,267-352.1,268.1z"/>
			<path class="st6" d="M-347.8,268.7c0-0.8,0.6-1.3,1.1-1.5c-0.5-0.3-0.8-0.7-0.8-1.3c0-0.9,0.7-1.6,1.9-1.6c1.1,0,1.8,0.7,1.8,1.6
				c0,0.6-0.3,1-0.8,1.2c0.5,0.2,1,0.7,1,1.5c0,1.1-0.9,1.8-2.2,1.8C-346.9,270.5-347.8,269.8-347.8,268.7z M-344.5,268.7
				c0-0.7-0.5-1.1-1.2-1.1c-0.8,0-1.2,0.5-1.2,1.1c0,0.6,0.5,1.1,1.2,1.1C-345,269.8-344.5,269.4-344.5,268.7z M-346.7,266
				c0,0.5,0.3,0.9,1,0.9c0.7,0,1-0.3,1-0.9c0-0.5-0.3-0.9-1-0.9C-346.4,265.1-346.7,265.4-346.7,266z"/>
			<path class="st6" d="M-341.8,269.1c0.2,0.5,0.4,0.7,1,0.7c1.1,0,1.2-1.5,1.2-2.2c-0.3,0.5-0.8,0.7-1.4,0.7
				c-1.1,0-1.8-0.8-1.8-1.9c0-1.1,0.7-2,2-2c1.5,0,2.1,1.2,2.1,2.7c0,1.6-0.3,3.4-2.1,3.4c-1.2,0-1.7-0.7-1.9-1.4H-341.8z
				 M-341.9,266.3c0,0.7,0.4,1.2,1.1,1.2c0.8,0,1.1-0.4,1.1-1.2c0-0.4-0.1-1.3-1.1-1.3C-341.5,265.1-341.9,265.6-341.9,266.3z"/>
			<path class="st6" d="M-335.2,270.4v-1.5h-2.8v-0.8l2.7-3.6h1v3.7h0.8l-0.1,0.7h-0.7v1.5H-335.2z M-335.2,266.7c0-0.5,0-1,0-1.4
				c-0.2,0.5-1.3,2-1.9,2.8h1.9V266.7z"/>
			<path class="st6" d="M-332,269.1c0.2,0.5,0.4,0.7,1,0.7c1.1,0,1.2-1.5,1.2-2.2c-0.3,0.5-0.8,0.7-1.4,0.7c-1.1,0-1.8-0.8-1.8-1.9
				c0-1.1,0.7-2,2-2c1.5,0,2.1,1.2,2.1,2.7c0,1.6-0.3,3.4-2.1,3.4c-1.2,0-1.7-0.7-1.9-1.4H-332z M-332.1,266.3
				c0,0.7,0.4,1.2,1.1,1.2c0.8,0,1.1-0.4,1.1-1.2c0-0.4-0.1-1.3-1.1-1.3C-331.7,265.1-332.1,265.6-332.1,266.3z"/>
		</g>
	</g>
</g>
<path class="st7" d="M-384.1,119.2h-29.4c-6.6,0-12-5.4-12-12V77.8c0-6.6,5.4-12,12-12h29.4c6.6,0,12,5.4,12,12v29.4
	C-372.1,113.8-377.5,119.2-384.1,119.2z"/>
<g>
	<g>
		<g>
			<path class="st7" d="M-358,83.3c-0.3,1.1-1.1,1.9-2.5,1.9c-1.9,0-2.8-1.4-2.8-3.2c0-1.7,0.9-3.2,2.9-3.2c1.5,0,2.3,0.9,2.5,1.9
				h-0.9c-0.2-0.6-0.6-1.2-1.6-1.2c-1.3,0-1.9,1.2-1.9,2.4c0,1.2,0.5,2.5,1.9,2.5c0.9,0,1.3-0.6,1.6-1.1H-358z"/>
			<path class="st7" d="M-352,81v0.8h-4.9V81H-352z M-352,83.3V84h-4.9v-0.8H-352z"/>
			<path class="st7" d="M-347,79.9h-2.5c-0.1,0.4-0.2,1.3-0.2,1.6c0.2-0.3,0.6-0.4,1.2-0.4c1.1,0,1.8,0.8,1.8,2
				c0,1.2-0.6,2.2-2.1,2.2c-1.1,0-1.9-0.6-2-1.6h0.9c0.1,0.5,0.5,0.9,1.1,0.9c0.8,0,1.1-0.6,1.1-1.4c0-0.7-0.3-1.3-1.1-1.3
				c-0.7,0-1,0.3-1.2,0.7l-0.8-0.1c0.2-0.8,0.4-2.5,0.5-3.2h3.3L-347,79.9z"/>
			<path class="st7" d="M-342.2,79.2v0.7c-1,1.4-2,3.5-2.3,5.2h-0.9c0.3-1.7,1.3-3.9,2.2-5.2h-3v-0.8H-342.2z"/>
			<path class="st7" d="M-333.6,82.5c0-1.1,0-2.3,0-3h0c-0.3,1.1-1.2,3.6-1.9,5.6h-0.8c-0.5-1.6-1.5-4.5-1.8-5.6h0
				c0,0.7,0.1,2.1,0.1,3.2v2.4h-0.9v-6.3h1.4c0.7,1.9,1.5,4.3,1.7,5.1h0c0.1-0.6,1.1-3.3,1.8-5.1h1.3v6.3h-0.9V82.5z"/>
			<path class="st7" d="M-326.2,81v0.8h-4.9V81H-326.2z M-326.2,83.3V84h-4.9v-0.8H-326.2z"/>
			<path class="st7" d="M-325.1,85.1L-325.1,85.1c0-0.9,0.5-1.8,1.8-2.7c0.9-0.7,1.2-0.9,1.2-1.6c0-0.6-0.3-1-1-1
				c-0.7,0-1,0.4-1.1,1.1h-0.9c0.1-1,0.7-1.8,2-1.8c1.4,0,1.9,0.9,1.9,1.7c0,0.9-0.4,1.3-1.5,2.1c-0.8,0.6-1.2,1.1-1.3,1.5h3.1
				l-0.1,0.8H-325.1z"/>
			<path class="st7" d="M-316,82.1c0,1.5-0.4,3.1-2.1,3.1c-1.6,0-2.1-1.5-2.1-3.1c0-1.5,0.5-3.1,2.1-3.1
				C-316.5,79-316,80.5-316,82.1z M-319.3,82.1c0,1.1,0.2,2.3,1.2,2.3c1,0,1.2-1.2,1.2-2.4c0-1.1-0.2-2.3-1.2-2.3
				C-319.1,79.8-319.3,80.8-319.3,82.1z"/>
			<path class="st7" d="M-311.2,85.1v-2.3c0-0.1,0-0.1,0-0.2l-2.2-3.8h1.1c0.6,1,1.4,2.5,1.7,3.1c0.3-0.6,1.2-2.1,1.7-3.1h1
				l-2.3,3.8c0,0,0,0.1,0,0.2v2.3H-311.2z"/>
			<path class="st7" d="M-302.3,81v0.8h-4.9V81H-302.3z M-302.3,83.3V84h-4.9v-0.8H-302.3z"/>
			<path class="st7" d="M-296.9,82.1c0,1.5-0.4,3.1-2.1,3.1c-1.6,0-2.1-1.5-2.1-3.1c0-1.5,0.5-3.1,2.1-3.1
				C-297.4,79-296.9,80.5-296.9,82.1z M-300.2,82.1c0,1.1,0.2,2.3,1.2,2.3c1,0,1.2-1.2,1.2-2.4c0-1.1-0.2-2.3-1.2-2.3
				C-300,79.8-300.2,80.8-300.2,82.1z"/>
			<path class="st7" d="M-293.4,78.8h0.9v3c0.5-0.5,2-2,2.9-3h1.1l-2.7,2.6l2.8,3.6h-1.1l-2.3-3l-0.8,0.7v2.3h-0.9V78.8z"/>
			<path class="st7" d="M-282.7,81v0.8h-4.9V81H-282.7z M-282.7,83.3V84h-4.9v-0.8H-282.7z"/>
			<path class="st7" d="M-277.3,82.1c0,1.5-0.4,3.1-2.1,3.1c-1.6,0-2.1-1.5-2.1-3.1c0-1.5,0.5-3.1,2.1-3.1
				C-277.8,79-277.3,80.5-277.3,82.1z M-280.6,82.1c0,1.1,0.2,2.3,1.2,2.3c1,0,1.2-1.2,1.2-2.4c0-1.1-0.2-2.3-1.2-2.3
				C-280.4,79.8-280.6,80.8-280.6,82.1z"/>
			<path class="st7" d="M-362.2,93.2v2.7h-0.9v-6.3h2.5c1.3,0,2,0.7,2,1.7c0,0.8-0.5,1.3-1,1.5c0.5,0.1,0.9,0.5,0.9,1.6v0.3
				c0,0.4,0,1,0.1,1.2h-0.9c-0.1-0.3-0.1-0.8-0.1-1.4v-0.1c0-0.9-0.2-1.2-1.3-1.2H-362.2z M-362.2,92.4h1.3c0.9,0,1.3-0.3,1.3-1
				c0-0.6-0.4-1-1.2-1h-1.4V92.4z"/>
			<path class="st7" d="M-352.4,91.8v0.8h-4.9v-0.8H-352.4z M-352.4,94.1v0.8h-4.9v-0.8H-352.4z"/>
			<path class="st7" d="M-350.1,95.9V91c-0.3,0.2-0.9,0.4-1.2,0.5v-0.7c0.5-0.1,1-0.5,1.4-0.8h0.7v5.9H-350.1z"/>
			<path class="st7" d="M-346.7,95.9V91c-0.3,0.2-0.9,0.4-1.2,0.5v-0.7c0.5-0.1,1-0.5,1.4-0.8h0.7v5.9H-346.7z"/>
			<path class="st7" d="M-340.3,92.9c0,1.5-0.4,3.1-2.1,3.1c-1.6,0-2.1-1.5-2.1-3.1c0-1.5,0.5-3.1,2.1-3.1
				C-340.8,89.8-340.3,91.3-340.3,92.9z M-343.6,92.9c0,1.1,0.2,2.3,1.2,2.3c1,0,1.2-1.2,1.2-2.4c0-1.1-0.2-2.3-1.2-2.3
				C-343.4,90.6-343.6,91.6-343.6,92.9z"/>
			<path class="st7" d="M-331.7,95.9h-0.7c0-0.1-0.1-0.4-0.1-0.8c-0.3,0.4-0.8,0.9-1.9,0.9c-1.8,0-2.8-1.4-2.8-3.1
				c0-1.9,1-3.3,2.9-3.3c1.5,0,2.4,0.8,2.6,1.9h-0.9c-0.2-0.6-0.7-1.2-1.7-1.2c-1.4,0-2,1.1-2,2.5c0,1.2,0.5,2.4,1.9,2.4
				c1.4,0,1.7-0.9,1.7-1.9v-0.1h-1.7v-0.8h2.6V95.9z"/>
			<path class="st7" d="M-325.3,91.8v0.8h-4.9v-0.8H-325.3z M-325.3,94.1v0.8h-4.9v-0.8H-325.3z"/>
			<path class="st7" d="M-324.2,95.9L-324.2,95.9c0-0.9,0.5-1.8,1.8-2.7c0.9-0.7,1.2-0.9,1.2-1.6c0-0.6-0.3-1-1-1
				c-0.7,0-1,0.4-1.1,1.1h-0.9c0.1-1,0.7-1.8,2-1.8c1.4,0,1.9,0.9,1.9,1.7c0,0.9-0.4,1.3-1.5,2.1c-0.8,0.6-1.2,1.1-1.3,1.5h3.1
				l-0.1,0.8H-324.2z"/>
			<path class="st7" d="M-315.2,92.9c0,1.5-0.4,3.1-2.1,3.1c-1.6,0-2.1-1.5-2.1-3.1c0-1.5,0.5-3.1,2.1-3.1
				C-315.7,89.8-315.2,91.3-315.2,92.9z M-318.5,92.9c0,1.1,0.2,2.3,1.2,2.3c1,0,1.2-1.2,1.2-2.4c0-1.1-0.2-2.3-1.2-2.3
				C-318.2,90.6-318.5,91.6-318.5,92.9z"/>
			<path class="st7" d="M-311.7,95.9v-1.5h-2.8v-0.8l2.7-3.6h1v3.7h0.8l-0.1,0.7h-0.7v1.5H-311.7z M-311.7,92.2c0-0.5,0-1,0-1.4
				c-0.2,0.5-1.3,2-1.9,2.8h1.9V92.2z"/>
			<path class="st7" d="M-306.8,89.6h2.5c1.4,0,2,0.7,2,1.6c0,0.7-0.4,1.2-0.9,1.4c0.4,0.1,1.1,0.6,1.1,1.5c0,1.2-0.9,1.8-2.1,1.8
				h-2.5V89.6z M-304.5,92.2c0.9,0,1.2-0.3,1.2-0.9c0-0.5-0.4-0.9-1.1-0.9h-1.5v1.8H-304.5z M-305.9,95.1h1.5c0.8,0,1.3-0.4,1.3-1.1
				c0-0.6-0.4-1.1-1.4-1.1h-1.4V95.1z"/>
			<path class="st7" d="M-296,91.8v0.8h-4.9v-0.8H-296z M-296,94.1v0.8h-4.9v-0.8H-296z"/>
			<path class="st7" d="M-294.9,95.9L-294.9,95.9c0-0.9,0.5-1.8,1.8-2.7c0.9-0.7,1.2-0.9,1.2-1.6c0-0.6-0.3-1-1-1
				c-0.7,0-1,0.4-1.1,1.1h-0.9c0.1-1,0.7-1.8,2-1.8c1.4,0,1.9,0.9,1.9,1.7c0,0.9-0.4,1.3-1.5,2.1c-0.8,0.6-1.2,1.1-1.3,1.5h3.1
				l-0.1,0.8H-294.9z"/>
			<path class="st7" d="M-286.3,90.7h-2.5c-0.1,0.4-0.2,1.3-0.2,1.6c0.2-0.3,0.6-0.4,1.2-0.4c1.1,0,1.8,0.8,1.8,2
				c0,1.2-0.6,2.2-2.1,2.2c-1.1,0-1.9-0.6-2-1.6h0.9c0.1,0.5,0.5,0.9,1.1,0.9c0.8,0,1.1-0.6,1.1-1.4c0-0.7-0.3-1.3-1.1-1.3
				c-0.7,0-1,0.3-1.2,0.7l-0.8-0.1c0.2-0.8,0.4-2.5,0.5-3.2h3.3L-286.3,90.7z"/>
			<path class="st7" d="M-281.3,90.7h-2.5c-0.1,0.4-0.2,1.3-0.2,1.6c0.2-0.3,0.6-0.4,1.2-0.4c1.1,0,1.8,0.8,1.8,2
				c0,1.2-0.6,2.2-2.1,2.2c-1.1,0-1.9-0.6-2-1.6h0.9c0.1,0.5,0.5,0.9,1.1,0.9c0.8,0,1.1-0.6,1.1-1.4c0-0.7-0.3-1.3-1.1-1.3
				c-0.7,0-1,0.3-1.2,0.7l-0.8-0.1c0.2-0.8,0.4-2.5,0.5-3.2h3.3L-281.3,90.7z"/>
			<path class="st7" d="M-363.5,104.2h4.2v0.7h-4.2V104.2z M-361.7,100.6h0.6l-1.5,6.1h-0.7L-361.7,100.6z M-363.1,102.2h4.2l0,0.7
				h-4.2V102.2z M-359.9,100.6h0.6l-1.5,6.1h-0.7L-359.9,100.6z"/>
			<path class="st7" d="M-354.9,102.1c-0.1-0.4-0.4-0.7-1-0.7c-1,0-1.3,0.9-1.3,2.1c0.2-0.4,0.7-0.8,1.5-0.8c1.1,0,1.8,0.8,1.8,2
				c0,1.2-0.7,2.2-2,2.2c-1.6,0-2.1-1.3-2.1-3c0-1.6,0.5-3.1,2.2-3.1c1.2,0,1.7,0.8,1.8,1.4H-354.9z M-354.8,104.7
				c0-0.6-0.2-1.3-1.1-1.3c-0.7,0-1.2,0.4-1.2,1.3c0,0.5,0.2,1.4,1.2,1.4C-355.1,106.1-354.8,105.4-354.8,104.7z"/>
			<path class="st7" d="M-348.7,103.8h-3.1v2.1h3.4l-0.1,0.8h-4.2v-6.3h4.1v0.8h-3.2v1.8h3.1V103.8z"/>
			<path class="st7" d="M-342.3,104.9c-0.3,1.1-1.1,1.9-2.5,1.9c-1.9,0-2.8-1.4-2.8-3.2c0-1.7,0.9-3.2,2.9-3.2
				c1.5,0,2.3,0.9,2.5,1.9h-0.9c-0.2-0.6-0.6-1.2-1.6-1.2c-1.3,0-1.9,1.2-1.9,2.4c0,1.2,0.5,2.5,1.9,2.5c0.9,0,1.3-0.6,1.6-1.1
				H-342.3z"/>
			<path class="st7" d="M-336,104.9c-0.3,1.1-1.1,1.9-2.5,1.9c-1.9,0-2.8-1.4-2.8-3.2c0-1.7,0.9-3.2,2.9-3.2c1.5,0,2.3,0.9,2.5,1.9
				h-0.9c-0.2-0.6-0.6-1.2-1.6-1.2c-1.3,0-1.9,1.2-1.9,2.4c0,1.2,0.5,2.5,1.9,2.5c0.9,0,1.3-0.6,1.6-1.1H-336z"/>
			<path class="st7" d="M-334.8,100.4h4.1v0.8h-3.2v1.9h3v0.8h-3v2.7h-0.9V100.4z"/>
			<path class="st7" d="M-329.7,100.4h4.1v0.8h-3.2v1.9h3v0.8h-3v2.7h-0.9V100.4z"/>
		</g>
	</g>
</g>
</svg>
