<?xml version="1.0" encoding="utf-8"?>
<!-- Generator: Adobe Illustrator 26.0.3, SVG Export Plug-In . SVG Version: 6.00 Build 0)  -->
<!DOCTYPE svg PUBLIC "-//W3C//DTD SVG 1.1//EN" "http://www.w3.org/Graphics/SVG/1.1/DTD/svg11.dtd" [
	<!ENTITY ns_extend "http://ns.adobe.com/Extensibility/1.0/">
	<!ENTITY ns_ai "http://ns.adobe.com/AdobeIllustrator/10.0/">
	<!ENTITY ns_graphs "http://ns.adobe.com/Graphs/1.0/">
	<!ENTITY ns_vars "http://ns.adobe.com/Variables/1.0/">
	<!ENTITY ns_imrep "http://ns.adobe.com/ImageReplacement/1.0/">
	<!ENTITY ns_sfw "http://ns.adobe.com/SaveForWeb/1.0/">
	<!ENTITY ns_custom "http://ns.adobe.com/GenericCustomNamespace/1.0/">
	<!ENTITY ns_adobe_xpath "http://ns.adobe.com/XPath/1.0/">
]>
<svg version="1.1" id="Layer_1" xmlns:x="&ns_extend;" xmlns:i="&ns_ai;" xmlns:graph="&ns_graphs;"
	 xmlns="http://www.w3.org/2000/svg" xmlns:xlink="http://www.w3.org/1999/xlink" x="0px" y="0px" viewBox="0 0 512 512"
	 style="enable-background:new 0 0 512 512;" xml:space="preserve">
<style type="text/css">
	.st0{fill:#11548F;}
</style>
<metadata>
	<sfw  xmlns="&ns_sfw;">
		<slices></slices>
		<sliceSourceBounds  bottomLeftOrigin="true" height="448" width="512" x="0" y="32"></sliceSourceBounds>
	</sfw>
</metadata>
<path class="st0" d="M48,408c0,13.3,10.8,24,24,24h416c13.3,0,24,10.7,24,24s-10.7,24-24,24H72c-39.8,0-72-32.2-72-72V56
	c0-13.2,10.8-24,24-24s24,10.8,24,24V408z M344,128h112c13.3,0,24,10.7,24,24v112c0,13.3-10.7,24-24,24s-24-10.7-24-24v-54.1
	L320.1,320.1c-8.5,10.2-23.7,10.2-33.1,0l-79.9-78.2l-63,62.2c-8.5,10.2-23.7,10.2-33.1,0c-9.3-8.5-9.3-23.7,0-33.1l80-80
	c9.4-9.3,24.6-9.3,33.1,0l79.9,79.1l94.1-94.1H344c-13.3,0-24-10.7-24-24S330.7,128,344,128L344,128z"/>
</svg>
