<?xml version="1.0" encoding="UTF-8"?>
<!DOCTYPE svg PUBLIC "-//W3C//DTD SVG 1.1//EN" "http://www.w3.org/Graphics/SVG/1.1/DTD/svg11.dtd">
<!-- Creator: CorelDRAW 2021 (64-Bit) -->
<svg xmlns="http://www.w3.org/2000/svg" xml:space="preserve" width="749px" height="122px" version="1.1" style="shape-rendering:geometricPrecision; text-rendering:geometricPrecision; image-rendering:optimizeQuality; fill-rule:evenodd; clip-rule:evenodd"
viewBox="0 0 748325 121844"
 xmlns:xlink="http://www.w3.org/1999/xlink"
 xmlns:xodm="http://www.corel.com/coreldraw/odm/2003">
 <defs>
  <style type="text/css">
   <![CDATA[
    .fil1 {fill:#676767}
    .fil2 {fill:#6DA188}
    .fil0 {fill:#676767;fill-rule:nonzero}
    .fil3 {fill:#6DA188;fill-rule:nonzero}
    .fil4 {fill:white;fill-rule:nonzero}
   ]]>
  </style>
 </defs>
 <g id="Layer_x0020_1">
  <metadata id="CorelCorpID_0Corel-Layer"/>
  <path class="fil0" d="M417614 17468l-27078 0 -11532 11855 -3749 -5994c-2484,-4164 -5414,-5861 -10127,-5861l-18875 43 17251 27763 -29437 30520 26887 0 12972 -13352 4169 6891c1180,1941 4624,6461 11175,6461l18219 0 -18022 -29354 28147 -28972z"/>
  <path class="fil1" d="M193201 17632l-13017 43183c-2179,7591 1392,14979 10156,14979l55962 -164 3520 -11472 -48875 0 14899 -46526 -22645 0z"/>
  <polygon class="fil0" points="126821,12241 121078,28770 184317,28770 180784,41182 117274,41182 105961,75629 77522,75629 100321,0 198328,0 194656,12241 "/>
  <polygon class="fil0" points="465249,12241 459508,28770 522746,28770 519213,41182 455701,41182 444391,75629 415951,75629 438751,0 536757,0 533086,12241 "/>
  <path class="fil1" d="M555563 17739l-22645 0 -15539 51588c-924,4513 1920,6515 6325,6350l65413 0 15260 -50595c1819,-5417 1479,-7343 -2959,-7343l-16757 0 -14016 46198 -23128 0c-3223,0 -5037,-2666 -4087,-5699 3494,-13469 8431,-27079 12133,-40499z"/>
  <path class="fil1" d="M691704 17632l-13017 43183c-2179,7591 1390,14979 10156,14979l55962 -164 3520 -11472 -48876 0 14900 -46526 -22645 0z"/>
  <path class="fil2" d="M28926 50729l45566 0 3243 -10521 -45575 0 3278 -10460 49401 0 3722 -11948 -74249 81c-3016,9836 -6008,19385 -9024,29222 -1062,3457 -2123,6915 -3183,10373 -1242,4045 -3277,8210 -1239,12376 2399,4905 7059,5777 11878,5777 4435,0 54536,0 57889,0l3756 -12080c-1536,-31 -44241,226 -45170,226 -1202,0 -2274,-472 -2765,-1498 -400,-837 -389,-2129 -141,-3119l2613 -8429z"/>
  <path class="fil1" d="M281657 50729l45565 0 3244 -10521 -45576 0 3278 -10460 49402 0 3722 -11948 -74249 81c-3016,9836 -6009,19385 -9025,29222 -1061,3457 -2121,6915 -3183,10373 -1241,4045 -3274,8210 -1239,12376 2400,4905 7061,5777 11878,5777 4435,0 54536,0 57892,0l3754 -12080c-1536,-31 -44241,226 -45169,226 -1203,0 -2275,-472 -2765,-1498 -401,-837 -388,-2129 -141,-3119l2612 -8429z"/>
  <path class="fil1" d="M626355 50729l45565 0 3246 -10521 -45578 0 3279 -10460 49403 0 3720 -11948 -74247 81c-3018,9836 -6008,19385 -9026,29222 -1062,3457 -2122,6915 -3182,10373 -1241,4045 -3276,8210 -1241,12376 2400,4905 7059,5777 11879,5777 4435,0 54537,0 57890,0l3755 -12080c-1536,-31 -44242,226 -45168,226 -1204,0 -2276,-472 -2767,-1498 -400,-837 -388,-2129 -140,-3119l2612 -8429z"/>
  <path class="fil0" d="M743605 29933l-1693 -3911c820,-303 1676,-945 1676,-2342 0,-1462 -939,-2341 -2788,-2341l-3322 0 0 8594 1082 0 0 -3715 2329 0 1575 3715 1141 0zm-3284 -12301c2210,0 4211,896 5659,2344 1449,1448 2345,3449 2345,5660 0,2210 -896,4211 -2345,5659 -1448,1449 -3449,2345 -5659,2345 -2210,0 -4211,-896 -5660,-2345 -1448,-1448 -2344,-3449 -2344,-5659 0,-2211 896,-4212 2344,-5660 1449,-1448 3450,-2344 5660,-2344zm4929 3075c-1262,-1261 -3005,-2041 -4929,-2041 -1925,0 -3667,780 -4929,2041 -1260,1261 -2041,3004 -2041,4929 0,1924 781,3667 2041,4928 1262,1261 3004,2042 4929,2042 1924,0 3667,-781 4929,-2042 1260,-1261 2041,-3004 2041,-4928 0,-1925 -781,-3668 -2041,-4929zm-4806 4614l-1884 0 0 -3097 2145 0c1112,0 1777,505 1777,1516 0,1052 -737,1581 -2038,1581z"/>
  <g id="_1865711544000">
   <polygon class="fil3" points="412721,86961 402033,121844 731464,121844 742151,86961 "/>
   <path class="fil4" d="M717830 105085l-3448 11370 -8604 0 3412 -11226 -9376 -13075 10005 0 5784 8009 9089 -8009 8638 0 -15500 12931zm-79825 4733c-325,1006 306,2028 1222,2028l11047 0 4598 -15070 -12897 0 -3970 13042zm-60300 0c-305,1006 306,2028 1220,2028l11067 0 4578 -15070 -12895 0 -3970 13042zm118714 -13050l-21483 0 -3989 13042c-304,1005 307,2029 1240,2029l11048 0 2944 -9591 8604 0 -2944 9591c-180,503 -450,1024 -845,1563 -395,557 -862,1041 -1401,1490 -521,449 -1097,827 -1688,1115 -593,286 -1185,448 -1761,448l-21500 0c-539,0 -1042,-162 -1473,-448 -449,-288 -792,-666 -1042,-1115 -270,-449 -432,-933 -521,-1490 -72,-539 -36,-1060 126,-1563l4347 -14280 252 -791c143,-501 412,-1022 825,-1580 413,-540 880,-1024 1419,-1473 538,-449 1132,-827 1742,-1112 612,-290 1187,-449 1743,-449l25776 0 -1419 4614zm-38386 16634c-395,557 -861,1041 -1383,1490 -539,449 -1095,827 -1706,1115 -1996,965 -19685,448 -23243,448 -557,0 -1042,-162 -1491,-448 -431,-288 -790,-666 -1042,-1115 -251,-449 -432,-933 -503,-1490 -55,-360 -72,-719 -18,-1078 36,-162 72,-323 124,-485l4600 -15071c144,-501 413,-1022 827,-1580 410,-540 879,-1024 1418,-1473 558,-449 1132,-827 1743,-1112 610,-290 1185,-449 1740,-449l21483 0c558,0 1044,159 1475,449 431,285 771,663 1023,1112 252,449 432,933 504,1473 54,558 18,1079 -109,1580l-4597 15071c-162,503 -450,1024 -845,1563zm-33536 3053l-20171 0c-557,0 -1042,-162 -1491,-448 -431,-288 -772,-666 -1041,-1115 -252,-449 -432,-933 -504,-1490 -89,-539 -35,-1060 126,-1563l4364 -14280 1653 -5405 8587 0 -6018 19685 15879 0 -1384 4616zm-26763 -3053c-397,557 -847,1041 -1384,1490 -521,449 -1095,827 -1688,1115 -2081,977 -19637,448 -23261,448 -559,0 -1042,-162 -1473,-448 -450,-288 -791,-666 -1060,-1115 -251,-449 -431,-933 -503,-1490 -90,-539 -36,-1060 126,-1563l4597 -15071c145,-501 414,-1022 827,-1580 396,-540 881,-1024 1418,-1473 541,-449 1116,-827 1725,-1112 612,-290 1205,-449 1744,-449l21501 0c539,0 1041,159 1453,449 433,285 774,663 1043,1112 251,449 414,933 485,1473 72,558 36,1079 -110,1580l-4596 15071c-162,503 -449,1024 -844,1563zm-33500 3053l-8801 0c-1779,0 -3360,-1114 -3988,-2766l-4581 -12017 -4509 14819 -8639 0 17 -36 -17 0 7400 -24301 8946 0c1778,0 3359,1112 4005,2766l4473 11818 4473 -14584 8622 0 -5749 18896 -1652 5405zm-42014 0l2999 -9843 -12860 0 -3000 9843 -8604 0 1257 -4131 5856 -19255 287 -915 8605 0 -3021 9841 12864 0 3018 -9841 8639 0 -7418 24301 -8622 0zm-24501 0l-21124 0c-1760,0 -3412,-377 -4203,-2424 -646,-1743 126,-3394 665,-5085 449,-1436 898,-2891 1347,-4328l2605 -8386c736,-2356 2712,-3973 4867,-3973l23280 -17 -1581 5102 -17890 0 -1383 4347 -1312 4436 -1077 3521c-108,413 -180,953 -37,1310 162,431 558,629 1006,629 341,0 15789,-107 16345,-107l-1508 4975zm-28326 -10308l-16490 -20 -1096 3521c-107,413 -161,953 -35,1310 161,431 574,629 1005,629 341,0 15789,-107 16364,-107l-1508 4975 -21143 0c-1742,0 -3412,-377 -4184,-2424 -665,-1743 125,-3394 646,-5085 449,-1436 898,-2891 1364,-4328 1276,-4113 2570,-8227 3845,-12340l26890 -36 -1581 5102 -17891 0 -1365 4347 16544 35 -1365 4421zm-40919 10308l-8604 0 5982 -19687 -9466 0 1437 -4614 27500 0 -1419 4614 -9448 0 -5982 19687z"/>
  </g>
 </g>
</svg>
